<?xml version="1.0" encoding="UTF-8"?>
<svg width="46px" height="80px" viewBox="0 0 46 80" version="1.1" xmlns="http://www.w3.org/2000/svg" xmlns:xlink="http://www.w3.org/1999/xlink">
    <!-- Generator: Sketch 51.3 (57544) - http://www.bohemiancoding.com/sketch -->
    <title>Shape Copy 10</title>
    <desc>Created with Sketch.</desc>
    <defs></defs>
    <g id="Page-1-Copy" stroke="none" stroke-width="1" fill="none" fill-rule="evenodd">
        <g id="Desktop" transform="translate(-150.000000, -3674.000000)" fill="#DB162F" fill-rule="nonzero">
            <g id="Testimonials" transform="translate(0.000000, 3456.000000)">
                <g id="arrow-right-1">
                    <g transform="translate(150.000000, 218.000000)">
                        <path d="M2.77103443,79.5815888 C2.08163175,80.191504 1.02832646,80.1270668 0.418411203,79.4376641 C-0.191504049,78.7482614 -0.127066757,77.6949561 0.562335922,77.0850408 L42.4804998,39.9999986 L0.562335922,2.91495915 C-0.127066758,2.3050439 -0.191504049,1.2517386 0.418411203,0.562335922 C1.02832646,-0.127066758 2.08163175,-0.191504049 2.77103443,0.418411203 L44.6928278,37.5066668 C44.8389203,37.6415819 44.8389203,37.6415819 44.9738322,37.7876708 C46.1956689,39.1646983 46.069858,41.2714968 44.6910149,42.4949394 L2.77103443,79.5815888 Z" id="Shape-Copy-10" transform="translate(22.906846, 40.000000) scale(-1, 1) translate(-22.906846, -40.000000) "></path>
                    </g>
                </g>
            </g>
        </g>
    </g>
</svg>