<?xml version="1.0" encoding="UTF-8"?>
<svg width="16px" height="16px" viewBox="0 0 16 16" version="1.1" xmlns="http://www.w3.org/2000/svg" xmlns:xlink="http://www.w3.org/1999/xlink">
    <!-- Generator: Sketch 51.3 (57544) - http://www.bohemiancoding.com/sketch -->
    <title>Shape</title>
    <desc>Created with Sketch.</desc>
    <defs></defs>
    <g id="Page-1-Copy" stroke="none" stroke-width="1" fill="none" fill-rule="evenodd">
        <g id="Mobile" transform="translate(-30.000000, -1012.000000)" fill="#85B4D6" fill-rule="nonzero">
            <g id="Group-12" transform="translate(29.000000, 822.000000)">
                <g id="Group-22">
                    <g id="Group-13" transform="translate(1.000000, 188.000000)">
                        <path d="M8.00000026,2 L7.99999991,2 C3.58171996,2.00000019 0,5.58171996 0,9.99999991 C1.93129331e-07,14.4182799 3.58171996,17.9999998 7.99999991,17.9999998 C12.4182799,17.9999996 15.9999998,14.4182799 15.9999998,9.99999991 L16,10.0001565 C15.994943,5.58400989 12.4163,2.00522326 8.00013342,2.00002326 L8.00000026,2 Z M12.6180002,7.4666666 L8.05466693,13.6593332 C7.83061696,13.9565945 7.40801096,14.0159445 7.11074697,13.7918945 C7.10758707,13.7895128 7.10444819,13.7871034 7.1013307,13.7846664 L3.84266407,11.1793331 C3.55510804,10.9492144 3.50854538,10.5295558 3.73866404,10.2419998 C3.9687827,9.95444378 4.38844137,9.90788111 4.67599736,10.1379998 C4.67599736,10.1379998 4.67599737,10.1379998 4.67599737,10.1379998 L7.39333068,12.3119998 L11.544664,6.67799983 C11.7488426,6.37160988 12.1627399,6.28875055 12.4691306,6.49292921 C12.7755206,6.69710788 12.8583799,7.11100521 12.6542012,7.41739587 C12.6428933,7.4343646 12.6308128,7.45080554 12.6179978,7.46666687 L12.6180002,7.4666666 Z" id="Shape"></path>
                    </g>
                </g>
            </g>
        </g>
    </g>
</svg>