<?xml version="1.0" encoding="utf-8"?>
<!-- Generator: Adobe Illustrator 22.1.0, SVG Export Plug-In . SVG Version: 6.00 Build 0)  -->
<svg version="1.1" id="Layer_1" xmlns="http://www.w3.org/2000/svg" xmlns:xlink="http://www.w3.org/1999/xlink" x="0px" y="0px"
	 viewBox="0 0 320 221.1" style="enable-background:new 0 0 320 221.1;" xml:space="preserve">
<style type="text/css">
	.st0{fill:#FFFFFF;}
	.st1{fill:none;stroke:#F1F2F2;stroke-width:1.4;stroke-linecap:round;}
	.st2{fill:#234967;}
	.st3{fill:none;stroke:#F1F2F2;stroke-width:1.4;stroke-linecap:round;stroke-linejoin:round;}
	.st4{fill:#F1F2F2;}
	.st5{fill:#3B7AAB;}
	.st6{fill:#FFFFFF;fill-opacity:0.1;}
	.st7{fill:#282F42;}
	.st8{fill:#2A2A2B;}
	.st9{fill:#FFB380;}
	.st10{fill:#083B84;}
	.st11{fill:#DCE8EF;}
	.st12{fill:none;stroke:#E6E7E8;stroke-width:0.942;stroke-linecap:round;}
	.st13{fill:#2E364D;}
	.st14{fill-opacity:0.1;}
	.st15{fill:#323233;}
	.st16{fill:#DBDDD9;}
	.st17{fill:#3F2E18;}
	.st18{fill:#C5C8C9;}
	.st19{fill:#939699;}
	.st20{fill:#A81125;}
	.st21{fill:#F4AB7A;}
	.st22{fill-opacity:5.000000e-02;}
	.st23{fill:#E6E7E8;}
</style>
<rect y="171" class="st0" width="320" height="50"/>
<title>Group 17</title>
<desc>Created with Sketch.</desc>
<g id="Page-1-Copy">
	<g id="Mobile" transform="translate(0.000000, -389.000000)">
		<g id="Group-17" transform="translate(-33.000000, 389.000000)">
			<g id="Group-15">
				<path id="Stroke-1" class="st1" d="M352,74.1h-38.9c-0.4-8.7-7.6-15.7-16.4-15.7c-4.7,0-8.8,1.9-11.8,5.1
					c-3.8-7-11.2-11.8-19.8-11.8c-1.1,0-2.1,0.1-3.1,0.2c-2.6-19-18.9-33.7-38.6-33.7c-2.9,0-5.7,0.3-8.4,0.9
					C209.1,8.3,197.6,1,184.5,1c-15.2,0-28.1,9.8-32.8,23.3c-3.4-1.4-7.1-2.2-11-2.2c-15.8,0-28.6,12.8-28.6,28.6
					c0,1.6,0.2,3.3,0.4,4.8c-0.6-0.1-1.3-0.1-1.9-0.1c-11.4,0-20.9,8-23.3,18.6H34"/>
				<g id="Group-47" transform="translate(231.000000, 12.000000)">
					<polygon id="Fill-26" class="st2" points="40.7,47.5 0.9,28.6 14.1,0.9 53.8,19.7 					"/>
					<polygon id="Stroke-27" class="st1" points="40.7,47.5 0.9,28.6 14.1,0.9 53.8,19.7 					"/>
					<polygon id="Fill-28" class="st2" points="26,27.2 14.1,0.9 53.8,19.7 					"/>
					<polygon id="Stroke-29" class="st3" points="26,27.2 14.1,0.9 53.8,19.7 					"/>
					<path id="Stroke-30" class="st3" d="M31,25.9l9.8,21.6"/>
					<path id="Stroke-31" class="st3" d="M23.8,22.5L0.9,28.6"/>
					<path id="Fill-32" class="st4" d="M63.1,21.5c0,5.2-4.2,9.4-9.4,9.4s-9.4-4.2-9.4-9.4s4.2-9.4,9.4-9.4S63.1,16.4,63.1,21.5"/>
					<path id="Fill-34" class="st5" d="M54.2,26.2l-4.4-2.3l0.5-1l3.4-1.5c0.4-0.2,0.8-0.4,1.1-0.6s0.5-0.4,0.6-0.7
						c0.2-0.3,0.3-0.6,0.2-0.9c0-0.3-0.1-0.4-0.3-0.5s-0.5-0.1-0.7,0c-0.3,0.1-0.5,0.4-0.7,0.8l-1.5-0.8c0.2-0.5,0.6-0.8,0.9-1.1
						c0.4-0.3,0.8-0.4,1.3-0.5c0.5,0,0.9,0.1,1.3,0.3c0.7,0.4,1.1,0.8,1.3,1.4s0.1,1.2-0.3,1.9c-0.2,0.4-0.5,0.8-1,1.1
						c-0.4,0.3-1.1,0.7-1.9,1l-1.7,0.9l2.5,1.3L54.2,26.2z"/>
				</g>
				<path id="Stroke-3" class="st1" d="M72,90.9h101.2"/>
				<path id="Stroke-7" class="st1" d="M235,103.9h104"/>
				<path id="Fill-1" class="st6" d="M273.8,110c3.9,7.3,13,10.1,20.3,6.2s10.1-13,6.2-20.3s-13-10.1-20.3-6.2
					C272.6,93.6,269.9,102.7,273.8,110"/>
				<path id="Fill-1-Copy" class="st6" d="M82.3,18c2.8,5.3,9.4,7.3,14.7,4.5c5.3-2.8,7.3-9.4,4.5-14.7s-9.4-7.3-14.7-4.5
					C81.5,6.1,79.5,12.7,82.3,18"/>
				<path id="Fill-1-Copy-2" class="st6" d="M125.6,106.1c5.8,11,19.5,15.1,30.4,9.3c11-5.8,15.1-19.5,9.3-30.4
					c-5.8-11-19.5-15.1-30.4-9.3C124,81.5,119.8,95.1,125.6,106.1"/>
			</g>
			<g id="Group-84" transform="translate(116.000000, 39.000000)">
				<path id="Fill-1_1_" class="st7" d="M48.8,122.2c1.4,0.7,11.8,7.7,27.3,7.7s28.6-7.6,30.2-7.9c1.5,2.2,2.8,5.3,2.8,5.3
					c0,0.1,0,0.2,0,0.3l-25,28.8c-5.6,1.2-12.8,0.2-12.8,0.2l-25-29.3c-0.1-0.1-0.1-0.3,0-0.4C46,126.9,48.6,122.1,48.8,122.2"/>
				<path id="Fill-3" class="st8" d="M47.3,128.7c0.7-1.2,1.4-2.5,1.5-2.4C50.1,127,60.5,134,76,134s28.6-7.6,30.2-7.9
					c0.6,0.9,1.2,1.9,1.6,2.8l1.1-1.3c0.1-0.1,0.1-0.2,0-0.3c0,0-1.3-3.1-2.8-5.3c-1.6,0.3-14.7,7.9-30.2,7.9s-25.9-7-27.3-7.7
					c-0.2-0.1-2.7,4.7-2.7,4.7c-0.1,0.1-0.1,0.3,0,0.4L47.3,128.7z"/>
				<path id="Fill-5" class="st7" d="M111.1,153.9c9.7-4.6,30.8-16.9,39.7-35.3c1.2-2.6-1.9-13.4-12-9.9c-6.3,2.2-38.8,13-44.1,19.8
					c-8.5,11.1-8.9,21.1-10.7,27.7C88.8,158.2,106.3,156.2,111.1,153.9"/>
				<path id="Fill-7" class="st7" d="M42.3,154.9c-9.6-4.6-37.5-24.6-38.8-35.7c-0.3-2.8-3.1-11.6,8.9-11.2
					c6.2,2.2,41.1,14.8,47,21.2c7.4,8,9.8,21.9,10.6,27.9C65.2,159.2,47.1,157.2,42.3,154.9"/>
				<path id="Fill-9" class="st9" d="M106.5,149.4c-9.2-0.4-19.2-1.5-23-2.3c-11-4.5-71-37.6-71-37.6c-9.7-2.6-12.3,5.9-9.4,11.1
					c7.7,13.4,14.8,21.1,42,24.7c8.1,1.1,23.4,5.6,31.7,8.7c0.6,1.9,2.5,4,7,4.5c2.4,0.2,16.1,5.1,22.5,4.6
					c10.6-0.9,10.6-5.7,10.6-7.8C117,153.1,114.4,149.7,106.5,149.4"/>
				<path id="Fill-11" class="st10" d="M107.5,149.6c-9.3-0.4-19.3-1.5-23.2-2.3c-0.3-0.1-0.6-0.2-0.9-0.4l-7.4,6.5
					c0.5,0.2,1.1,0.4,1.6,0.6c0.6,1.9,2.5,3.9,7.1,4.4c2.4,0.2,16.2,5,22.7,4.5c10.7-0.9,10.7-5.5,10.7-7.6
					C118,153.3,115.4,150,107.5,149.6"/>
				<path id="Fill-13" class="st11" d="M106.4,162c10.6-0.9,10.5-5.5,10.6-7.5c0-1.8-2-4.6-7.9-5.4c-1.5,1.2-3.7,4.9-4,10
					c-12,0.4-22.6-3.6-28.1-5.7c0.6,1.8,2.5,3.8,7,4.3C86.4,157.7,100.1,162.5,106.4,162"/>
				<path id="Stroke-15" class="st12" d="M90,147c-1.3,2-2,4.2-2,6.5v0.5"/>
				<path id="Stroke-17" class="st12" d="M93,148c-1.3,2-2,4.2-2,6.5v0.5"/>
				<path id="Stroke-19" class="st12" d="M97,148c-1.3,2-2,4.2-2,6.5v0.5"/>
				<path id="Stroke-21" class="st12" d="M99,148c-1.3,2-2,4.2-2,6.5v0.5"/>
				<path id="Fill-23" d="M83.5,146.9c-1.7-0.7-4.5-2-8-3.9c-2.5,1.4-5.5,3-6.2,3.4c-0.8,0.2-6.5,0.9-10.3,1.8
					c6.5,1.8,13.3,3.9,17.9,5.6c0.1,0.4,0.3,0.9,0.6,1.3c4.8-2.6,16.8-4.4,21.5-6.3C92.4,148.2,86.3,147.5,83.5,146.9"/>
				<path id="Fill-25" class="st13" d="M12.7,107.4c0,0,32.8,18.9,54.3,30.2c0,4.1-0.5,8.4-0.8,9.4c-0.7,1.7-5.4,7.6-7.4,10
					c-7.7-5-11.4-7.3-16.1-8.7c-31.4-9.5-34.2-14-41.9-27.3C-2.1,115.9,3,104.8,12.7,107.4"/>
				<path id="Fill-27" class="st14" d="M0.5,120.5c0-0.1-0.1-0.2-0.1-0.4c0-0.1,0-0.1-0.1-0.2c0-0.1-0.1-0.2-0.1-0.4
					c0-0.1,0-0.2,0-0.2c0-0.1,0-0.2-0.1-0.4c0-0.1,0-0.2,0-0.3c0-0.1,0-0.2,0-0.4c0-0.1,0-0.2,0-0.3c0-0.1,0-0.3,0-0.4s0-0.2,0-0.3
					c0-0.1,0-0.3,0-0.4s0-0.2,0-0.3c0-0.1,0-0.3,0-0.4s0-0.2,0-0.3c0-0.1,0-0.3,0.1-0.4c0-0.1,0-0.2,0.1-0.2c0-0.1,0.1-0.3,0.1-0.4
					s0-0.2,0.1-0.2c0-0.1,0.1-0.3,0.1-0.4s0-0.1,0.1-0.2c0.1-0.2,0.1-0.3,0.2-0.5c0-0.1,0.1-0.1,0.1-0.2c0.1-0.2,0.1-0.3,0.2-0.5
					c0-0.1,0.1-0.1,0.1-0.2c0.1-0.2,0.2-0.3,0.3-0.5c0,0,0-0.1,0.1-0.1c0.1-0.2,0.2-0.4,0.3-0.5c0,0,0-0.1,0.1-0.1
					c0.1-0.2,0.3-0.4,0.4-0.6c0.2,0.3,0.4,0.7,0.6,1.1c8.7,16.3,53.6,31.8,63,35l0,0c-0.8,1.7-5.3,7.6-7.3,9.9
					c-7.7-5-11.4-7.3-16-8.7C11.5,138.7,8.6,134.2,1,121c-0.1-0.2-0.2-0.3-0.3-0.5C0.5,120.6,0.5,120.5,0.5,120.5"/>
				<path id="Fill-29" class="st15" d="M65.9,147.5c0-0.1,0.1-0.3,0.1-0.5c-4.8,1.1-12.1,2.6-18.4,2.7c-0.6,0-1.1,0-1.6,0.1
					c3.4,1.4,6.8,3.5,12.7,7.2C60.6,154.7,65.2,149.1,65.9,147.5"/>
				<path id="Fill-31" class="st9" d="M141,110.6c0,0-61.2,34.4-71.5,36.8c-4.2,0.9-15.5,2.3-23.6,2.4c-7.9,0.1-8.9,3.8-8.9,5.9
					c0,2.1,4.4,6.8,7.7,7.2c10.1,1.3,22.2-3.3,24.6-3.5c5-0.5,7.7-4.1,8-6.1c7.7-3.1,24.6-6.8,31.6-7.6
					c27.4-3.3,34.4-12.4,42.1-25.8C153.9,114.7,150.7,108,141,110.6"/>
				<path id="Fill-33" class="st13" d="M141.3,108.4c0,0-32.8,18.9-54.3,30.2c0,4.1,0.5,8.4,0.8,9.4c0.7,1.7,5.4,7.6,7.4,10
					c7.7-5,11.4-7.3,16.1-8.7c31.4-9.5,34.3-13.9,41.9-27.3C156.1,116.9,151,105.8,141.3,108.4"/>
				<path id="Fill-35" class="st14" d="M153.5,121.5c0-0.1,0.1-0.2,0.1-0.4c0-0.1,0-0.1,0.1-0.2c0-0.1,0.1-0.2,0.1-0.4
					c0-0.1,0-0.2,0-0.2c0-0.1,0-0.2,0.1-0.4c0-0.1,0-0.2,0-0.3c0-0.1,0-0.2,0-0.4c0-0.1,0-0.2,0-0.3c0-0.1,0-0.3,0-0.4s0-0.2,0-0.3
					c0-0.1,0-0.3,0-0.4s0-0.2,0-0.3c0-0.1,0-0.3,0-0.4s0-0.2,0-0.3c0-0.1,0-0.3-0.1-0.4c0-0.1,0-0.2-0.1-0.2c0-0.1-0.1-0.3-0.1-0.4
					s0-0.2-0.1-0.2c0-0.1-0.1-0.3-0.1-0.4s0-0.1-0.1-0.2c-0.1-0.2-0.1-0.3-0.2-0.5c0-0.1-0.1-0.1-0.1-0.2c-0.1-0.2-0.1-0.3-0.2-0.5
					c0-0.1-0.1-0.1-0.1-0.2c-0.1-0.2-0.2-0.3-0.3-0.5c0,0,0-0.1-0.1-0.1c-0.1-0.2-0.2-0.4-0.3-0.5c0,0,0-0.1-0.1-0.1
					c-0.1-0.2-0.3-0.4-0.4-0.6l0,0c-0.2,0.3-0.4,0.7-0.6,1.1c-8.7,16.3-53.6,31.8-63,35l0,0c0.8,1.7,5.3,7.6,7.3,9.9
					c7.7-5,11.4-7.3,16-8.7c31.3-9.4,34.2-13.9,41.8-27.1c0.1-0.2,0.2-0.3,0.3-0.5C153.5,121.6,153.5,121.5,153.5,121.5"/>
				<path id="Fill-37" class="st15" d="M76,130.3c-1.7,0-3.4-0.1-5-0.3v4c0,0.6,0.5,1,1,1h8c0.6,0,1-0.5,1-1v-4
					C79.4,130.2,77.7,130.3,76,130.3"/>
				<path id="Fill-39" class="st16" d="M79.9,130v2.9c0,0.3-0.3,0.6-0.6,0.6h-6.7c-0.3,0-0.6-0.3-0.6-0.6V130h-1v4c0,0.6,0.5,1,1,1
					h8c0.6,0,1-0.5,1-1v-4H79.9z"/>
				<path id="Fill-41" class="st17" d="M67,44.9c-3.2-1.5-8.5-7.6-10.2-20.6c-1.2-9.6-2.5-20.5,9.3-22.5c7.4-2.5,25.3-4.4,28.6,8
					c1.6,14.5-3.3,35.8-10.5,35.1c-0.3,4.6-8.1,3.4-10.1,3.9C69,50.1,67,44.9,67,44.9"/>
				<path id="Fill-43" class="st18" d="M39,120.3l9.6,8.5l54.7,0.2l9.8-8.7c1.3-1.1,2-2.7,2-4.3H37C37,117.6,37.7,119.2,39,120.3"/>
				<polygon id="Fill-45" class="st19" points="37,116 51.5,128 102.2,128 115,116 				"/>
				<path id="Fill-47" class="st20" d="M129.9,96.3c-1-6.3-7.8-35.7-17.7-43.1c-13.9-10.4-42.1-13.8-71.6-0.9
					c-10.2,5-15,38-16.3,45.2c-2.5,13.5,18.5,18,21.5,18.6c6.2,1.2,8-1.9,8.9-4.2c1.5-4-11.3-10.8-12.1-15.1c3.4-16.4,1-15.7,0-22.6
					c1,4.7-0.6,6.6,4.1,16c0.9,1.8,2.7,26,1.7,32.1c-0.4,2.4,57.9,2.2,57.3-0.2c-1.4-5.9-0.3-31.4,0.4-33c2.7-6.7,3-13.5,3.3-15.4
					c-0.6,3.9-2.8,4.5,0,21c-3.3,3.1-11.8,14.6-10.4,18.6c0.8,2.3,3.5,5.8,7.1,2.9C109,113.9,132.1,109.9,129.9,96.3"/>
				<path id="Fill-49" class="st21" d="M86.7,54.5c1-0.9,1.5-2.3,1.3-3.7c-0.4-3-1.1-8.5-0.5-12c0.7-4.7-23.6-2-23.6-2
					s-0.1,9.1-0.8,13.7c-0.2,1.2,0.1,2.4,0.8,3.3c2,2.5,6.1,4.8,11.3,5.2C80.6,59.4,84.6,56.5,86.7,54.5"/>
				<path id="Fill-51" class="st9" d="M93,25c0.8,0,1.7,0.6,1.9,1.3c0.6,2.4-0.5,7.4-1.9,8.5c-1.2,0.9-3,1.2-3,1.2L93,25z"/>
				<path id="Fill-53" d="M91.9,30.9c-0.2,1.7-0.5,2.2-1.1,2.1s-0.9-1.5-0.8-3.2c0.2-1.7,0.8-2.9,1.4-2.8S92.1,29.2,91.9,30.9"/>
				<path id="Fill-55" class="st9" d="M59.1,25c-0.7,0-1.7,0.6-1.8,1.4c-0.6,2.3,0,6.7,1.5,8.3c1,1,2.3,1.4,2.3,1.4L59.1,25z"/>
				<path id="Fill-57" d="M59.1,30.8c0.2,1.7,0.5,2.3,1.1,2.2s0.9-1.5,0.8-3.2c-0.2-1.7-0.8-2.9-1.4-2.8
					C59,27.1,58.9,29.1,59.1,30.8"/>
				<path id="Fill-59" class="st9" d="M88.6,20.6c1.8,0.9,1,9.6,1,11.7c0,0.8,0.9,0.4,1.3,0.4c0,3.7-0.4,8.4-1.1,10.7
					c-0.6,2-9.1,8.5-14.2,8.5s-14.3-7.7-14.8-9.7c-0.7-2.8-0.6-5.1-0.9-9.5c0.7,0.1,1.3,0.1,1.3-0.5c0-0.9-1.3-11.9,3.8-14.3
					C68.5,20.4,85,21.6,88.6,20.6"/>
				<path id="Fill-61" class="st22" d="M43.1,73c0,0.1,0,0.3-0.1,0.6c0,0,0,0,0-0.1l0,0c0.6,0.1-0.6,6.6,4,15.9
					c0.3,0.7,0.8,4.6,1.2,9.5c2.6-5.2,7.1-7.3,13.7-8.1C58.1,90.3,47.1,89.5,43.1,73"/>
				<path id="Fill-63" class="st22" d="M106.7,88.3c2.7-6.6,2.9-13.4,3.3-15.3c-3.3,15.3-14.1,17.2-22,18.1
					c3,0.5,14.4,3.2,17.7,17.9C105.7,99.9,106.3,89.3,106.7,88.3"/>
				<path id="Fill-65" class="st18" d="M50.7,131h49.6c2.6,0,4.7-2.2,4.7-5H46C46,128.8,48.1,131,50.7,131"/>
				<path id="Fill-67" class="st18" d="M106,126H47l-8.9-32.5C37.6,91.7,39,90,40.8,90h71.4c1.8,0,3.2,1.7,2.7,3.5L106,126z"/>
				<path id="Fill-69" class="st23" d="M81,111c0,1.7-2.5,3-5.5,3s-5.5-1.3-5.5-3s2.5-3,5.5-3S81,109.3,81,111"/>
				<g id="Group-73" transform="translate(36.000000, 146.000000)">
					<g id="Clip-72">
					</g>
					<path id="Fill-71" class="st10" d="M34.9,0.5c-0.5,0.2-1,0.3-1.4,0.4C29.3,1.9,18,3.3,9.8,3.4c-7.9,0.1-8.9,3.9-8.9,6
						s4.4,6.9,7.7,7.4c10.1,1.3,22.2-3.4,24.7-3.6c5-0.5,7.7-4.2,8-6.2c0,0-4.8,1.3-3.8-1.1c0.9-2.2-0.3-4.6-2.6-5.2
						C34.8,0.6,34.8,0.6,34.9,0.5"/>
				</g>
				<path id="Fill-74" class="st11" d="M47.9,160.7c1.6-4.5-0.1-8.6-1.2-10.7c-0.3,0-0.6,0-0.8,0c-8,0.1-9,3.7-8.9,5.8
					c0,2,4.4,6.6,7.7,7c10.1,1.2,22.2-3.2,24.7-3.4c2.4-0.2,4.3-1.2,5.6-2.3C68.2,158.8,47.8,163.7,47.9,160.7"/>
				<path id="Stroke-76" class="st12" d="M65,148c1.3,2,2,4.2,2,6.5v0.5"/>
				<path id="Stroke-78" class="st12" d="M61,148c1.3,2,2,4.2,2,6.5v0.5"/>
				<path id="Stroke-80" class="st12" d="M58,149c1.3,2,2,4.2,2,6.5v0.5"/>
				<path id="Stroke-82" class="st12" d="M55,149c1.3,2,2,4.2,2,6.5v0.5"/>
			</g>
		</g>
	</g>
</g>
</svg>
