<?xml version="1.0" encoding="utf-8"?>
<!-- Generator: Adobe Illustrator 22.1.0, SVG Export Plug-In . SVG Version: 6.00 Build 0)  -->
<svg version="1.1" id="Layer_1" xmlns="http://www.w3.org/2000/svg" xmlns:xlink="http://www.w3.org/1999/xlink" x="0px" y="0px"
	 viewBox="0 0 1440 460" style="enable-background:new 0 0 1440 460;" xml:space="preserve">
<style type="text/css">
	.st0{fill:#FFFFFF;}
	.st1{opacity:0.1;}
	.st2{filter:url(#Adobe_OpacityMaskFilter);}
	.st3{mask:url(#mask-2_1_);fill:#FFFFFF;}
	.st4{filter:url(#Adobe_OpacityMaskFilter_1_);}
	.st5{mask:url(#mask-4_1_);fill:#FFFFFF;}
	.st6{fill:#234967;}
	.st7{fill:none;stroke:#F1F2F2;stroke-width:1.4;stroke-linecap:round;}
	.st8{fill:none;stroke:#F1F2F2;stroke-width:1.4;stroke-linecap:round;stroke-linejoin:round;}
	.st9{fill:#F1F2F2;}
	.st10{fill:#3B7AAB;}
	.st11{fill:none;stroke:#3B7AAB;}
	.st12{fill:#234967;stroke:#F1F2F2;stroke-width:1.4;stroke-linecap:round;}
	.st13{fill:none;}
	.st14{fill:#282F42;}
	.st15{fill:#2A2A2B;}
	.st16{fill:#FFB380;}
	.st17{fill:#083B84;}
	.st18{fill:#DCE8EF;}
	.st19{fill:none;stroke:#E6E7E8;stroke-width:0.942;stroke-linecap:round;}
	.st20{fill:#2E364D;}
	.st21{fill-opacity:0.1;}
	.st22{fill:#323233;}
	.st23{fill:#DBDDD9;}
	.st24{fill:#3F2E18;}
	.st25{fill:#C5C8C9;}
	.st26{fill:#939699;}
	.st27{fill:#A81125;}
	.st28{fill:#F4AB7A;}
	.st29{fill-opacity:5.000000e-02;}
	.st30{fill:#E6E7E8;}
	.st31{filter:url(#Adobe_OpacityMaskFilter_2_);}
	.st32{mask:url(#mask-6_1_);fill:#083B84;}
	.st33{filter:url(#Adobe_OpacityMaskFilter_3_);}
	.st34{mask:url(#mask-8_1_);fill:#915811;}
	.st35{fill:#E0B885;}
	.st36{fill:#8FD2EF;}
	.st37{fill:#88CBE2;}
	.st38{filter:url(#Adobe_OpacityMaskFilter_4_);}
	.st39{mask:url(#mask-10_1_);fill:#5E443F;}
	.st40{fill:#E5B589;}
	.st41{fill:#DDAA80;}
	.st42{fill:#915811;}
	.st43{filter:url(#Adobe_OpacityMaskFilter_5_);}
	.st44{mask:url(#mask-12_1_);fill:#E0B885;}
	.st45{fill:#A4DFFF;}
	.st46{fill:#DE861B;}
	.st47{filter:url(#Adobe_OpacityMaskFilter_6_);}
	.st48{mask:url(#mask-14_1_);fill:#FFFFFF;}
	.st49{filter:url(#Adobe_OpacityMaskFilter_7_);}
	.st50{mask:url(#mask-16_1_);fill:#C5C8C9;}
	.st51{fill:#B4B5B5;}
	.st52{fill:#BA6536;}
	.st53{fill:#5E443F;}
	.st54{fill:#0B5D8A;}
	.st55{filter:url(#Adobe_OpacityMaskFilter_8_);}
	.st56{mask:url(#mask-18_1_);fill:#443A38;}
	.st57{filter:url(#Adobe_OpacityMaskFilter_9_);}
	.st58{mask:url(#mask-20_1_);fill-opacity:0.1;}
	.st59{fill:#EAB38B;}
	.st60{fill:#F4C095;}
	.st61{fill:#DB2A4D;}
	.st62{fill:#102A35;}
	.st63{filter:url(#Adobe_OpacityMaskFilter_10_);}
	.st64{mask:url(#mask-22_1_);fill:#0C6899;}
	.st65{fill:#145799;}
	.st66{fill:#0C6899;}
	.st67{fill:none;stroke:#FFFFFF;stroke-width:0.5;}
	.st68{fill:#E7643C;}
	.st69{fill:#231F20;fill-opacity:5.000000e-02;}
	.st70{filter:url(#Adobe_OpacityMaskFilter_11_);}
	.st71{mask:url(#mask-24_1_);fill:#005274;}
	.st72{filter:url(#Adobe_OpacityMaskFilter_12_);}
	.st73{mask:url(#mask-24_2_);fill:#40476D;}
	.st74{filter:url(#Adobe_OpacityMaskFilter_13_);}
	.st75{mask:url(#mask-24_3_);fill:#231F20;fill-opacity:0.1;}
	.st76{filter:url(#Adobe_OpacityMaskFilter_14_);}
	.st77{mask:url(#mask-24_4_);fill:#231F20;fill-opacity:0.1;}
	.st78{filter:url(#Adobe_OpacityMaskFilter_15_);}
	.st79{mask:url(#mask-24_5_);fill:#1A7068;}
	.st80{filter:url(#Adobe_OpacityMaskFilter_16_);}
	.st81{mask:url(#mask-24_6_);fill:#4F4A97;}
	.st82{filter:url(#Adobe_OpacityMaskFilter_17_);}
	.st83{mask:url(#mask-24_7_);fill:#F2C99E;}
	.st84{filter:url(#Adobe_OpacityMaskFilter_18_);}
	.st85{mask:url(#mask-24_8_);fill:#8B5E3C;}
	.st86{filter:url(#Adobe_OpacityMaskFilter_19_);}
	.st87{mask:url(#mask-24_9_);fill:#1C786F;}
	.st88{filter:url(#Adobe_OpacityMaskFilter_20_);}
	.st89{mask:url(#mask-24_10_);fill-opacity:5.000000e-02;}
	.st90{filter:url(#Adobe_OpacityMaskFilter_21_);}
	.st91{mask:url(#mask-24_11_);fill:#4F4A97;}
	.st92{filter:url(#Adobe_OpacityMaskFilter_22_);}
	.st93{mask:url(#mask-24_12_);fill:#F2C99E;}
	.st94{filter:url(#Adobe_OpacityMaskFilter_23_);}
	.st95{mask:url(#mask-24_13_);fill:#1C786F;}
	.st96{filter:url(#Adobe_OpacityMaskFilter_24_);}
	.st97{mask:url(#mask-24_14_);fill:#F2C99E;}
	.st98{filter:url(#Adobe_OpacityMaskFilter_25_);}
	.st99{mask:url(#mask-24_15_);fill:#8B5E3C;}
	.st100{filter:url(#Adobe_OpacityMaskFilter_26_);}
	.st101{mask:url(#mask-24_16_);fill:#231F20;fill-opacity:0.1;}
	.st102{filter:url(#Adobe_OpacityMaskFilter_27_);}
	.st103{mask:url(#mask-24_17_);fill:#F2C99E;}
	.st104{filter:url(#Adobe_OpacityMaskFilter_28_);}
	.st105{mask:url(#mask-24_18_);fill:#FFFFFF;}
	.st106{filter:url(#Adobe_OpacityMaskFilter_29_);}
	.st107{mask:url(#mask-24_19_);fill:#3C3C3B;}
	.st108{filter:url(#Adobe_OpacityMaskFilter_30_);}
	.st109{mask:url(#mask-24_20_);fill:#BCBEC0;}
	.st110{filter:url(#Adobe_OpacityMaskFilter_31_);}
	.st111{mask:url(#mask-24_21_);fill:#F2C99E;}
	.st112{filter:url(#Adobe_OpacityMaskFilter_32_);}
	.st113{mask:url(#mask-24_22_);fill:#F2C99E;}
	.st114{fill:#073275;}
	.st115{filter:url(#Adobe_OpacityMaskFilter_33_);}
	.st116{mask:url(#mask-26_1_);fill:#323232;}
	.st117{filter:url(#Adobe_OpacityMaskFilter_34_);}
	.st118{mask:url(#mask-28_1_);fill:#FBD057;}
	.st119{fill:none;stroke:#E1E3E4;stroke-width:0.86;stroke-linecap:round;}
	.st120{fill:#FBD057;}
	.st121{fill:#323232;}
	.st122{fill:#FFA771;}
	.st123{fill:#337CA0;}
	.st124{fill:#513935;}
	.st125{fill:#EC9A69;}
	.st126{fill:#1B4154;}
	.st127{fill:#B1B4B6;}
	.st128{fill:#BBBEC0;}
	.st129{fill:#E1E3E4;}
	.st130{fill:#173747;}
	.st131{fill:#F8AB7B;}
</style>
<rect x="0" y="390.6" class="st0" width="1440" height="69.4"/>
<title>Group 49</title>
<desc>Created with Sketch.</desc>
<g id="Page-1-Copy">
	<g id="Desktop" transform="translate(0.000000, -425.000000)">
		<g id="Group-49" transform="translate(-26.000000, 425.000000)">
			<g id="Group-38" transform="translate(25.000000, 19.000000)">
				<g id="Group-66" transform="translate(1.000000, 4.000000)" class="st1">
					<path id="Fill-1" class="st0" d="M926.6,190.9c5.8,10.9,19.3,15,30.2,9.2c10.9-5.8,15-19.3,9.2-30.2
						c-5.8-10.9-19.3-15-30.2-9.2C925,166.4,920.8,180,926.6,190.9"/>
					<path id="Fill-3" class="st0" d="M1192.4,290.9c3.2,5.9,10.5,8.2,16.5,5c5.9-3.2,8.2-10.5,5-16.5c-3.2-5.9-10.5-8.2-16.5-5
						C1191.5,277.6,1189.3,285,1192.4,290.9"/>
					<path id="Fill-5" class="st0" d="M400.2,322.5c1.5,2.8,4.9,3.8,7.7,2.4c2.8-1.5,3.8-4.9,2.4-7.7s-4.9-3.8-7.7-2.4
						C399.8,316.2,398.7,319.7,400.2,322.5"/>
					<path id="Fill-7" class="st0" d="M828.1,305.3c1.5,2.8,4.9,3.8,7.7,2.4c2.8-1.5,3.8-4.9,2.4-7.7s-4.9-3.8-7.7-2.4
						C827.6,299,826.6,302.5,828.1,305.3"/>
					<path id="Fill-9" class="st0" d="M107.2,102.1c1.5,2.8,4.9,3.8,7.7,2.4c2.8-1.5,3.8-4.9,2.4-7.7c-1.5-2.8-4.9-3.8-7.7-2.4
						C106.8,95.9,105.7,99.3,107.2,102.1"/>
					<path id="Fill-16" class="st0" d="M816.6,176.6c1.5,2.8,4.9,3.8,7.7,2.4c2.8-1.5,3.8-4.9,2.4-7.7c-1.5-2.8-4.9-3.8-7.7-2.4
						C816.2,170.4,815.2,173.8,816.6,176.6"/>
					<path id="Fill-18" class="st0" d="M382.9,87.8c1.5,2.8,4.9,3.8,7.7,2.4c2.8-1.5,3.8-4.9,2.4-7.7c-1.5-2.8-4.9-3.8-7.7-2.4
						C382.5,81.5,381.4,85,382.9,87.8"/>
					<path id="Fill-20" class="st0" d="M818,32.2c1.5,2.8,4.9,3.8,7.7,2.4c2.8-1.5,3.8-4.9,2.4-7.7c-1.5-2.8-4.9-3.8-7.7-2.4
						C817.6,26,816.6,29.4,818,32.2"/>
					<path id="Fill-22" class="st0" d="M679.9,337.8c1.5,2.8,4.9,3.8,7.7,2.4c2.8-1.5,3.8-4.9,2.4-7.7c-1.5-2.8-4.9-3.8-7.7-2.4
						C679.5,331.6,678.4,335,679.9,337.8"/>
					<g id="Group-26" transform="translate(423.454384, 394.187143)">
						<g id="Clip-25">
						</g>
						<defs>
							<filter id="Adobe_OpacityMaskFilter" filterUnits="userSpaceOnUse" x="0.8" y="0.2" width="24.3" height="24.3">
								<feColorMatrix  type="matrix" values="1 0 0 0 0  0 1 0 0 0  0 0 1 0 0  0 0 0 1 0"/>
							</filter>
						</defs>
						<mask maskUnits="userSpaceOnUse" x="0.8" y="0.2" width="24.3" height="24.3" id="mask-2_1_">
							<g class="st2">
								<polygon id="path-1_1_" class="st0" points="0.8,0.2 25.1,0.2 25.1,24.5 0.8,24.5 								"/>
							</g>
						</mask>
						<path id="Fill-24" class="st3" d="M2.2,18.1c3.2,5.9,10.5,8.2,16.5,5c5.9-3.2,8.2-10.5,5-16.5c-3.2-5.9-10.5-8.2-16.5-5
							S-1,12.1,2.2,18.1"/>
					</g>
					<path id="Fill-27" class="st0" d="M778.4,223.9c3.2,5.9,10.5,8.2,16.5,5c5.9-3.2,8.2-10.5,5-16.5c-3.2-5.9-10.5-8.2-16.5-5
						C777.5,210.6,775.3,218,778.4,223.9"/>
					<path id="Fill-29" class="st0" d="M391.7,200.8c3.2,5.9,10.5,8.2,16.5,5c5.9-3.2,8.2-10.5,5-16.5c-3.2-5.9-10.5-8.2-16.5-5
						C390.8,187.5,388.6,194.8,391.7,200.8"/>
					<path id="Fill-31" class="st0" d="M172.9,141.1c3.2,5.9,10.5,8.2,16.5,5c5.9-3.2,8.2-10.5,5-16.5c-3.2-5.9-10.5-8.2-16.5-5
						C172,127.8,169.8,135.2,172.9,141.1"/>
					<path id="Fill-35" class="st0" d="M478.9,276.7c3.7,7,12.4,9.6,19.3,5.9c7-3.7,9.6-12.4,5.9-19.3c-3.7-7-12.4-9.6-19.3-5.9
						C477.8,261.1,475.2,269.7,478.9,276.7"/>
					<path id="Fill-37" class="st0" d="M589.9,154c2.1,4,7,5.5,11,3.4c4-2.1,5.5-7,3.4-11c-2.1-4-7-5.5-11-3.4
						C589.3,145.1,587.8,150,589.9,154"/>
					<path id="Fill-39" class="st0" d="M596.8,12.7c2.1,4,7,5.5,11,3.4s5.5-7,3.4-11c-2.1-4-7-5.5-11-3.4
						C596.2,3.8,594.7,8.7,596.8,12.7"/>
					<path id="Fill-41" class="st0" d="M411.5,261.2c2.1,4,7,5.5,11,3.4c4-2.1,5.5-7,3.4-11c-2.1-4-7-5.5-11-3.4
						C410.9,252.3,409.4,257.2,411.5,261.2"/>
					<path id="Fill-43" class="st0" d="M1245.7,311.3c1.5,2.8,4.9,3.8,7.7,2.4c2.8-1.5,3.8-4.9,2.4-7.7s-4.9-3.8-7.7-2.4
						C1245.3,305.1,1244.2,308.5,1245.7,311.3"/>
					<path id="Fill-45" class="st0" d="M1359.5,256.4c1.5,2.8,4.9,3.8,7.7,2.4c2.8-1.5,3.8-4.9,2.4-7.7s-4.9-3.8-7.7-2.4
						C1359.1,250.2,1358,253.6,1359.5,256.4"/>
					<path id="Fill-47" class="st0" d="M1034.9,63.6c1.5,2.8,4.9,3.8,7.7,2.4c2.8-1.5,3.8-4.9,2.4-7.7s-4.9-3.8-7.7-2.4
						C1034.5,57.4,1033.4,60.8,1034.9,63.6"/>
					<path id="Fill-49" class="st0" d="M1230.8,183.5c2.1,4,7,5.5,11,3.4s5.5-7,3.4-11c-2.1-4-7-5.5-11-3.4
						C1230.2,174.6,1228.7,179.5,1230.8,183.5"/>
					<g id="Group-53" transform="translate(1423.123748, 51.394474)">
						<g id="Clip-52">
						</g>
						<defs>
							<filter id="Adobe_OpacityMaskFilter_1_" filterUnits="userSpaceOnUse" x="7.2" y="0.3" width="16.3" height="16.3">
								<feColorMatrix  type="matrix" values="1 0 0 0 0  0 1 0 0 0  0 0 1 0 0  0 0 0 1 0"/>
							</filter>
						</defs>
						<mask maskUnits="userSpaceOnUse" x="7.2" y="0.3" width="16.3" height="16.3" id="mask-4_1_">
							<g class="st4">
								<polygon id="path-3_1_" class="st0" points="0.2,0.3 16.5,0.3 16.5,16.5 0.2,16.5 								"/>
							</g>
						</mask>
						<path id="Fill-51" class="st5" d="M8.2,12.2c2.1,4,7,5.5,11,3.4c4-2.1,5.5-7,3.4-11s-7-5.5-11-3.4C7.6,3.3,6,8.3,8.2,12.2"/>
					</g>
					<path id="Fill-54" class="st0" d="M706.5,220.5c2.1,4,7,5.5,11,3.4c4-2.1,5.5-7,3.4-11c-2.1-4-7-5.5-11-3.4
						C705.9,211.6,704.4,216.5,706.5,220.5"/>
					<path id="Fill-56" class="st0" d="M79.7,144c2.1,4,7,5.5,11,3.4c4-2.1,5.5-7,3.4-11c-2.1-4-7-5.5-11-3.4
						C79,135.1,77.5,140,79.7,144"/>
					<path id="Fill-58" class="st0" d="M1417.1,307.5c2.1,4,7,5.5,11,3.4c4-2.1,5.5-7,3.4-11c-2.1-4-7-5.5-11-3.4
						C1416.5,298.6,1415,303.5,1417.1,307.5"/>
					<path id="Fill-60" class="st0" d="M326,211c2.1,4,7,5.5,11,3.4c4-2.1,5.5-7,3.4-11c-2.1-4-7-5.5-11-3.4
						C325.3,202.1,323.8,207,326,211"/>
					<path id="Fill-62" class="st0" d="M1099.8,125.9c2.1,4,7,5.5,11,3.4c4-2.1,5.5-7,3.4-11c-2.1-4-7-5.5-11-3.4
						C1099.2,117,1097.7,121.9,1099.8,125.9"/>
					<path id="Fill-64" class="st0" d="M1,298.9c2.1,4,7,5.5,11,3.4c4-2.1,5.5-7,3.4-11c-2.1-4-7-5.5-11-3.4
						C0.3,290-1.2,294.9,1,298.9"/>
				</g>
				<g id="Group-128" transform="translate(0.151123, 0.111641)">
					<g id="Group-47" transform="translate(850.000000, 199.000000)">
						<polygon id="Fill-26" class="st6" points="40.7,47.5 0.9,28.6 14.1,0.9 53.8,19.7 						"/>
						<polygon id="Stroke-27" class="st7" points="40.7,47.5 0.9,28.6 14.1,0.9 53.8,19.7 						"/>
						<polygon id="Fill-28" class="st6" points="26,27.2 14.1,0.9 53.8,19.7 						"/>
						<polygon id="Stroke-29" class="st8" points="26,27.2 14.1,0.9 53.8,19.7 						"/>
						<path id="Stroke-30" class="st8" d="M31,25.9l9.8,21.6"/>
						<path id="Stroke-31" class="st8" d="M23.8,22.5L0.9,28.6"/>
						<path id="Fill-32" class="st9" d="M63.1,21.5c0,5.2-4.2,9.4-9.4,9.4c-5.2,0-9.4-4.2-9.4-9.4c0-5.2,4.2-9.4,9.4-9.4
							C58.9,12.1,63.1,16.4,63.1,21.5"/>
						<path id="Fill-34" class="st10" d="M54.2,26.2l-4.4-2.3l0.5-1l3.4-1.5c0.4-0.2,0.8-0.4,1.1-0.6c0.3-0.2,0.5-0.4,0.6-0.7
							c0.2-0.3,0.3-0.6,0.2-0.9c0-0.3-0.1-0.4-0.3-0.5c-0.2-0.1-0.5-0.1-0.7,0c-0.3,0.1-0.5,0.4-0.7,0.8l-1.5-0.8
							c0.2-0.5,0.6-0.8,0.9-1.1c0.4-0.3,0.8-0.4,1.3-0.5c0.5,0,0.9,0.1,1.3,0.3c0.7,0.4,1.1,0.8,1.3,1.4c0.2,0.6,0.1,1.2-0.3,1.9
							c-0.2,0.4-0.5,0.8-1,1.1c-0.4,0.3-1.1,0.7-1.9,1l-1.7,0.9l2.5,1.3L54.2,26.2z"/>
					</g>
					<g id="Group-21" transform="translate(0.656505, 0.837163)">
						<path id="Stroke-1" class="st7" d="M902,73.1h-71.9c-0.4-8.7-7.6-15.7-16.4-15.7c-4.7,0-8.8,1.9-11.8,5.1
							c-3.8-7-11.2-11.8-19.8-11.8c-1.1,0-2.1,0.1-3.1,0.2c-2.6-19-18.9-33.7-38.6-33.7c-2.9,0-5.7,0.3-8.4,0.9
							C726.1,7.3,714.6,0,701.4,0c-15.2,0-28.1,9.8-32.8,23.3c-3.4-1.4-7.1-2.2-11-2.2c-15.8,0-28.6,12.8-28.6,28.6
							c0,1.6,0.2,3.3,0.4,4.8c-0.6-0.1-1.3-0.1-1.9-0.1c-11.4,0-20.9,8-23.3,18.6H517"/>
						<path id="Stroke-3" class="st7" d="M589,90h101.2"/>
						<path id="Stroke-5" class="st7" d="M661,103h14.3"/>
						<path id="Stroke-7" class="st7" d="M752,103h104"/>
						<path id="Stroke-9" class="st7" d="M1441,113.6h-40.3c-3.3-2.9-7.5-4.6-12-4.6c0,0-0.3,0-0.4,0l-3.9,0.1l0.6-3.9
							c0.3-1.8,0.4-3.6,0.4-5.3c0-18.7-15.2-34-33.9-34c-13,0-25.1,7.6-30.7,19.5l-1.5,3.2l-3.1-1.7c-4-2.2-8.6-3.4-13.2-3.4
							c-13.5,0-25.1,10.1-27,23.5l-0.6,4.2l-3.9-1.6c-2.1-0.9-4.4-1.3-6.7-1.3c-4.8,0-9.4,2-12.7,5.4H1138"/>
						<path id="Stroke-11" class="st7" d="M1201,123h99.7"/>
						<path id="Stroke-13" class="st7" d="M1353,136h42.7"/>
						<path id="Stroke-15" class="st7" d="M1272,145h86.6"/>
						<path id="Stroke-17" class="st7" d="M241.7,112.6h-89.3c-2.6-4.8-7.6-8-13.4-8c2.1-3.4,3.4-7.4,3.4-11.7
							c0-12.1-9.8-21.9-21.9-21.9c-7.4,0-13.9,3.7-17.9,9.3c-0.7-0.4-1.4-0.9-2.1-1.3c-12.9-7-29.1-2.2-36.1,10.7
							c-2.6,4.8-3.6,10.1-3.1,15.2h-0.1c-5.6,0-10.5,3.1-13.1,7.7H0"/>
						<path id="Stroke-19" class="st7" d="M27,142h93.3"/>
					</g>
					<path id="Stroke-22" class="st7" d="M850.6,262.5h-43"/>
					<path id="Stroke-23" class="st7" d="M848.5,285.1h47.9"/>
					<path id="Stroke-24" class="st7" d="M877.3,304.7h-9.8"/>
					<path id="Stroke-25" class="st7" d="M872.4,172.1H844"/>
					<g id="Group-127" transform="translate(123.000000, 103.560469)">
						<path id="Stroke-36" class="st7" d="M353.9,78h24.2"/>
						<path id="Stroke-38" class="st7" d="M245.1,40.6h44.8"/>
						<path id="Stroke-40" class="st7" d="M380.5,67h30.3"/>
						<path id="Stroke-42" class="st7" d="M215.4,52.8h24.4"/>
						<g id="Group-41" transform="translate(319.000000, 0.000000)">
							<polygon id="Fill-44" class="st6" points="71.6,43 35.1,25.7 47.1,0.2 83.7,17.5 							"/>
							<polygon id="Stroke-46" class="st7" points="71.6,43 35.1,25.7 47.1,0.2 83.7,17.5 							"/>
							<polygon id="Fill-48" class="st6" points="58.1,24.4 47.1,0.2 83.7,17.5 							"/>
							<polygon id="Stroke-50" class="st8" points="58.1,24.4 47.1,0.2 83.7,17.5 							"/>
							<path id="Stroke-52" class="st8" d="M62.7,23.2l9,19.9"/>
							<path id="Stroke-54" class="st8" d="M56.1,20l-21,5.6"/>
							<polygon id="Fill-56_1_" class="st6" points="0.4,55.7 47.1,55.7 47.1,23.2 0.4,23.2 							"/>
							<polygon id="Stroke-58" class="st7" points="0.4,55.7 47.1,55.7 47.1,23.2 0.4,23.2 							"/>
							<polygon id="Fill-59" class="st9" points="23.7,43 0.4,23.2 47.1,23.2 							"/>
							<path id="Stroke-60" class="st11" d="M13.6,30.9h20.3"/>
							<path id="Stroke-61" class="st11" d="M18.9,35.9h9.7"/>
							<polygon id="Fill-62_1_" class="st6" points="23.7,3.3 0.4,23.2 47.1,23.2 							"/>
							<polygon id="Stroke-63" class="st8" points="23.7,3.3 0.4,23.2 47.1,23.2 							"/>
							<path id="Stroke-64" class="st8" d="M28,39.4l19.2,16.3"/>
							<path id="Stroke-65" class="st8" d="M19.5,39.4L0.4,55.7"/>
							<path id="Fill-66" class="st9" d="M92.2,19.2c0,4.8-3.9,8.6-8.6,8.6S75,24,75,19.2s3.9-8.6,8.6-8.6S92.2,14.4,92.2,19.2"/>
							<path id="Fill-67" class="st10" d="M84,23.5L80,21.4l0.5-0.9l3.1-1.4c0.4-0.2,0.7-0.4,1-0.6c0.2-0.2,0.4-0.4,0.5-0.6
								c0.2-0.3,0.2-0.6,0.2-0.8s-0.1-0.4-0.3-0.5c-0.2-0.1-0.4-0.1-0.7,0c-0.2,0.1-0.4,0.4-0.6,0.8l-1.3-0.7c0.2-0.4,0.5-0.8,0.9-1
								c0.4-0.3,0.7-0.4,1.2-0.4c0.4,0,0.8,0.1,1.2,0.3c0.6,0.3,1,0.7,1.2,1.3c0.2,0.5,0.1,1.1-0.2,1.7c-0.2,0.4-0.5,0.7-0.9,1
								c-0.4,0.3-1,0.6-1.8,0.9l-1.5,0.8l2.3,1.2L84,23.5z"/>
						</g>
						<path id="Stroke-68" class="st7" d="M1198,203.6h-34.5"/>
						<path id="Stroke-69" class="st7" d="M1277,205h-45"/>
						<path id="Stroke-70" class="st7" d="M1180.3,232.2h-30.9"/>
						<path id="Stroke-71" class="st7" d="M1318,128.1h-18.2"/>
						<g id="Group-44" transform="translate(1194.000000, 91.000000)">
							<polygon id="Stroke-73" class="st12" points="5.7,14.1 41.6,14.1 47.4,60.7 0.9,60.7 							"/>
							<path id="Stroke-74" class="st7" d="M32.4,21.4V8.9c0-4.8-3.9-8.8-8.7-8.8c-4.8,0-8.7,3.9-8.7,8.8v12.5"/>
							<path id="Fill-75" class="st9" d="M27.2,48.1c0,0.7,0.2,1.2,0.5,1.7c0.3,0.4,0.7,0.7,1.1,0.7c1,0,1.5-0.7,1.5-2.1v-1.6
								c0-0.7-0.1-1.3-0.4-1.7c-0.3-0.4-0.7-0.6-1.1-0.6c-1,0-1.6,0.9-1.6,2.7V48.1z M23.9,46.7c0-1.6,0.4-2.9,1.3-3.8
								c0.9-1,2-1.5,3.5-1.5c1.5,0,2.6,0.5,3.5,1.4c0.9,1,1.3,2.3,1.3,4v1.3c0,1.6-0.4,2.9-1.3,3.8c-0.9,1-2,1.5-3.5,1.5
								c-1.5,0-2.7-0.5-3.6-1.5c-0.9-1-1.3-2.3-1.3-3.9V46.7z M19.5,51.1l-2.4-1.3l10.6-20.1l2.4,1.3L19.5,51.1z M17,33.5
								c0,0.7,0.2,1.3,0.5,1.7c0.3,0.4,0.7,0.6,1.1,0.6c0.5,0,0.8-0.2,1.1-0.7c0.3-0.4,0.4-1,0.4-1.7v-1.3c0-0.7-0.1-1.2-0.4-1.7
								c-0.3-0.4-0.7-0.7-1.1-0.7c-0.5,0-0.8,0.2-1.1,0.7c-0.3,0.4-0.4,1-0.4,1.7V33.5z M13.8,32.2c0-1.6,0.4-2.8,1.3-3.8
								c0.9-1,2-1.5,3.5-1.5s2.6,0.5,3.5,1.5c0.9,1,1.3,2.3,1.3,3.9v1.3c0,1.6-0.4,2.9-1.3,3.8c-0.9,1-2,1.5-3.5,1.5
								c-1.4,0-2.6-0.5-3.5-1.5s-1.3-2.3-1.3-3.9V32.2z"/>
						</g>
						<path id="Stroke-78" class="st7" d="M1017.7,184H953"/>
						<path id="Stroke-79" class="st7" d="M1042.2,29H1027"/>
						<g id="Group-39" transform="translate(1008.000000, 55.000000)">
							<path id="Stroke-76" class="st7" d="M98.4,67.2H67"/>
							<path id="Stroke-77" class="st7" d="M84.2,85.6H30.9"/>
							<g id="Group-45">
								<polygon id="Stroke-81" class="st6" points="33.2,3.7 37.6,0.7 41,4.7 45.9,2.9 48.1,7.7 53.4,7.2 54.3,12.4 59.5,13.4 
									59,18.6 63.8,20.8 62,25.8 66,29.2 63,33.5 66,37.8 62,41.2 63.8,46.2 59,48.4 59.5,53.7 54.3,54.6 53.4,59.8 48.1,59.3 
									45.9,64.1 41,62.3 37.6,66.3 33.2,63.3 28.9,66.3 25.5,62.3 20.6,64.1 18.4,59.3 13.1,59.8 12.2,54.6 7,53.7 7.5,48.4 
									2.7,46.2 4.5,41.2 0.5,37.8 3.5,33.5 0.5,29.2 4.5,25.8 2.7,20.8 7.5,18.6 7,13.4 12.2,12.4 13.1,7.2 18.4,7.7 20.6,2.9 
									25.5,4.7 28.9,0.7 								"/>
								<polygon id="Stroke-81_1_" class="st7" points="33.2,3.7 37.6,0.7 41,4.7 45.9,2.9 48.1,7.7 53.4,7.2 54.3,12.4 59.5,13.4 
									59,18.6 63.8,20.8 62,25.8 66,29.2 63,33.5 66,37.8 62,41.2 63.8,46.2 59,48.4 59.5,53.7 54.3,54.6 53.4,59.8 48.1,59.3 
									45.9,64.1 41,62.3 37.6,66.3 33.2,63.3 28.9,66.3 25.5,62.3 20.6,64.1 18.4,59.3 13.1,59.8 12.2,54.6 7,53.7 7.5,48.4 
									2.7,46.2 4.5,41.2 0.5,37.8 3.5,33.5 0.5,29.2 4.5,25.8 2.7,20.8 7.5,18.6 7,13.4 12.2,12.4 13.1,7.2 18.4,7.7 20.6,2.9 
									25.5,4.7 28.9,0.7 								"/>
								<path id="Fill-82" class="st9" d="M15.3,34.5l0.6,1.2c0.3-1.3,1-2.2,2.2-2.7c2.1-0.9,3.8,0,5.2,3l3.6,8l-3.2,1.4l-3.5-7.8
									c-0.3-0.7-0.6-1.1-1-1.4c-0.3-0.2-0.8-0.2-1.3,0c-0.6,0.3-0.9,0.8-1,1.5l4,8.9L17.8,48l-5.5-12.2L15.3,34.5z"/>
								<path id="Fill-83" class="st9" d="M28.9,34.3l3.2-1.4l-0.1-0.3c-0.3-0.7-0.7-1.2-1.1-1.5c-0.4-0.3-0.9-0.3-1.4,0
									c-0.6,0.3-0.9,0.6-0.9,1.1C28.4,32.7,28.5,33.4,28.9,34.3 M34.3,40.9c-1.6,0.7-3.1,0.8-4.5,0.3c-1.4-0.6-2.4-1.8-3.3-3.6
									l-0.4-1c-0.9-1.9-1.1-3.6-0.7-5c0.4-1.4,1.3-2.5,2.9-3.2c1.5-0.7,2.9-0.7,4.1-0.1c1.2,0.6,2.3,1.9,3.1,3.8l0.7,1.6l-6.4,2.9
									c0.5,0.9,1,1.5,1.5,1.7c0.5,0.3,1.2,0.2,1.9-0.1c1.1-0.5,1.8-1.3,2.2-2.3l2.1,1.4c-0.1,0.7-0.5,1.4-1.1,2.1
									C35.9,40,35.1,40.5,34.3,40.9"/>
								<polygon id="Fill-84" class="st9" points="46.8,28.6 44.8,21.2 47.8,19.8 50.8,33.2 48.1,34.4 43.2,28.1 44.7,35.9 42,37.1 
									34,26 37.1,24.7 41.3,31 39.8,23.5 42.1,22.4 								"/>
							</g>
						</g>
						<g id="Group-40" transform="translate(0.000000, 111.000000)">
							<path id="Fill-85" class="st6" d="M127.6,66.3v-0.1c0-4.4-3.3-8.3-7.7-8.5c-4.8-0.3-8.8,3.5-8.8,8.3l-27.5-0.4v0.8H127.6z"/>
							<path id="Stroke-86" class="st7" d="M127.6,66.3v-0.1c0-4.4-3.3-8.3-7.7-8.5c-4.8-0.3-8.8,3.5-8.8,8.3l-27.5-0.4v0.8H127.6z"
								/>
							<path id="Fill-87" class="st6" d="M111.1,65.9c0-4.6,3.7-8.3,8.3-8.3H65.7v22.1h37.1c4.6,0,8.3-3.7,8.3-8.3v-2.3V67V65.9z"/>
							<path id="Stroke-88" class="st7" d="M111.1,65.9c0-4.6,3.7-8.3,8.3-8.3H65.7v22.1h37.1c4.6,0,8.3-3.7,8.3-8.3v-2.3V67V65.9z"
								/>
							<path id="Fill-89" class="st6" d="M94.4,71.4c0,4.6,3.8,8.4,8.4,8.4h0H57.4c-4.6,0-8.4-3.8-8.4-8.4V26.8h45.4V71.4z"/>
							<path id="Stroke-90" class="st7" d="M94.4,71.4c0,4.6,3.8,8.4,8.4,8.4h0H57.4c-4.6,0-8.4-3.8-8.4-8.4V26.8h45.4V71.4z"/>
							<polygon id="Fill-91" class="st6" points="49,45 94.4,45 94.4,26.8 49,26.8 							"/>
							<polygon id="Stroke-92" class="st7" points="49,45 94.4,45 94.4,26.8 49,26.8 							"/>
							<g id="Group-95" transform="translate(53.553079, 52.042662)">
								<path id="Fill-93" class="st10" d="M0.2,0h16.4"/>
								<path id="Stroke-94" class="st7" d="M0.2,0h16.4"/>
							</g>
							<g id="Group-98" transform="translate(53.553079, 58.426133)">
								<path id="Fill-96" class="st10" d="M0.2,0.1h16.4"/>
								<path id="Stroke-97" class="st7" d="M0.2,0.1h16.4"/>
							</g>
							<g id="Group-101" transform="translate(53.553079, 64.809605)">
								<path id="Fill-99" class="st10" d="M0.2,0.6h16.4"/>
								<path id="Stroke-100" class="st7" d="M0.2,0.6h16.4"/>
							</g>
							<g id="Group-104" transform="translate(53.553079, 71.193076)">
								<path id="Fill-102" class="st10" d="M0.2,0.8h16.4"/>
								<path id="Stroke-103" class="st7" d="M0.2,0.8h16.4"/>
							</g>
							<g id="Group-107" transform="translate(76.504399, 59.702828)">
								<path id="Fill-105" class="st10" d="M0.4,0.6h12.8"/>
								<path id="Stroke-106" class="st7" d="M0.4,0.6h12.8"/>
							</g>
							<g id="Group-110" transform="translate(76.504399, 66.086299)">
								<path id="Fill-108" class="st10" d="M0.4,0.3h12.8"/>
								<path id="Stroke-109" class="st7" d="M0.4,0.3h12.8"/>
							</g>
							<g id="Group-113" transform="translate(76.504399, 71.193076)">
								<path id="Fill-111" class="st10" d="M0.4,0.8h12.8"/>
								<path id="Stroke-112" class="st7" d="M0.4,0.8h12.8"/>
							</g>
							<polygon id="Fill-114" class="st13" points="75.9,55.6 90.5,55.6 90.5,50.4 75.9,50.4 							"/>
							<polygon id="Stroke-115" class="st7" points="75.9,55.6 90.5,55.6 90.5,50.4 75.9,50.4 							"/>
							<path id="Stroke-116" class="st7" d="M82.9,99.1h22.3"/>
							<path id="Stroke-117" class="st7" d="M0.9,0.8h37"/>
						</g>
						<path id="Stroke-118" class="st7" d="M110.5,134.8h33.8"/>
						<path id="Stroke-119" class="st7" d="M145.8,159.4h63.4"/>
						<path id="Stroke-122" class="st7" d="M470,215H405"/>
						<path id="Stroke-123" class="st7" d="M453.3,139h-48"/>
						<g id="Group-42" transform="translate(415.000000, 157.000000)">
							<polygon id="Fill-120" class="st6" points="0,41.1 64.3,41.1 64.3,0.6 0,0.6 							"/>
							<polygon id="Stroke-121" class="st7" points="0,41.1 64.3,41.1 64.3,0.6 0,0.6 							"/>
							<polygon id="Fill-124" class="st9" points="42.3,21.1 24.9,29.6 24.9,12.2 							"/>
						</g>
						<path id="Stroke-125" class="st7" d="M539.5,255.3h-24.2"/>
						<path id="Stroke-126" class="st7" d="M449.1,119h-30"/>
					</g>
				</g>
			</g>
			<g id="Group-26_1_">
				<g id="Group-84" transform="translate(640.000000, 198.000000)">
					<path id="Fill-1_1_" class="st14" d="M67,168.4c1.9,0.9,16.2,10.7,37.6,10.7c21.3,0,39.4-10.6,41.6-11c2.1,3.1,3.9,7.4,3.9,7.4
						c0.1,0.2,0,0.3-0.1,0.5l-34.4,40.3c-7.8,1.6-17.7,0.3-17.7,0.3l-34.5-41c-0.1-0.1-0.1-0.4-0.1-0.5
						C63.3,175,66.8,168.3,67,168.4"/>
					<path id="Fill-3_1_" class="st15" d="M65,177.6c0.9-1.7,1.9-3.4,2-3.4c1.9,0.9,16.2,10.7,37.6,10.7c21.3,0,39.4-10.6,41.6-11
						c0.8,1.2,1.6,2.6,2.2,3.9l1.6-1.8c0.1-0.1,0.1-0.3,0.1-0.5c0,0-1.8-4.3-3.9-7.4c-2.1,0.4-20.2,11-41.6,11
						c-21.3,0-35.7-9.8-37.6-10.7c-0.2-0.1-3.7,6.6-3.7,6.6c-0.1,0.2-0.1,0.4,0.1,0.5L65,177.6z"/>
					<path id="Fill-5_1_" class="st14" d="M152.8,213.1c13.3-6.3,42.4-23.4,54.6-49c1.7-3.6-2.6-18.6-16.5-13.7
						c-8.6,3-53.5,18-60.7,27.5c-11.7,15.4-12.3,29.4-14.7,38.4C122.1,219.1,146.2,216.3,152.8,213.1"/>
					<path id="Fill-7_1_" class="st14" d="M58.9,213.2c-13.3-6.3-51.8-33.8-53.6-49.1c-0.5-3.9-4.3-15.9,12.2-15.4
						c8.6,3,56.9,20.4,65,29.2c10.2,11,13.5,30.1,14.7,38.4C90.6,219.1,65.5,216.4,58.9,213.2"/>
					<path id="Fill-9_1_" class="st16" d="M147.2,205.9c-12.7-0.6-26.5-2-31.7-3.2c-15.1-6.1-97.9-51.4-97.9-51.4
						c-13.4-3.5-17,8.1-13,15.1c10.6,18.4,20.5,28.9,57.9,33.8c11.1,1.5,32.2,7.7,43.7,11.9c0.8,2.6,3.5,5.5,9.7,6.1
						c3.3,0.3,22.2,7,31,6.3c14.7-1.3,14.6-7.7,14.7-10.6C161.7,211.1,158.1,206.4,147.2,205.9"/>
					<path id="Fill-11" class="st17" d="M147.2,205.9c-12.7-0.6-26.5-2-31.7-3.2c-0.4-0.1-0.8-0.3-1.2-0.5l-10.2,9.2
						c0.7,0.3,1.5,0.5,2.1,0.8c0.8,2.6,3.5,5.5,9.7,6.1c3.3,0.3,22.2,7,31,6.3c14.7-1.3,14.6-7.7,14.7-10.6
						C161.7,211.1,158.1,206.4,147.2,205.9"/>
					<path id="Fill-13" class="st18" d="M147,224.6c14.7-1.3,14.6-7.7,14.7-10.6c0.1-2.5-2.8-6.5-10.9-7.7c-2.1,1.7-5.1,7-5.5,14.1
						c-16.6,0.6-31.2-5.1-38.9-8.1c0.8,2.6,3.5,5.4,9.7,6C119.3,218.6,138.2,225.3,147,224.6"/>
					<path id="Stroke-15_1_" class="st19" d="M123.7,203.1c-1.7,2.8-2.7,6-2.6,9.3l0,0.7"/>
					<path id="Stroke-17_1_" class="st19" d="M128.2,203.8c-1.7,2.8-2.7,6-2.6,9.3l0,0.7"/>
					<path id="Stroke-19_1_" class="st19" d="M132.7,204.4c-1.7,2.8-2.7,6-2.6,9.3l0,0.7"/>
					<path id="Stroke-21" class="st19" d="M136.6,204.8c-1.7,2.8-2.7,6-2.6,9.3l0,0.7"/>
					<path id="Fill-23" d="M115.5,202.8c-2.3-0.9-6.2-2.8-11.1-5.4c-3.5,1.9-7.6,4.2-8.6,4.6c-1.2,0.3-9.1,1.3-14.3,2.4
						c9,2.4,18.4,5.4,24.8,7.7c0.2,0.6,0.4,1.2,0.8,1.8c6.7-3.6,23.2-6,29.8-8.6C127.8,204.6,119.4,203.6,115.5,202.8"/>
					<path id="Fill-25" class="st20" d="M17.5,148.7c0,0,45.4,26,75.1,41.6c0,5.7-0.7,11.6-1.1,12.9c-1,2.3-7.4,10.5-10.2,13.8
						c-10.7-6.9-15.7-10.1-22.2-12c-43.4-13.1-47.3-19.2-57.9-37.6C-2.9,160.4,4.1,145.2,17.5,148.7"/>
					<path id="Fill-27_1_" class="st21" d="M0.7,166.5c-0.1-0.2-0.1-0.3-0.2-0.5c0-0.1-0.1-0.2-0.1-0.3c0-0.2-0.1-0.3-0.1-0.5
						c0-0.1,0-0.2-0.1-0.3c0-0.2-0.1-0.3-0.1-0.5c0-0.1,0-0.2,0-0.4c0-0.2,0-0.3,0-0.5c0-0.1,0-0.2,0-0.4c0-0.2,0-0.3,0-0.5
						c0-0.1,0-0.2,0-0.4c0-0.2,0-0.4,0-0.5c0-0.1,0-0.2,0-0.4c0-0.2,0-0.4,0.1-0.6c0-0.1,0-0.2,0.1-0.3c0-0.2,0.1-0.4,0.1-0.6
						c0-0.1,0-0.2,0.1-0.3c0-0.2,0.1-0.4,0.2-0.6c0-0.1,0.1-0.2,0.1-0.3c0.1-0.2,0.1-0.4,0.2-0.6c0-0.1,0.1-0.2,0.1-0.3
						c0.1-0.2,0.2-0.4,0.3-0.6c0-0.1,0.1-0.2,0.1-0.3c0.1-0.2,0.2-0.4,0.3-0.7c0-0.1,0.1-0.2,0.1-0.2c0.1-0.2,0.2-0.5,0.4-0.7
						c0-0.1,0.1-0.1,0.1-0.2c0.1-0.2,0.3-0.5,0.5-0.7c0,0,0-0.1,0.1-0.1c0.2-0.3,0.4-0.5,0.6-0.8c0.3,0.5,0.6,1,0.8,1.5
						c12.1,22.5,74.2,44,87.3,48.4c0,0,0,0,0,0c-1,2.3-7.4,10.5-10.2,13.8c-10.7-6.9-15.7-10.1-22.2-12
						c-43.4-13.1-47.3-19.2-57.9-37.6c-0.1-0.2-0.2-0.5-0.4-0.7C0.8,166.6,0.7,166.6,0.7,166.5"/>
					<path id="Fill-29_1_" class="st22" d="M91.5,203.2c0-0.2,0.1-0.4,0.1-0.7c-6.7,1.6-17,3.8-25.9,3.9c-0.8,0-1.5,0-2.2,0.1
						c4.8,2,9.6,5.1,17.8,10.4C84.1,213.7,90.4,205.6,91.5,203.2"/>
					<path id="Fill-31_1_" class="st16" d="M194.3,152.6c0,0-84.2,47.4-98.3,50.7c-5.7,1.3-21.3,3.1-32.5,3.3
						c-10.9,0.1-12.3,5.2-12.2,8.1c0.1,2.9,6.1,9.3,10.6,9.9c13.8,1.8,30.5-4.5,33.8-4.8c6.9-0.7,10.6-5.6,11-8.4
						c10.6-4.3,33.8-9.4,43.5-10.5c37.8-4.5,47.4-17.1,57.9-35.5C212.1,158.3,207.7,149.1,194.3,152.6"/>
					<path id="Fill-33" class="st20" d="M194.4,149.4c0,0-45.4,26-75.1,41.6c0,5.7,0.7,11.6,1.1,12.9c1,2.3,7.4,10.5,10.2,13.8
						c10.7-6.9,15.7-10.1,22.2-12c43.4-13.1,47.3-19.2,57.9-37.6C214.9,161.1,207.8,145.9,194.4,149.4"/>
					<path id="Fill-35_1_" class="st21" d="M211.3,167.2c0.1-0.2,0.1-0.3,0.2-0.5c0-0.1,0.1-0.2,0.1-0.3c0-0.2,0.1-0.3,0.1-0.5
						c0-0.1,0-0.2,0.1-0.3c0-0.2,0.1-0.3,0.1-0.5c0-0.1,0-0.2,0-0.4c0-0.2,0-0.3,0-0.5c0-0.1,0-0.2,0-0.4c0-0.2,0-0.3,0-0.5
						c0-0.1,0-0.2,0-0.4c0-0.2,0-0.4,0-0.5c0-0.1,0-0.2,0-0.4c0-0.2,0-0.4-0.1-0.6c0-0.1,0-0.2-0.1-0.3c0-0.2-0.1-0.4-0.1-0.6
						c0-0.1,0-0.2-0.1-0.3c0-0.2-0.1-0.4-0.2-0.6c0-0.1-0.1-0.2-0.1-0.3c-0.1-0.2-0.1-0.4-0.2-0.6c0-0.1-0.1-0.2-0.1-0.3
						c-0.1-0.2-0.2-0.4-0.3-0.6c0-0.1-0.1-0.2-0.1-0.3c-0.1-0.2-0.2-0.4-0.3-0.7c0-0.1-0.1-0.2-0.1-0.2c-0.1-0.2-0.2-0.5-0.4-0.7
						c0-0.1-0.1-0.1-0.1-0.2c-0.1-0.2-0.3-0.5-0.5-0.7c0,0,0-0.1-0.1-0.1c-0.2-0.3-0.4-0.5-0.6-0.8h0c-0.3,0.5-0.6,1-0.8,1.5
						c-12.1,22.5-74.2,44-87.3,48.4c0,0,0,0,0,0c1,2.3,7.4,10.5,10.2,13.8c10.7-6.9,15.7-10.1,22.2-12
						c43.4-13.1,47.3-19.2,57.9-37.6c0.1-0.2,0.2-0.5,0.4-0.7C211.2,167.3,211.2,167.3,211.3,167.2"/>
					<path id="Fill-37_1_" class="st22" d="M104.6,179.1c-2.5,0-4.9-0.1-7.2-0.4v5.7c0,0.8,0.7,1.4,1.5,1.4h11.4
						c0.8,0,1.5-0.6,1.5-1.4v-5.7C109.4,179,107,179.1,104.6,179.1"/>
					<path id="Fill-39_1_" class="st23" d="M110.2,178.8v4.1c0,0.5-0.4,0.9-0.9,0.9h-9.6c-0.5,0-0.9-0.4-0.9-0.9v-4.1h-1.5v5.7
						c0,0.8,0.7,1.4,1.5,1.4h11.4c0.8,0,1.5-0.6,1.5-1.4v-5.7L110.2,178.8z"/>
					<path id="Fill-41_1_" class="st24" d="M92.2,61.8c-4.4-2-11.8-10.5-14.1-28.4C76.4,20.2,74.7,5.3,91,2.5
						c10.2-3.4,34.9-6.1,39.5,10.9c2.2,20-4.5,49.2-14.5,48.2c-0.4,6.3-11.2,4.7-13.9,5.4C95,68.9,92.2,61.8,92.2,61.8"/>
					<path id="Fill-43_1_" class="st25" d="M53.1,166.1l13.2,12.2l75.6,0.2l13.5-12.4c1.8-1.6,2.7-3.9,2.7-6.2H50.4
						C50.4,162.2,51.4,164.5,53.1,166.1"/>
					<polygon id="Fill-45_1_" class="st26" points="50.4,159.8 70.4,176.1 140.5,176.1 158.3,159.8 					"/>
					<path id="Fill-47_1_" class="st27" d="M179.3,132.5c-1.4-8.8-10.8-49.5-24.4-59.6C135.7,58.5,96.8,53.8,56,71.7
						c-14.1,6.9-20.7,52.6-22.6,62.5C30,152.8,59,159,63.2,159.8c8.5,1.6,11.1-2.6,12.3-5.8c2.1-5.5-15.6-14.9-16.7-21
						c4.7-22.6,1.3-21.7,0.1-31.2c1.4,6.5-0.8,9.2,5.7,22.1c1.3,2.5,3.8,36,2.4,44.4c-0.5,3.3,79.9,3.1,79.1-0.3
						c-2-8.1-0.4-43.5,0.5-45.7c3.8-9.2,4.1-18.7,4.6-21.4c-0.9,5.4-3.9,6.2,0,29c-4.6,4.3-16.2,20.2-14.3,25.7
						c1.1,3.2,4.9,8.1,9.8,4C150.5,156.8,182.3,151.3,179.3,132.5"/>
					<path id="Fill-49_1_" class="st28" d="M120.3,74.3c1.4-1.3,2-3.2,1.8-5c-0.6-4-1.5-11.6-0.8-16.3c1-6.4-32.8-2.7-32.8-2.7
						s-0.2,12.4-1.1,18.5c-0.2,1.6,0.1,3.2,1.1,4.5c2.7,3.4,8.4,6.6,15.7,7.1C111.8,80.9,117.4,76.9,120.3,74.3"/>
					<path id="Fill-51_1_" class="st16" d="M128.3,34.6c1,0,2.2,0.9,2.4,1.8c0.7,3.4-0.7,10.3-2.4,11.8c-1.4,1.2-3.8,1.7-3.8,1.7
						L128.3,34.6z"/>
					<path id="Fill-53" d="M127.7,42.5c-0.3,2.3-0.8,3-1.8,2.9c-1-0.1-1.6-2.1-1.3-4.3c0.3-2.3,1.3-4,2.3-3.9
						C127.9,37.3,128,40.2,127.7,42.5"/>
					<path id="Fill-55" class="st16" d="M80.8,34.6c-1,0-2.4,0.8-2.6,1.8c-0.8,3.1-0.1,8.9,2.2,11c1.4,1.3,3.2,1.8,3.2,1.8
						L80.8,34.6z"/>
					<path id="Fill-57" d="M80.9,42.3c0.3,2.3,0.8,3.2,1.8,3c1-0.1,1.6-2.1,1.3-4.3c-0.3-2.3-1.3-4-2.3-3.9
						C80.6,37.3,80.6,40,80.9,42.3"/>
					<path id="Fill-59_1_" class="st16" d="M122.6,28.8c2.5,1.2,1.4,13,1.4,15.9c0,1.1,1.2,0.6,1.9,0.6c0,5-0.6,11.5-1.5,14.6
						c-0.8,2.7-12.8,11.6-19.8,11.6s-20-10.5-20.7-13.3c-0.9-3.8-0.8-6.9-1.3-13c1,0.1,1.8,0.2,1.8-0.7c0-1.2-1.8-16.2,5.3-19.5
						C94.5,28.6,117.6,30.1,122.6,28.8"/>
					<path id="Fill-61" class="st29" d="M59,101.1c0,0.1,0,0.5-0.2,0.9c0,0,0,0,0-0.1c0,0,0,0,0,0c0.8,0.1-0.8,9.2,5.7,22.1
						c0.5,1,1.1,6.4,1.7,13.3c3.7-7.3,10-10.2,19.3-11.3C80.1,125.1,64.6,124,59,101.1"/>
					<path id="Fill-63" class="st29" d="M146.7,122.5c3.8-9.2,4.1-18.7,4.6-21.4c-4.6,21.4-19.7,24-30.7,25.3
						c4.1,0.7,20.1,4.4,24.7,25C145.2,138.6,146.1,123.9,146.7,122.5"/>
					<path id="Fill-65" class="st25" d="M70.4,179.7h67.8c3.6,0,6.5-2.9,6.5-6.4H64C64,176.8,66.8,179.7,70.4,179.7"/>
					<path id="Fill-67_1_" class="st25" d="M144.7,173.3H64l-12.2-44.4c-0.7-2.4,1.2-4.8,3.7-4.8h97.8c2.5,0,4.4,2.4,3.7,4.8
						L144.7,173.3z"/>
					<path id="Fill-69" class="st30" d="M111.5,153.4c0,2.2-3.4,3.9-7.5,3.9s-7.5-1.7-7.5-3.9s3.4-3.9,7.5-3.9
						S111.5,151.2,111.5,153.4"/>
					<g id="Group-73" transform="translate(49.949762, 202.059799)">
						<g id="Clip-72">
						</g>
						<defs>
							<filter id="Adobe_OpacityMaskFilter_2_" filterUnits="userSpaceOnUse" x="1.3" y="0.7" width="55.4" height="22.1">
								<feColorMatrix  type="matrix" values="1 0 0 0 0  0 1 0 0 0  0 0 1 0 0  0 0 0 1 0"/>
							</filter>
						</defs>
						<mask maskUnits="userSpaceOnUse" x="1.3" y="0.7" width="55.4" height="22.1" id="mask-6_1_">
							<g class="st31">
								<polygon id="path-5_1_" class="st0" points="1.3,0.7 56.7,0.7 56.7,22.8 1.3,22.8 								"/>
							</g>
						</mask>
						<path id="Fill-71" class="st32" d="M47.9,0.7c-0.7,0.3-1.4,0.5-1.9,0.6c-5.7,1.3-21.3,3.1-32.5,3.3C2.6,4.7,1.2,9.8,1.3,12.6
							c0.1,2.9,6.1,9.3,10.6,9.9c13.8,1.8,30.5-4.5,33.8-4.8c6.9-0.7,10.6-5.6,11-8.4c0,0-6.6,1.8-5.2-1.4C52.8,5,51,1.7,48,0.9
							C47.7,0.8,47.7,0.8,47.9,0.7"/>
					</g>
					<path id="Fill-74" class="st18" d="M66.2,221.6c2.2-6.3-0.1-12.1-1.6-15c-0.4,0-0.8,0-1.1,0c-10.9,0.1-12.3,5.2-12.2,8.1
						c0.1,2.9,6.1,9.3,10.6,9.9c13.8,1.8,30.5-4.5,33.8-4.8c3.3-0.3,5.9-1.6,7.7-3.2C94,219,66.1,225.9,66.2,221.6"/>
					<path id="Stroke-76_1_" class="st19" d="M88.8,204c1.7,2.8,2.7,6,2.6,9.3l0,0.7"/>
					<path id="Stroke-78_1_" class="st19" d="M84.3,204.7c1.7,2.8,2.7,6,2.6,9.3l0,0.7"/>
					<path id="Stroke-80" class="st19" d="M79.8,205.2c1.7,2.8,2.7,6,2.6,9.3l0,0.7"/>
					<path id="Stroke-82" class="st19" d="M76,205.7c1.7,2.8,2.7,6,2.6,9.3l0,0.7"/>
				</g>
				
					<g id="Group-60" transform="translate(1028.000000, 201.500000) scale(-1, 1) translate(-1028.000000, -201.500000) translate(931.000000, 0.000000)">
					<g id="Group-3" transform="translate(0.000000, 349.000000)">
						<g id="Clip-2">
						</g>
						<defs>
							<filter id="Adobe_OpacityMaskFilter_3_" filterUnits="userSpaceOnUse">
								<feColorMatrix  type="matrix" values="1 0 0 0 0  0 1 0 0 0  0 0 1 0 0  0 0 0 1 0"/>
							</filter>
						</defs>
						<mask maskUnits="userSpaceOnUse" id="mask-8_1_">
							<g class="st33">
								<polygon id="path-7_1_" class="st0" points="0,0.7 35.8,0.7 35.8,49.4 0,49.4 								"/>
							</g>
						</mask>
						<path id="Fill-1_2_" class="st34" d="M12.8,0.7C9,1.6,5.4,3.3,2.4,5.7L0.5,7.1C0,7.5-0.2,8.3,0.2,8.9
							c1.2,2.2,19.4,25.4,22.6,31.2c3.3,5.8,9.7,11.3,13,8.7c-9.7-24.4-11-32.8-11-32.8L12.8,0.7z"/>
					</g>
					<path id="Fill-4" class="st35" d="M25.2,389.7c-3-5.2-19.8-27.7-24-33.7l-0.6,0.5c-0.5,0.4-0.7,1.2-0.4,1.8
						c1.2,2.3,19.6,25.6,22.9,31.4c2.9,5.2,8.4,10.2,12,9.3C31.7,398,27.6,393.9,25.2,389.7"/>
					<path id="Fill-6" class="st36" d="M99,309.5L25.5,369c0,0-6.3,0.5-12.6-6.2C6.6,356,6,350.5,6,350.5l58.4-56L79.7,284L99,309.5
						z"/>
					<path id="Fill-8" class="st37" d="M89,286.7c0,0-80.3,53.2-76,75.3c-6.5-6.7-7-12.1-7-12.1l59.4-55.4L80.9,284L89,286.7z"/>
					<g id="Group-12" transform="translate(51.000000, 0.000000)">
						<g id="Clip-11">
						</g>
						<defs>
							<filter id="Adobe_OpacityMaskFilter_4_" filterUnits="userSpaceOnUse">
								<feColorMatrix  type="matrix" values="1 0 0 0 0  0 1 0 0 0  0 0 1 0 0  0 0 0 1 0"/>
							</filter>
						</defs>
						<mask maskUnits="userSpaceOnUse" id="mask-10_1_">
							<g class="st38">
								<polygon id="path-9_1_" class="st0" points="0.5,0.1 58.9,0.1 58.9,61.9 0.5,61.9 								"/>
							</g>
						</mask>
						<path id="Fill-10" class="st39" d="M31.7,2.4c2.3,0.8,6.6,0.2,8.6-1.2c3.9-2.7,13.7,0.2,17.3,8.1c1.1,2.4,1.4,5.2,1.1,8.1
							c-0.6,6.6-3.9,12.5-8.8,17C36.8,46.1,37.4,61.5,28.2,61.8C13.1,62.4-0.6,45.4,0.6,27.6C0.2,2.6,21.7-1.4,31.7,2.4"/>
					</g>
					<path id="Fill-13_1_" class="st40" d="M58.9,44l20.5,9.5l0.6,8.9c0.3,4.9,2,9.3,5.9,12.1c0,0,23.9,24,4.4,25.4
						C70.9,101.3,51,74.2,51,74.2C60,61,58.9,44,58.9,44"/>
					<path id="Fill-15" class="st41" d="M110,110.4l-3.5,52.7l1.7,29.3l1,8.2l-2,8.3l-5.3-10.9c0,0-7.1-62.5-6.9-64.1
						c0.1-1.6,0-26,0-26L110,110.4z"/>
					<path id="Fill-17" class="st36" d="M101.8,186l1.5,11.7l5.5,10.9l-3,8.9l6.8,45.1c1.4,9.1,1.8,18.3,1.3,27.5
						c-0.3,6.8-3.9,13-9.6,16.8l-3.5,2.3l-20.2-2.3l1.3-18.6L56,190.5L101.8,186z"/>
					<path id="Fill-19" class="st37" d="M79.4,214.7l8.5,66.5c0.5,3.7-1,7.3-3.8,9.7l-2.4,2L56,191L79.4,214.7z"/>
					<path id="Fill-21" class="st42" d="M52.3,383c-0.4,5.5,11.4,7.2,13.9,12.3c2,4.2,0.8,6-9.9,7.7c-11.4-2.2-10.5-5.5-10.2-6.5
						c2.2-7.4,8.2-8,8.2-8L52.3,383z"/>
					<g id="Group-25" transform="translate(45.000000, 398.000000)">
						<g id="Clip-24">
						</g>
						<defs>
							<filter id="Adobe_OpacityMaskFilter_5_" filterUnits="userSpaceOnUse">
								<feColorMatrix  type="matrix" values="1 0 0 0 0  0 1 0 0 0  0 0 1 0 0  0 0 0 1 0"/>
							</filter>
						</defs>
						<mask maskUnits="userSpaceOnUse" id="mask-12_1_">
							<g class="st43">
								<polygon id="path-11_1_" class="st0" points="0.9,0.3 22.7,0.3 22.7,5 0.9,5 								"/>
							</g>
						</mask>
						<path id="Fill-23_1_" class="st44" d="M11.5,5C8.4,4.9,2,3.3,0.9,0.3c3.4,2,7.6,2.6,12.9,1.1c5.5-1.5,6.2,0.2,8.9-0.5
							C22.4,3.2,14.6,5.1,11.5,5"/>
					</g>
					<path id="Fill-26_1_" class="st45" d="M92,188.3l-2.4,20.5c-0.5,4-2.7,7.6-6.1,9.7c-2,1.3-3.5,3.3-4,5.7l-10.7,71.9l-3.9,96.1
						l-9.4,0.7c-9.4,0.7-8.8-0.9-8.8-0.9L40,346.3c-1.1-11.4-2.9-24.1-1.1-35.5l2.1-12.7l-3.8-38.7c-0.9-8.4-2-18.2-1.4-26.6
						l0.8-9.8c0.1-1.8-0.1-3.6-0.6-5.4c-1.7-5.3-2.3-10.8-1.8-16.3l1.5-15.4L92,188.3z"/>
					<path id="Fill-28_1_" class="st36" d="M46.5,297.8c-5.1-41.4,1.1-78.9,1.1-78.9s24.3,0,25.4-21.9l-36.9-11l-0.4,0l-1.5,15.4
						c-0.5,5.5,0.1,11.1,1.8,16.3c0.6,1.7,0.8,3.5,0.6,5.4l-0.8,9.8c-0.7,8.4,0.5,18.2,1.4,26.6l3.8,38.7l-2.1,12.7
						c-1.9,11.3,0,24.1,1.1,35.5l6.8,45.7C46.9,392,36.7,332.4,46.5,297.8"/>
					<path id="Fill-30" class="st37" d="M50.1,196.7c-0.6,7-2.1,17.2-2.1,17.2s13.8,1.5,17.5-11.2C69.2,190.1,50.1,196.7,50.1,196.7
						"/>
					<path id="Fill-32_1_" class="st46" d="M29.8,81.5L50.7,74c0,0,15,19.7,33.8,17.1c5.3-0.8,5.9-12.2,1.3-16.8
						c0.6,0.4,3.7,0.6,10.8,4.3c5,2.6,8.7,7.1,10.5,12.5c1.9,6,3.6,13.8,2.6,19.8c-0.8-0.3-6.6,3.6-6.6,3.6c0.5,6.3-0.1,7.8-1.2,14
						c-1.6,8.8-3.8,21.2-3.6,25.6c0.9,18,3.5,41.5,3.1,44.1c-2.7,3-25.9,12-67.1,2.6c-0.8-40.2-12.4-71.4-12.4-71.4l-4.8-12.8
						c-2.7-7.2-2.9-15.3-0.1-22.5C19,88.7,22.8,83.5,29.8,81.5"/>
					<path id="Fill-34_1_" class="st40" d="M56.5,160.4L49.9,125c-5.2,5.3-21.7,5.7-26.9,3.7c0,0,13,34.1,19.1,46.5
						c1.2,2.4,4.9,2.7,7.6,2.7l46.7-1.2l1.6-11.5L56.5,160.4z"/>
					<g id="Group-38_1_" transform="translate(97.000000, 117.000000)">
						<g id="Clip-37">
						</g>
						<defs>
							<filter id="Adobe_OpacityMaskFilter_6_" filterUnits="userSpaceOnUse">
								<feColorMatrix  type="matrix" values="1 0 0 0 0  0 1 0 0 0  0 0 1 0 0  0 0 0 1 0"/>
							</filter>
						</defs>
						<mask maskUnits="userSpaceOnUse" id="mask-14_1_">
							<g class="st47">
								<polygon id="path-13_1_" class="st0" points="0,0.4 96.9,0.4 96.9,39.6 0,39.6 								"/>
							</g>
						</mask>
						<path id="Fill-36" class="st48" d="M85.5,39.6H11.4L0.2,4.2c-0.6-1.9,1.1-3.8,3.4-3.8h89.8c2.3,0,4,1.9,3.4,3.8L85.5,39.6z"/>
					</g>
					<g id="Group-41_1_" transform="translate(97.000000, 119.000000)">
						<g id="Clip-40">
						</g>
						<defs>
							<filter id="Adobe_OpacityMaskFilter_7_" filterUnits="userSpaceOnUse">
								<feColorMatrix  type="matrix" values="1 0 0 0 0  0 1 0 0 0  0 0 1 0 0  0 0 0 1 0"/>
							</filter>
						</defs>
						<mask maskUnits="userSpaceOnUse" id="mask-16_1_">
							<g class="st49">
								<polygon id="path-15_1_" class="st0" points="0,0.1 96.9,0.1 96.9,39.2 0,39.2 								"/>
							</g>
						</mask>
						<path id="Fill-39_2_" class="st50" d="M85.5,39.2H11.4L0.2,3.9C-0.4,2,1.2,0.1,3.6,0.1h89.8c2.3,0,4,1.9,3.4,3.8L85.5,39.2z"
							/>
					</g>
					<path id="Fill-42" class="st0" d="M150,142c0,1.7-2.7,3-6,3c-3.3,0-6-1.3-6-3c0-1.7,2.7-3,6-3C147.3,139,150,140.3,150,142"/>
					<path id="Fill-44_1_" class="st25" d="M104.6,161h79.7c2,0,3.6-1.3,3.6-3h-87C101,159.7,102.6,161,104.6,161"/>
					<path id="Fill-46" class="st51" d="M110.6,161h66.7c2,0,3.6-1.3,3.6-3h-74C107,159.7,108.6,161,110.6,161"/>
					<path id="Fill-48_1_" class="st40" d="M128.7,161.3h-17.8c-1.4,0-2.4-1.1-2.9-1.9c-0.3-0.5-0.5-1.1-0.4-1.7l-1.5-4.7l-5.1,1.8
						c-0.7,0.2-1.3,0.8-1.6,1.5l-5.6,13.4l-2.8,7.5l9.9,0.8c6.9,0.5,13.8-2.5,13.8-2.5c3-0.2,3.8-3.7,3.8-3.7
						c-0.1-0.6,1.7-1.9,2-2.4l0.8-1.2c0.5-0.7,0.5-1.7,0-2.4c0,0,5.9-0.6,6.4-1.4C129.8,162.5,128.7,161.3,128.7,161.3"/>
					<path id="Fill-50" class="st52" d="M71.9,72.1c2.4,1.6,12.1,5.4,15.1,3.2v0c0,0,0,0,0,0c-0.5-0.3-1-0.7-1.5-1.2
						c-3-2.9-4.4-6.8-4.7-11.1l-0.6-9l-18-6C62.2,48.1,59.8,64.2,71.9,72.1"/>
					<path id="Fill-52" class="st40" d="M66.1,37.8c2-11.2,7.1-7.4,10-11.3c6.7-9,13.8,1.8,24.9,6c0.1,0.9-3.3,16.9-4.2,19.3
						c-5.7,15.6-5,17.8-15.8,15.4C70.1,64.7,62.7,58.3,60.7,51C60.2,49.1,58,40.7,58,40.7C60,40.8,65.3,42,66.1,37.8"/>
					<path id="Fill-54_1_" class="st53" d="M65.7,37.5c0,0-2.2,9,2.8,15.1s11.4,3,15.5,1.4s11,0.4,11,0.4s-2.2,14.5-5.8,17
						c-3.6,2.5-14.9-3.2-20.4-7.1c-5.5-4-9.3-14.6-7-23.2C64,32.4,65.7,37.5,65.7,37.5"/>
					<path id="Fill-56_2_" class="st40" d="M95.9,59.4L89,58c-0.9-0.2-1.7,0.3-1.9,1c-0.2,0.7,0.3,1.5,1.2,1.6l6.9,1.3c0,0,0,0,0,0
						C95.5,61.1,95.8,60.2,95.9,59.4C96,59.4,96,59.4,95.9,59.4"/>
					<path id="Fill-58_1_" class="st40" d="M62.4,32c1.2,1.1,0.6,14.9-1,15c-4,0.2-5.8-6.4-6.3-10.8C54.4,30.5,60.2,30.1,62.4,32"/>
				</g>
				<g id="Group-60_1_" transform="translate(1252.000000, 271.000000)">
					<path id="Fill-1_3_" class="st54" d="M140.6,89c31-3,40.3,28.7,25.6,37.4c-14.7,8.7-49.1,17-49.1,17s-12.1,4.3-12.3-5.2
						c-0.2-7,0.4-10.5,17.6-23.6C132.2,107.2,131.4,91,140.6,89"/>
					<g id="Group-5" transform="translate(0.000000, 0.865443)">
						<g id="Clip-4">
						</g>
						<defs>
							<filter id="Adobe_OpacityMaskFilter_8_" filterUnits="userSpaceOnUse" x="0" y="1" width="70.2" height="122">
								<feColorMatrix  type="matrix" values="1 0 0 0 0  0 1 0 0 0  0 0 1 0 0  0 0 0 1 0"/>
							</filter>
						</defs>
						<mask maskUnits="userSpaceOnUse" x="0" y="1" width="70.2" height="122" id="mask-18_1_">
							<g class="st55">
								<polygon id="path-17_1_" class="st0" points="0,1 70.2,1 70.2,123 0,123 								"/>
							</g>
						</mask>
						<path id="Fill-3_2_" class="st56" d="M67.3,44.9c7.1-13.6,2.7-50.7-29.6-42.7C19.2,2-7,20.3,18.3,92.6
							c1.2,3.6,0.5,29.5-18.3,25.8c16.3,8.4,39.2,4.6,46.7-4.9C62.1,93.9,55.9,50.8,67.3,44.9"/>
					</g>
					<g id="Group-8" transform="translate(37.541226, 0.865443)">
						<g id="Clip-7">
						</g>
						<defs>
							<filter id="Adobe_OpacityMaskFilter_9_" filterUnits="userSpaceOnUse" x="0.1" y="1" width="32.6" height="56">
								<feColorMatrix  type="matrix" values="1 0 0 0 0  0 1 0 0 0  0 0 1 0 0  0 0 0 1 0"/>
							</filter>
						</defs>
						<mask maskUnits="userSpaceOnUse" x="0.1" y="1" width="32.6" height="56" id="mask-20_1_">
							<g class="st57">
								<polygon id="path-19_1_" class="st0" points="0.1,1 32.7,1 32.7,57 0.1,57 								"/>
							</g>
						</mask>
						<path id="Fill-6_1_" class="st58" d="M29.8,44.9c-3.2,1.6-5,6.1-6.3,12.1L3.3,18.2l-3.2-16C32.5-5.8,36.8,31.3,29.8,44.9"/>
					</g>
					<polygon id="Fill-9_2_" class="st59" points="43.7,70.7 21.1,114.5 29,121 57.7,85.5 					"/>
					<path id="Fill-11_1_" class="st60" d="M30.7,118.8C33,114.7,39,63.3,39,63.3l5.5-5.4L27.1,41.7l-2.7,9.9
						c-0.2,0.9-0.1,1.9,0.3,2.7l4,7.6c0,0-10.4,33.3-13.5,41.9c-2.8,7.8,1.4,20.3,3.8,22C21.4,127.5,28.3,122.9,30.7,118.8"/>
					<path id="Fill-13_2_" class="st59" d="M26.1,48.5l1-6.9l17.3,16.2L39,63.3c0,0-9.1-7.1-11.7-10.4
						C26.3,51.7,25.9,50.1,26.1,48.5"/>
					<path id="Fill-15_1_" class="st61" d="M47,66.5C54.5,58.9,62.2,56,62.2,56c1.1-1.6,18.6-9.7,20-10.7c0,0,24.9-14.3,33,13.3
						l-2.3,2.3c0,0,3.8,27.8,27.7,28c-4.8,12.5-24.4,41.6-33.7,36.7l-10.1-9.2l-19.9-7l-3.6-0.9c-7.3-1.9-13-7.7-14.5-15.1l-0.9-4.1
						C58.2,90.3,40,76.6,40,76.6S41.8,71.9,47,66.5"/>
					<path id="Fill-17_1_" class="st25" d="M85.1,138.6l7.3-12.4l-0.1,1.9c0,0.6-0.2,1.1-0.4,1.6l-4.7,11.5c-0.3,0.8-1.1,1.2-2,1.1
						l-50.1-6.1c-1.1-0.1-2-1.1-1.9-2.2l0.1-2.1L85.1,138.6z"/>
					<path id="Fill-19_1_" class="st62" d="M34.6,133.2l50.9,6.2c0.4,0,0.7-0.1,0.9-0.5l6-12.6c0.3-0.6-0.2-1.3-0.8-1.4l-46-5.6
						c-0.4,0-0.8,0.1-1,0.4l-10.8,11.2C32.9,131.7,33.4,133.1,34.6,133.2"/>
					<polygon id="Fill-21_1_" class="st0" points="36.9,131.1 46.9,120.7 89.2,125.9 84,136.9 					"/>
					<path id="Fill-23_2_" class="st62" d="M207.4,127.7c0,0,0.8-3,6.9-3.7c3.9-0.4,19.3,5.9,29,8.9c3.9,1.2,6.9,7,7.1,8.8
						c0.2,1.7-3.7,8.5-14.8,5c-11.1-3.4-28.4-12.3-28.4-12.3L207.4,127.7z"/>
					<path id="Fill-25_1_" class="st60" d="M212,125.2c4.9-0.4,3.4,0.7,19.8,6.1c7.7,2.5,7.6,14.1-0.4,12c-14-3.8-12.4-5.6-18.5-7.3
						C208.5,130,205.4,125.7,212,125.2"/>
					<g id="Group-29" transform="translate(104.164179, 123.384430)">
						<g id="Clip-28">
						</g>
						<defs>
							<filter id="Adobe_OpacityMaskFilter_10_" filterUnits="userSpaceOnUse" x="0.6" y="0.3" width="115.2" height="25.3">
								<feColorMatrix  type="matrix" values="1 0 0 0 0  0 1 0 0 0  0 0 1 0 0  0 0 0 1 0"/>
							</filter>
						</defs>
						<mask maskUnits="userSpaceOnUse" x="0.6" y="0.3" width="115.2" height="25.3" id="mask-22_1_">
							<g class="st63">
								<polygon id="path-21_1_" class="st0" points="0.6,0.3 115.8,0.3 115.8,25.6 0.6,25.6 								"/>
							</g>
						</mask>
						<path id="Fill-27_2_" class="st64" d="M112,14.2c0,0,3.8-0.8,3.8-6.1c0-5.3-3.8-7.2-3.8-7.2S52.2-1,25.1,2
							C-4.3,5.2,0.6,15.4,1.4,19.1c0.8,3.7,10.3,8,38.3,6C64.7,23.2,70.5,17.5,112,14.2"/>
					</g>
					<path id="Fill-30_1_" class="st65" d="M216.1,124.2c2.6,0.9,3.6,5.1,3.6,5.1c-0.8-1.4-2.8-2.9-3.8-2.8
						c-19.5,1.6-64.7,11.9-86.8,10.7c-11.7-0.7-18.1-2.7-21.5-5.2c3.1-2.8,9.4-5.4,21.7-6.7C156.4,122.4,213.5,123.4,216.1,124.2"/>
					<path id="Fill-32_2_" class="st62" d="M212.6,115.7c0,0,2-4.2,8.1-4.9c3.9-0.4,22.2,7,27.8,10.1c5.5,4.4,6.7,9.6,6.4,11.4
						c-0.3,1.7-3,5.8-14,2.4c-11.1-3.4-28.4-12.3-28.4-12.3L212.6,115.7z"/>
					<path id="Fill-34_2_" class="st60" d="M217.1,113.1c4.9-0.4,3.4,0.7,19.8,6.1c7.7,2.5,7.6,14.1-0.4,12
						c-14-3.8-12.4-6.4-21.1-5.8C209.5,121.9,210.6,113.7,217.1,113.1"/>
					<path id="Fill-36_1_" class="st66" d="M215.9,113.2c0,0,3,1.7,2.5,6.3c-0.5,3.6-2.3,5.9-2.3,5.9s-60,10.6-87.2,9
						c-29.6-1.6-25.2-12.1-24.6-15.8c0.6-3.8,9.7-12.5,37.7-11.8C167.1,107.2,174.2,112.7,215.9,113.2"/>
					<path id="Fill-38" class="st60" d="M112.9,61c0,0,15.4,18.6,21.3,43.1c1.2,5-11.7,5-15.7-0.6c-6.2-8.8-20.3-28.8-20.3-28.8
						L112.9,61z"/>
					<path id="Fill-40" class="st59" d="M113.9,93.4c4.1-0.3,8.2,0.3,11.9,2.1c2.5,1.2,4.8,2.9,5.6,5.3c0.8,2.5-2.1,4.8-5.8,6.6
						c-0.1,0-0.1,0-0.2,0.1c-2.7-0.6-5.4-1.9-6.9-4c-1.8-2.6-4.4-6.2-7-9.9L113.9,93.4z"/>
					<path id="Fill-42_1_" class="st60" d="M50.5,53.7l7-14.1c0,0,5.5,10,24.7,5.7c0,0-4.7,37.3-16.1,39.1
						C59.1,85.6,50.5,53.7,50.5,53.7"/>
					<path id="Fill-44_2_" class="st59" d="M52.3,59.8c-1.1-3.5-1.8-6-1.8-6l3.3-6.7l5.4-5.4c1.5,1.4,4.1,3.2,8.1,4.1
						C66.9,52,65,64.9,57.2,73.3c-1.1-2.5-2.1-5.1-2.9-7.5C54.3,63.5,53.7,61.3,52.3,59.8"/>
					<path id="Fill-46_1_" class="st60" d="M64.1,33.9c-0.2,3.6-2.6,8.3-4,8.2c-1.4-0.1-2.3-3.1-2.1-6.7c0.2-3.6,1.5-6.5,2.9-6.4
						C62.3,29,64.3,30.3,64.1,33.9"/>
					<path id="Fill-48_2_" class="st60" d="M51.1,66.6c14.2-8,14-20.8,9.1-31.1C49.4,40,56.5,20.8,40.9,19
						c-6.4,16.4-16.2,21.4-15,26.4c0.2,0.7,3.2,2.1,4,4.2C31,53.1,31.7,57,36,59.8C42.2,63.9,47.6,67.9,51.1,66.6"/>
					<path id="Fill-50_1_" class="st0" d="M62.7,36.5c0.4,1.9,0.4,3.3-0.3,3.2c-0.7-0.1-2.9-3-2.8-4.3c0.1-1.3,1.3-1.5,2-1.4
						C62.3,34.1,62.4,35.2,62.7,36.5"/>
					<path id="Stroke-52_1_" class="st67" d="M70.3,57.9c0.4,2.7,4.8,14.3,2.2,31.4c-2.6,17.1,13.2,16.1,18.1,19.7
						c5,3.7,6.3,12.4,0.3,11.6c-2.1-0.3-5.5-1-5.5-1"/>
					<path id="Fill-54_2_" class="st60" d="M134.2,104.1c0.8,2.5-2.1,4.8-5.8,6.6c-6.2,3.1-13.3,3.9-20.1,2.8L75.3,108l-0.6-8.1
						l42-3.2c4.1-0.3,8.2,0.3,11.9,2.1C131.1,100,133.4,101.7,134.2,104.1"/>
					<path id="Fill-56_3_" class="st59" d="M66.9,122.4c1.6-0.3,2.9-1.4,3.6-2.8c0.3-0.6,0.5-1.1,0.8-1.6c0.6-1.2-4.3-0.7-4.6,0
						C66.6,118.2,66.1,122.5,66.9,122.4C66.9,122.4,66.9,122.4,66.9,122.4"/>
					<path id="Fill-58_2_" class="st60" d="M55.7,116.9l6.5-8.4l12.5-8.6c0,0,5.1,3.9,1.6,9.7c-2.1,3.5-4.9,5.6-6.9,6.8l-1.1,4.6
						c-0.2,0.7-0.7,1.2-1.4,1.3l-5,1.1c-1.1-0.1-1.9-1-2-2.1L60,117c-0.7,0.6-2,2.1-2,2.1s-0.5,0.2-1.6,4.1s-3.6,2.8-3.6,2.8
						L55.7,116.9z"/>
				</g>
				<g id="Group-28" transform="translate(377.000000, 194.000000)">
					<path id="Fill-1_4_" class="st68" d="M19.4,18.8c1.7-5.6,5.2-15.7,15.5-15.3c12.5-8.2,28.6-0.9,34.5,8.2
						c18.3,28.2,5.3,74.6,0.9,78.4c-5.8,5.1-33.4-31-33.4-31C21.6,52.1,14.6,34.9,19.4,18.8"/>
					<path id="Fill-3_3_" class="st69" d="M63.9,27.3c5.4,14.6-0.3,41.1-3.1,55.6c-4.3,21.9-20.6-49.1-24.1-63.1
						C45.5,12.3,60.4,18,63.9,27.3z"/>
					<g id="Clip-6">
					</g>
					<defs>
						<filter id="Adobe_OpacityMaskFilter_11_" filterUnits="userSpaceOnUse" x="18.4" y="166.9" width="58.1" height="20.5">
							<feColorMatrix  type="matrix" values="1 0 0 0 0  0 1 0 0 0  0 0 1 0 0  0 0 0 1 0"/>
						</filter>
					</defs>
					<mask maskUnits="userSpaceOnUse" x="18.4" y="166.9" width="58.1" height="20.5" id="mask-24_1_">
						<g class="st70">
							<polygon id="path-23_1_" class="st0" points="0,265.7 91.6,265.7 91.6,0 0,0 							"/>
						</g>
					</mask>
					<polygon id="Fill-5_2_" class="st71" points="18.4,187.3 76.5,187.3 76.5,166.9 18.4,166.9 					"/>
					<defs>
						<filter id="Adobe_OpacityMaskFilter_12_" filterUnits="userSpaceOnUse" x="0" y="66.9" width="91.6" height="109.2">
							<feColorMatrix  type="matrix" values="1 0 0 0 0  0 1 0 0 0  0 0 1 0 0  0 0 0 1 0"/>
						</filter>
					</defs>
					<mask maskUnits="userSpaceOnUse" x="0" y="66.9" width="91.6" height="109.2" id="mask-24_2_">
						<g class="st72">
							<polygon id="path-23_2_" class="st0" points="0,265.7 91.6,265.7 91.6,0 0,0 							"/>
						</g>
					</mask>
					<path id="Fill-7_2_" class="st73" d="M54.1,67.9l7,1.8c8.2,1.9,14.3,4.5,18.7,7c6,3.4,10,9.4,10.8,16.2
						c1.8,16.5,1.4,40.4-4.3,54.4l-18.4,20.6l-14.2,8.4c0,0-33-25.6-44.1-34.5c-11.1-8.9-10.4-26.3-8.3-41.2
						c2.1-14.9,6.9-26.2,26.7-31.8c0.9-0.3,1.8-0.5,2.6-0.6l6.1-1.1L54.1,67.9z"/>
					<defs>
						<filter id="Adobe_OpacityMaskFilter_13_" filterUnits="userSpaceOnUse" x="19" y="85.9" width="7.3" height="44.2">
							<feColorMatrix  type="matrix" values="1 0 0 0 0  0 1 0 0 0  0 0 1 0 0  0 0 0 1 0"/>
						</filter>
					</defs>
					<mask maskUnits="userSpaceOnUse" x="19" y="85.9" width="7.3" height="44.2" id="mask-24_3_">
						<g class="st74">
							<polygon id="path-23_3_" class="st0" points="0,265.7 91.6,265.7 91.6,0 0,0 							"/>
						</g>
					</mask>
					<path id="Fill-8_1_" class="st75" d="M24.2,85.9c0,0,1.2,24.3-3.9,34.9c-5.1,10.6,5.1,9.3,5.1,9.3S28,94.6,24.2,85.9"/>
					<defs>
						<filter id="Adobe_OpacityMaskFilter_14_" filterUnits="userSpaceOnUse" x="68.2" y="86.6" width="8.5" height="47.8">
							<feColorMatrix  type="matrix" values="1 0 0 0 0  0 1 0 0 0  0 0 1 0 0  0 0 0 1 0"/>
						</filter>
					</defs>
					<mask maskUnits="userSpaceOnUse" x="68.2" y="86.6" width="8.5" height="47.8" id="mask-24_4_">
						<g class="st76">
							<polygon id="path-23_4_" class="st0" points="0,265.7 91.6,265.7 91.6,0 0,0 							"/>
						</g>
					</mask>
					<path id="Fill-9_3_" class="st77" d="M70.1,134.4c0,0-2.9-21.4-1.5-32.4c1.4-11,8.1-15.4,8.1-15.4s-3.5,8.9-4.6,16
						S70.1,134.4,70.1,134.4"/>
					<defs>
						<filter id="Adobe_OpacityMaskFilter_15_" filterUnits="userSpaceOnUse" x="9.6" y="138.5" width="77.8" height="67.2">
							<feColorMatrix  type="matrix" values="1 0 0 0 0  0 1 0 0 0  0 0 1 0 0  0 0 0 1 0"/>
						</filter>
					</defs>
					<mask maskUnits="userSpaceOnUse" x="9.6" y="138.5" width="77.8" height="67.2" id="mask-24_5_">
						<g class="st78">
							<polygon id="path-23_5_" class="st0" points="0,265.7 91.6,265.7 91.6,0 0,0 							"/>
						</g>
					</mask>
					<path id="Fill-10_1_" class="st79" d="M59.5,205.7H36.2c-12.6,0-23-9.7-23.9-22.2l-2.8-39.9l25.6,2.3l12.5,36.6l15.6-43.7
						l24-0.3l-4,45.5C82.2,196.3,71.9,205.7,59.5,205.7"/>
					<defs>
						<filter id="Adobe_OpacityMaskFilter_16_" filterUnits="userSpaceOnUse" x="25.2" y="232.3" width="20.1" height="33.5">
							<feColorMatrix  type="matrix" values="1 0 0 0 0  0 1 0 0 0  0 0 1 0 0  0 0 0 1 0"/>
						</filter>
					</defs>
					<mask maskUnits="userSpaceOnUse" x="25.2" y="232.3" width="20.1" height="33.5" id="mask-24_6_">
						<g class="st80">
							<polygon id="path-23_6_" class="st0" points="0,265.7 91.6,265.7 91.6,0 0,0 							"/>
						</g>
					</mask>
					<path id="Fill-11_2_" class="st81" d="M32,265.6c3.9,0.7,7.7-1.5,8.9-5.2l3.4-18.2c1.4-4.3,1.4-8.1-2.9-9.5
						c-4.3-1.4-6.6,1.7-8,6l-7.9,16.1C24,259.5,27,264.6,32,265.6"/>
					<defs>
						<filter id="Adobe_OpacityMaskFilter_17_" filterUnits="userSpaceOnUse" x="28" y="210.4" width="26.7" height="47.1">
							<feColorMatrix  type="matrix" values="1 0 0 0 0  0 1 0 0 0  0 0 1 0 0  0 0 0 1 0"/>
						</filter>
					</defs>
					<mask maskUnits="userSpaceOnUse" x="28" y="210.4" width="26.7" height="47.1" id="mask-24_7_">
						<g class="st82">
							<polygon id="path-23_7_" class="st0" points="0,265.7 91.6,265.7 91.6,0 0,0 							"/>
						</g>
					</mask>
					<polygon id="Fill-12" class="st83" points="28,252.8 36.9,233.7 42,210.4 54.7,214.6 44.6,237.7 40.6,257.5 					"/>
					<defs>
						<filter id="Adobe_OpacityMaskFilter_18_" filterUnits="userSpaceOnUse" x="28" y="210.4" width="26.7" height="47.1">
							<feColorMatrix  type="matrix" values="1 0 0 0 0  0 1 0 0 0  0 0 1 0 0  0 0 0 1 0"/>
						</filter>
					</defs>
					<mask maskUnits="userSpaceOnUse" x="28" y="210.4" width="26.7" height="47.1" id="mask-24_8_">
						<g class="st84">
							<polygon id="path-23_8_" class="st0" points="0,265.7 91.6,265.7 91.6,0 0,0 							"/>
						</g>
					</mask>
					<polygon id="Fill-13_3_" class="st85" points="28,252.8 36.9,233.7 42,210.4 54.7,214.6 44.6,237.7 40.6,257.5 					"/>
					<defs>
						<filter id="Adobe_OpacityMaskFilter_19_" filterUnits="userSpaceOnUse" x="42" y="125.8" width="45.4" height="88.8">
							<feColorMatrix  type="matrix" values="1 0 0 0 0  0 1 0 0 0  0 0 1 0 0  0 0 0 1 0"/>
						</filter>
					</defs>
					<mask maskUnits="userSpaceOnUse" x="42" y="125.8" width="45.4" height="88.8" id="mask-24_9_">
						<g class="st86">
							<polygon id="path-23_9_" class="st0" points="0,265.7 91.6,265.7 91.6,0 0,0 							"/>
						</g>
					</mask>
					<path id="Fill-14" class="st87" d="M54.7,214.6l31.9-71c2.3-7.1-1.6-14.8-8.7-17.2c-7.7-2.5-15.9,2.2-17.6,10.1L42,210.4
						L54.7,214.6z"/>
					<defs>
						<filter id="Adobe_OpacityMaskFilter_20_" filterUnits="userSpaceOnUse" x="43.1" y="173.4" width="15.9" height="41.2">
							<feColorMatrix  type="matrix" values="1 0 0 0 0  0 1 0 0 0  0 0 1 0 0  0 0 0 1 0"/>
						</filter>
					</defs>
					<mask maskUnits="userSpaceOnUse" x="43.1" y="173.4" width="15.9" height="41.2" id="mask-24_10_">
						<g class="st88">
							<polygon id="path-23_10_" class="st0" points="0,265.7 91.6,265.7 91.6,0 0,0 							"/>
						</g>
					</mask>
					<polygon id="Fill-15_2_" class="st89" points="45.7,211.7 54.7,214.6 59,205.1 51.2,173.4 43.1,205.8 					"/>
					<defs>
						<filter id="Adobe_OpacityMaskFilter_21_" filterUnits="userSpaceOnUse" x="51" y="232.3" width="20.1" height="33.5">
							<feColorMatrix  type="matrix" values="1 0 0 0 0  0 1 0 0 0  0 0 1 0 0  0 0 0 1 0"/>
						</filter>
					</defs>
					<mask maskUnits="userSpaceOnUse" x="51" y="232.3" width="20.1" height="33.5" id="mask-24_11_">
						<g class="st90">
							<polygon id="path-23_11_" class="st0" points="0,265.7 91.6,265.7 91.6,0 0,0 							"/>
						</g>
					</mask>
					<path id="Fill-16_1_" class="st91" d="M64.2,265.6c-3.9,0.7-7.7-1.5-8.9-5.2l-3.4-18.2c-1.4-4.3-1.4-8.1,2.9-9.5
						c4.3-1.4,6.6,1.7,8,6l7.9,16.1C72.3,259.5,69.2,264.6,64.2,265.6"/>
					<defs>
						<filter id="Adobe_OpacityMaskFilter_22_" filterUnits="userSpaceOnUse" x="41.5" y="210.4" width="26.7" height="47.1">
							<feColorMatrix  type="matrix" values="1 0 0 0 0  0 1 0 0 0  0 0 1 0 0  0 0 0 1 0"/>
						</filter>
					</defs>
					<mask maskUnits="userSpaceOnUse" x="41.5" y="210.4" width="26.7" height="47.1" id="mask-24_12_">
						<g class="st92">
							<polygon id="path-23_12_" class="st0" points="0,265.7 91.6,265.7 91.6,0 0,0 							"/>
						</g>
					</mask>
					<polygon id="Fill-17_2_" class="st93" points="68.2,252.8 59.4,233.7 54.3,210.4 41.5,214.6 51.7,237.7 55.6,257.5 					"/>
					<defs>
						<filter id="Adobe_OpacityMaskFilter_23_" filterUnits="userSpaceOnUse" x="8.9" y="125.8" width="45.4" height="88.8">
							<feColorMatrix  type="matrix" values="1 0 0 0 0  0 1 0 0 0  0 0 1 0 0  0 0 0 1 0"/>
						</filter>
					</defs>
					<mask maskUnits="userSpaceOnUse" x="8.9" y="125.8" width="45.4" height="88.8" id="mask-24_13_">
						<g class="st94">
							<polygon id="path-23_13_" class="st0" points="0,265.7 91.6,265.7 91.6,0 0,0 							"/>
						</g>
					</mask>
					<path id="Fill-18_1_" class="st95" d="M41.5,214.6l-31.9-71c-2.3-7.1,1.6-14.8,8.7-17.2c7.7-2.5,15.9,2.2,17.6,10.1l18.4,73.9
						L41.5,214.6z"/>
					<defs>
						<filter id="Adobe_OpacityMaskFilter_24_" filterUnits="userSpaceOnUse" x="28.8" y="51.5" width="32.3" height="28.8">
							<feColorMatrix  type="matrix" values="1 0 0 0 0  0 1 0 0 0  0 0 1 0 0  0 0 0 1 0"/>
						</filter>
					</defs>
					<mask maskUnits="userSpaceOnUse" x="28.8" y="51.5" width="32.3" height="28.8" id="mask-24_14_">
						<g class="st96">
							<polygon id="path-23_14_" class="st0" points="0,265.7 91.6,265.7 91.6,0 0,0 							"/>
						</g>
					</mask>
					<path id="Fill-19_2_" class="st97" d="M59.5,71.2c2.7,2.5,1.8,7-1.8,8c-2.6,0.7-6.5,1.2-11.9,1.2c-7.2,0-11.6-1-14.4-2.4
						c-3-1.5-3.5-5.8-0.8-7.8c2.1-1.5,3.5-3.9,3.9-6.5l1.7-11.5L54,51.5l2.6,14.2C56.9,67.8,58,69.7,59.5,71.2"/>
					<defs>
						<filter id="Adobe_OpacityMaskFilter_25_" filterUnits="userSpaceOnUse" x="34.8" y="51.5" width="22.2" height="20">
							<feColorMatrix  type="matrix" values="1 0 0 0 0  0 1 0 0 0  0 0 1 0 0  0 0 0 1 0"/>
						</filter>
					</defs>
					<mask maskUnits="userSpaceOnUse" x="34.8" y="51.5" width="22.2" height="20" id="mask-24_15_">
						<g class="st98">
							<polygon id="path-23_15_" class="st0" points="0,265.7 91.6,265.7 91.6,0 0,0 							"/>
						</g>
					</mask>
					<path id="Fill-20_1_" class="st99" d="M48.9,71.4c3-0.8,5.7-2.2,8.1-4c-0.2-0.5-0.4-1.1-0.5-1.7L54,51.5l-17.8,0.6l-1.4,9.5
						c2.4,3.6,5.6,6.8,9,8.6c0.5,0.3,1.2,0.6,1.9,0.9C46.7,71.6,47.8,71.7,48.9,71.4"/>
					<defs>
						<filter id="Adobe_OpacityMaskFilter_26_" filterUnits="userSpaceOnUse" x="17.9" y="3.5" width="19.1" height="55.7">
							<feColorMatrix  type="matrix" values="1 0 0 0 0  0 1 0 0 0  0 0 1 0 0  0 0 0 1 0"/>
						</filter>
					</defs>
					<mask maskUnits="userSpaceOnUse" x="17.9" y="3.5" width="19.1" height="55.7" id="mask-24_16_">
						<g class="st100">
							<polygon id="path-23_16_" class="st0" points="0,265.7 91.6,265.7 91.6,0 0,0 							"/>
						</g>
					</mask>
					<path id="Fill-21_2_" class="st101" d="M19.4,18.8c1.7-5.6,5.2-15.7,15.5-15.3c2.9,10.2,2,55.6,2,55.6
						C21.6,52.1,14.6,34.9,19.4,18.8"/>
					<defs>
						<filter id="Adobe_OpacityMaskFilter_27_" filterUnits="userSpaceOnUse" x="27.1" y="19.7" width="35.4" height="47.1">
							<feColorMatrix  type="matrix" values="1 0 0 0 0  0 1 0 0 0  0 0 1 0 0  0 0 0 1 0"/>
						</filter>
					</defs>
					<mask maskUnits="userSpaceOnUse" x="27.1" y="19.7" width="35.4" height="47.1" id="mask-24_17_">
						<g class="st102">
							<polygon id="path-23_17_" class="st0" points="0,265.7 91.6,265.7 91.6,0 0,0 							"/>
						</g>
					</mask>
					<path id="Fill-22_1_" class="st103" d="M45.5,66.7c-1.1,0.3-2.2,0.2-3.2-0.2c-0.7-0.3-1.4-0.6-1.9-0.9
						c-5.5-2.9-10.4-9.5-12.6-15.9c-0.7-1.9-0.8-4-0.5-6l0.8-5.5c-0.3-3-1.4-6.8,0.5-9l8.1-9.3l17.1,14.9c1.2,0.8,10,11.1,8.7,15.3
						l-0.2,0.5C59.8,58.4,53.5,64.5,45.5,66.7"/>
					<defs>
						<filter id="Adobe_OpacityMaskFilter_28_" filterUnits="userSpaceOnUse" x="32.3" y="69.3" width="17.3" height="31.1">
							<feColorMatrix  type="matrix" values="1 0 0 0 0  0 1 0 0 0  0 0 1 0 0  0 0 0 1 0"/>
						</filter>
					</defs>
					<mask maskUnits="userSpaceOnUse" x="32.3" y="69.3" width="17.3" height="31.1" id="mask-24_18_">
						<g class="st104">
							<polygon id="path-23_18_" class="st0" points="0,265.7 91.6,265.7 91.6,0 0,0 							"/>
						</g>
					</mask>
					<path id="Fill-23_3_" class="st105" d="M33.4,100.5h15.2c0.6,0,1-0.5,1-1V70.3c0-0.6-0.5-1-1-1H33.4c-0.6,0-1,0.5-1,1v29.1
						C32.3,100,32.8,100.5,33.4,100.5"/>
					<defs>
						<filter id="Adobe_OpacityMaskFilter_29_" filterUnits="userSpaceOnUse" x="32.3" y="71.8" width="17.3" height="31.1">
							<feColorMatrix  type="matrix" values="1 0 0 0 0  0 1 0 0 0  0 0 1 0 0  0 0 0 1 0"/>
						</filter>
					</defs>
					<mask maskUnits="userSpaceOnUse" x="32.3" y="71.8" width="17.3" height="31.1" id="mask-24_19_">
						<g class="st106">
							<polygon id="path-23_19_" class="st0" points="0,265.7 91.6,265.7 91.6,0 0,0 							"/>
						</g>
					</mask>
					<path id="Fill-24_1_" class="st107" d="M33.4,102.9h15.2c0.6,0,1-0.5,1-1V72.8c0-0.6-0.5-1-1-1H33.4c-0.6,0-1,0.5-1,1v29.1
						C32.3,102.4,32.8,102.9,33.4,102.9"/>
					<defs>
						<filter id="Adobe_OpacityMaskFilter_30_" filterUnits="userSpaceOnUse" x="34.3" y="73.9" width="2.5" height="2.5">
							<feColorMatrix  type="matrix" values="1 0 0 0 0  0 1 0 0 0  0 0 1 0 0  0 0 0 1 0"/>
						</filter>
					</defs>
					<mask maskUnits="userSpaceOnUse" x="34.3" y="73.9" width="2.5" height="2.5" id="mask-24_20_">
						<g class="st108">
							<polygon id="path-23_20_" class="st0" points="0,265.7 91.6,265.7 91.6,0 0,0 							"/>
						</g>
					</mask>
					<path id="Fill-25_2_" class="st109" d="M36.8,75.2c0,0.7-0.6,1.3-1.3,1.3s-1.3-0.6-1.3-1.3c0-0.7,0.6-1.3,1.3-1.3
						S36.8,74.5,36.8,75.2"/>
					<defs>
						<filter id="Adobe_OpacityMaskFilter_31_" filterUnits="userSpaceOnUse" x="31" y="82.9" width="59.5" height="64.2">
							<feColorMatrix  type="matrix" values="1 0 0 0 0  0 1 0 0 0  0 0 1 0 0  0 0 0 1 0"/>
						</filter>
					</defs>
					<mask maskUnits="userSpaceOnUse" x="31" y="82.9" width="59.5" height="64.2" id="mask-24_21_">
						<g class="st110">
							<polygon id="path-23_21_" class="st0" points="0,265.7 91.6,265.7 91.6,0 0,0 							"/>
						</g>
					</mask>
					<path id="Fill-26_2_" class="st111" d="M85.7,123.6l-31.3-19.9L53,91.9c-0.3-2.3-1.9-4.1-4.1-4.7l-16.1-4.3
						c-1-0.3-1.9,0.5-1.8,1.6l0.6,5.6c0.4,3.9,2.2,7.5,5.1,10.2L85.9,147c5.9-6.2,6.2-15.9,0.6-22.5L85.7,123.6z"/>
					<defs>
						<filter id="Adobe_OpacityMaskFilter_32_" filterUnits="userSpaceOnUse" x="0.7" y="124.6" width="85.7" height="34">
							<feColorMatrix  type="matrix" values="1 0 0 0 0  0 1 0 0 0  0 0 1 0 0  0 0 0 1 0"/>
						</filter>
					</defs>
					<mask maskUnits="userSpaceOnUse" x="0.7" y="124.6" width="85.7" height="34" id="mask-24_22_">
						<g class="st112">
							<polygon id="path-23_22_" class="st0" points="0,265.7 91.6,265.7 91.6,0 0,0 							"/>
						</g>
					</mask>
					<path id="Fill-27_3_" class="st113" d="M17.3,126.8c0,0,35.6,16.8,47.1,16.4c11.6-0.4,15.3-2.2,15.3-2.2l5.1,4.6
						c1.7,1.6,2.2,4.1,1.2,6.2l-1.2,2.4c-1.8,3.7-6.3,5.3-10.1,3.7l-10-4.3c0,0-49.5-8.9-56.2-12.8c-6.6-3.9-7.8-15.9-7.8-15.9
						C5.7,124.1,11.8,124.9,17.3,126.8"/>
				</g>
				<g id="Group-83" transform="translate(0.000000, 182.000000)">
					<polygon id="Fill-1_5_" class="st114" points="188.8,185.8 201.5,198.7 182.9,204.4 171.9,191.3 					"/>
					<g id="Group-82" transform="translate(0.000000, 0.884000)">
						<g id="Group-4" transform="translate(169.909091, 183.801724)">
							<g id="Clip-3">
							</g>
							<defs>
								<filter id="Adobe_OpacityMaskFilter_33_" filterUnits="userSpaceOnUse" x="0.5" y="1.2" width="58.9" height="28.4">
									<feColorMatrix  type="matrix" values="1 0 0 0 0  0 1 0 0 0  0 0 1 0 0  0 0 0 1 0"/>
								</filter>
							</defs>
							<mask maskUnits="userSpaceOnUse" x="0.5" y="1.2" width="58.9" height="28.4" id="mask-26_1_">
								<g class="st115">
									<polygon id="path-25_1_" class="st0" points="0.5,1.2 59.4,1.2 59.4,29.6 0.5,29.6 									"/>
								</g>
							</mask>
							<path id="Fill-2" class="st116" d="M23.4,9.4c1.6-0.2,8.7-8.2,8.7-8.2c2.4,1.1,4,3.6,4,6.3v3.7l20.2,7.4
								c1.6,0.6,2.8,2,3.1,3.7c0.4,2.4-1.1,4.8-3.5,5.4c-5.5,1.4-11.1,2-16.7,1.9l-32.6-1c-3.7-0.1-6.5-3.5-5.9-7.1l1-6.3
								c0.3-2.2,2.5-3.6,4.6-3.1c2.9,0.7,6.5,1.6,7.3,1.7C14.9,14.2,23.4,9.4,23.4,9.4"/>
						</g>
						<g id="Group-7" transform="translate(169.909091, 202.853448)">
							<g id="Clip-6_1_">
							</g>
							<defs>
								<filter id="Adobe_OpacityMaskFilter_34_" filterUnits="userSpaceOnUse" x="0.5" y="1.9" width="58.9" height="8.7">
									<feColorMatrix  type="matrix" values="1 0 0 0 0  0 1 0 0 0  0 0 1 0 0  0 0 0 1 0"/>
								</filter>
							</defs>
							<mask maskUnits="userSpaceOnUse" x="0.5" y="1.9" width="58.9" height="8.7" id="mask-28_1_">
								<g class="st117">
									<polygon id="path-27_1_" class="st0" points="0.5,1.9 59.4,1.9 59.4,10.6 0.5,10.6 									"/>
								</g>
							</mask>
							<path id="Fill-5_3_" class="st118" d="M55.9,8.7c2.4-0.6,3.9-3,3.5-5.4c-0.1-0.5-0.2-0.9-0.4-1.3c-5.8,4.1-12.9,5.9-19.9,5
								L0.7,1.9L0.6,2.4C0,6.1,2.8,9.4,6.5,9.6l32.6,1C44.8,10.7,50.4,10.1,55.9,8.7"/>
						</g>
						<path id="Stroke-8" class="st119" d="M205.9,195.6l-2.7,2.7"/>
						<path id="Stroke-10" class="st119" d="M210.2,196.9l-2.4,2.4"/>
						<path id="Stroke-12" class="st119" d="M214.2,198.5l-2.1,2.1"/>
						<path id="Stroke-14" class="st119" d="M218.1,199.5l-1.6,1.6"/>
						<path id="Fill-16_2_" class="st20" d="M62.4,162.8c41-36.9,68.7-62.9,84.4-44c20.4,22.3,48,67.3,48,67.3l-24,17.3l-38.5-51.1
							l-43.8,41.4l-58.6-1.4L25,165C25,165,43.3,180,62.4,162.8"/>
						<path id="Fill-18_2_" class="st21" d="M62.4,162.8c41-36.9,68.7-62.9,84.4-44c20.4,22.3,48,67.3,48,67.3l-24,17.3l-38.5-51.1
							l-43.8,41.4l-58.6-1.4L25,165C25,165,43.3,180,62.4,162.8"/>
						<path id="Fill-20_2_" class="st29" d="M129.9,141.9c20.4,22.3,52.9,52.9,52.9,52.9l-12.1,8.7l-38.5-51.1l-43.8,41.4l-58.6-1.4
							C29.8,192.4,113.5,187.2,129.9,141.9"/>
						<path id="Fill-22_2_" class="st120" d="M158.3,212.2h-28.9v-24H167c3,0,5.9,1.4,7.7,3.8c2.5,3.3,2.7,7.8,0.4,11.2
							C171.4,208.8,165.1,212.2,158.3,212.2"/>
						<path id="Fill-24_2_" class="st121" d="M155.6,211.7h-27.7v-23.1H164c2.9,0,5.6,1.4,7.4,3.7c2.4,3.1,2.6,7.5,0.4,10.8
							C168.2,208.5,162.1,211.7,155.6,211.7"/>
						<path id="Stroke-26" class="st119" d="M159,196.7v5.1"/>
						<path id="Stroke-28" class="st119" d="M153.1,196.1v6.8"/>
						<path id="Stroke-30_1_" class="st119" d="M148.1,195.2v8.5"/>
						<path id="Stroke-32" class="st119" d="M142,195.5v9.3"/>
						<path id="Stroke-34" class="st119" d="M79,79.2V91"/>
						<path id="Stroke-36_1_" class="st119" d="M79.9,80.4c0,0,3.3,9.9,2.5,15.6"/>
						<path id="Fill-38_1_" class="st122" d="M61.9,51.9l13.8-12.1l6.5-22.7l25.1-7.1l18.5,27.7l-7.5,8.9l-7,12
							c-0.7,1.5-2.3,2.2-3.8,1.8l-1.6-0.4l-7.7,6.4c-3.2,2.7-8.2,2.3-10.7-1.1c0,0,0,0-0.1-0.1l-1-1.4l-11.5,9.2L61.9,51.9z"/>
						<path id="Fill-40_1_" class="st20" d="M10.3,175.1v14.7c0,11.2,8.4,20.7,19.6,22l38.6,4.5c20.1,2.3,31.9,2.5,52,0.6l8.9-0.8
							c9.4-0.9,16.1-9.6,14.5-18.9c-1.3-7.8-8.1-13.5-16-13.5h-4.5c-18.3,0-33.7-1.4-51.8-4.2l-9.3-16.6L10.3,175.1z"/>
						<path id="Fill-42_2_" class="st29" d="M53.8,182c4.5,0.5,52,4.4,73.2,10c4.2,1.1,7.9,3.7,10.2,7.4c4.9,8.2,0,16.1-48.6,18.5
							c10.1,0.5,19.4,0.1,32-1.1l8.4-0.8c9.1-0.9,16.2-8.9,15.1-18c-0.9-8.3-7.9-14.4-16.2-14.4h-4.5c-18.3,0-33.7-1.4-51.8-4.2
							C71.6,179.4,48.8,181.5,53.8,182"/>
						<path id="Fill-44_3_" class="st123" d="M62.6,48.3C42.4,49.6,8.4,70.6,1.8,114c-5.1,33.5,2,68.8,5.6,83.1
							c0.9,3.5,4.7,5.2,7.9,3.6c14-7.1,47.1-25.1,47.1-37.9c-2.3-20.2-23.8-24,7.8-57.2c5.8-6.1,9.2-14.3,8.8-22.7
							C78.1,62.4,67.1,47.9,62.6,48.3"/>
						<path id="Fill-46_2_" class="st124" d="M70.1,42.6c0,0,12.3-1.9,13.1-2.8c0.4-0.4,2.6-3.1,4.7-5.6c2.4-2.8,6.5-3.2,9.4-1
							l-4.6,6.9l2.9,2.5l9.5-11.1c1.6-1.9,4.5-1.9,6.1,0l10,11.6h2.4c4.5,0,8.7-2.3,11.1-6.1c2.1-3.3,2.6-7.4,1.4-11.1l-4.2-12.7
							l-4.7,3.8l-4.5-6.3c-4.5-6.4-11.8-10.3-19.6-10.6L100.7,0C92.6-0.2,84.9,3.5,80,9.9c-2.4,3.1-4,6.8-4.7,10.6
							c-1.1,6.2-2.3,12.3-4.1,18.3L70.1,42.6z"/>
						<path id="Fill-48_3_" class="st125" d="M82.7,53.4c0,0-4.5,5.9-3.7,16.1l7.4-5.9L82.7,53.4z"/>
						<path id="Fill-50_2_" class="st126" d="M78.7,79.2c0,0-9-24.7-44.1-15.2c-2.9,0.8-7.2,1.1-9.5-0.2c-2.5-0.2-1.2-12.2,7-12.2
							c3.7,0-1.9-3.9,4.5-7.4c7.4-4.1,19.6-3.9,28.2,3.2S85.8,76.4,78.7,79.2"/>
						<path id="Fill-52_1_" class="st121" d="M165.1,131.8L165.1,131.8c-0.4,0-0.8,0.1-1.1,0.5l-31.3,36.9l12.8,13.3l39.9-49.2
							L165.1,131.8z"/>
						<path id="Fill-54_3_" class="st127" d="M80.5,169.7l1.3,9.4h64.7L134,167.5H82.4C81.2,167.5,80.3,168.5,80.5,169.7"/>
						<polygon id="Fill-56_4_" class="st0" points="162,136.3 178.7,137.8 146.6,175.2 136.4,167.3 						"/>
						<path id="Fill-58_3_" class="st128" d="M148.4,179.1H81.7c0,3.3,2.7,6,6,6h54.7C145.7,185,148.4,182.4,148.4,179.1"/>
						<path id="Fill-60_1_" class="st128" d="M147.3,182.4l39.2-46.6c0.5-0.7,0.4-1.7-0.2-2.2c-0.7-0.5-1.7-0.4-2.2,0.2l-39.2,46.6
							L147.3,182.4z"/>
						<polygon id="Fill-62_2_" class="st121" points="137.2,177.4 130,168.5 103.3,168.5 107.1,177.4 						"/>
						<polygon id="Fill-64_1_" class="st128" points="100.8,175.2 85.4,175.2 84.9,170.2 99.3,170.2 						"/>
						<polygon id="Fill-66_1_" class="st129" points="162,136.3 178.7,137.8 174.8,142.3 159.5,139.3 						"/>
						<polygon id="Fill-68" class="st129" points="159,141.9 170.4,144.8 168.2,147.4 157.5,143.8 						"/>
						<polygon id="Fill-70" class="st129" points="156.2,145.2 166.7,149.1 164.5,151.7 154.8,147.2 						"/>
						<polygon id="Fill-72" class="st129" points="153.1,149.8 161.5,154.1 153.7,163.3 145.9,158 						"/>
						<polygon id="Fill-74_1_" class="st125" points="95.2,154.1 100.6,157.6 112.2,158.9 123,171 117.4,171 104.4,174 86,168.6 
													"/>
						<polygon id="Fill-76" class="st130" points="67.9,125.9 97.9,152.7 89.9,167.5 46.5,138.6 						"/>
						<path id="Fill-78" class="st131" d="M101.9,164.7l13-3.2l10.1,5l4.9,7.6c-1.9,0.7-4,0.1-5.3-1.3l-2.7-2.9l0.6,5.4l-2.7,2.8
							l-6.6,1l-19-3.7l1.9-10.9L101.9,164.7z"/>
						<path id="Fill-80" class="st126" d="M71.2,71c9.1,0.7,11.5,19,9.1,27.8c-1.7,6.3-8.3,44.6-8.3,44.6l30.7,19.1
							c0,0-1,13.9-9.6,15.4c-8.5,1.5-49.2-17.8-49.3-27.3c-0.1-9.5,0-37.2,3.5-52.5C52.9,73.4,62.1,70.4,71.2,71"/>
					</g>
				</g>
			</g>
		</g>
	</g>
</g>
</svg>
