<?xml version="1.0" encoding="UTF-8"?>
<svg width="84px" height="98px" viewBox="0 0 84 98" version="1.1" xmlns="http://www.w3.org/2000/svg" xmlns:xlink="http://www.w3.org/1999/xlink">
    <!-- Generator: Sketch 51.3 (57544) - http://www.bohemiancoding.com/sketch -->
    <title>Group 37</title>
    <desc>Created with Sketch.</desc>
    <defs></defs>
    <g id="Page-1-Copy" stroke="none" stroke-width="1" fill="none" fill-rule="evenodd">
        <g id="Desktop" transform="translate(-259.000000, -1138.000000)">
            <g id="Solutions" transform="translate(0.000000, 984.000000)">
                <g id="Group-15" transform="translate(0.000000, 154.000000)">
                    <g id="Group-22" transform="translate(259.000000, 0.000000)">
                        <g id="Group-37">
                            <path d="M72.6049348,58.953125 C72.6049348,78.8272188 56.5236289,94.9375 36.6852799,94.9375 C16.8469309,94.9375 0.765625,78.8272188 0.765625,58.953125 C0.765625,39.0790312 16.8469309,22.96875 36.6852799,22.96875 C56.5236289,22.96875 72.6049348,39.0790312 72.6049348,58.953125" id="Fill-1" fill="#EAEBED"></path>
                            <path d="M47.7745491,28.3643939 L50.3750673,26.7544811 C51.8064624,29.0749763 52.6025768,31.7408409 52.6025768,34.4087187 L52.6025768,50.53125 L49.5455849,50.53125 L49.5455849,34.4087187 C49.5455849,32.3249989 48.9148852,30.2130411 47.7745491,28.3643939 Z" id="Stroke-3" fill="#1B374D" fill-rule="nonzero"></path>
                            <path d="M29.6745261,15.3125 C29.6745261,7.70065625 35.8328363,1.53125 43.4294612,1.53125 C51.0276146,1.53125 57.1859248,7.70065625 57.1859248,15.3125 C57.1859248,22.9243437 51.0276146,29.09375 43.4294612,29.09375 C35.8328363,29.09375 29.6745261,22.9243437 29.6745261,15.3125" id="Fill-5" fill="#EAEBED"></path>
                            <path d="M31.2030221,15.3125 C31.2030221,22.0784473 36.6767913,27.5625 43.4294612,27.5625 C50.1834496,27.5625 55.6574288,22.0786577 55.6574288,15.3125 C55.6574288,8.54634227 50.1834496,3.0625 43.4294612,3.0625 C36.6767913,3.0625 31.2030221,8.54655274 31.2030221,15.3125 Z M28.1460302,15.3125 C28.1460302,6.85523331 34.9884087,0 43.4294612,0 C51.8717796,0 58.7144208,6.85497023 58.7144208,15.3125 C58.7144208,23.7700298 51.8717796,30.625 43.4294612,30.625 C34.9884087,30.625 28.1460302,23.7697667 28.1460302,15.3125 Z" id="Stroke-7" fill="#1B374D" fill-rule="nonzero"></path>
                            <polygon id="Fill-9" fill="#EAEBED" points="67.886925 59.71875 60.2444452 53.59375 55.6589573 53.59375 51.0734695 50.53125 48.0164776 50.53125 44.9594857 49 40.3739978 52.0625 37.3170059 52.0625 32.731518 53.59375 31.2030221 59.71875 31.2030221 67.375 67.886925 67.375"></polygon>
                            <path d="M56.1217487,52.0625 L60.7806126,52.0625 L69.4154209,58.9827932 L69.4154209,68.90625 L29.6745261,68.90625 L29.6745261,59.5302445 L31.4521615,52.4068913 L37.0689652,50.53125 L39.9112065,50.53125 L44.8496745,47.2330059 L48.3773065,49 L51.5362608,49 L56.1217487,52.0625 Z M59.7082778,55.125 L55.196166,55.125 L50.6106781,52.0625 L47.6556486,52.0625 L45.0692969,50.7669941 L40.8367891,53.59375 L37.5650466,53.59375 L34.0108746,54.7806087 L32.731518,59.9072555 L32.731518,65.84375 L66.358429,65.84375 L66.358429,60.4547068 L59.7082778,55.125 Z" id="Stroke-11" fill="#1B374D" fill-rule="nonzero"></path>
                            <path d="M69.4154209,58.1875 L59.947917,64.2619687 C59.3028917,62.5071562 57.6337741,61.25 55.6589573,61.25 L46.4879816,61.25 C44.3862997,61.25 41.1902146,58.1875 38.6590253,58.1875 L29.6745261,58.1875 C25.9801514,58.1875 22.36373,61.0448125 20.5035504,62.78125 C17.629978,65.66 12.1518485,71.301125 11.3325747,71.96875 C15.9027776,75.9285625 24.5173808,84.4974375 26.6175342,86.3548437 C29.4574797,83.5067187 30.5702248,81.15625 32.9179945,81.15625 L55.6589573,81.15625 C57.7896807,79.9664687 70.9439169,68.90625 70.9439169,68.90625 C70.9439169,68.90625 79.8733902,59.271625 81.6433885,55.125 C80.5306435,53.6259062 73.6187848,51.3933437 69.4154209,58.1875" id="Fill-13" fill="#FFFFFF"></path>
                            <path d="M68.3088071,57.0791242 C72.3397033,50.9584052 80.2445978,50.6744173 82.8699336,54.2112782 L83.3942716,54.917668 L83.0487807,55.7270593 C82.3950909,57.2584768 80.9462899,59.3873797 78.8554087,62.0349959 C78.4640601,62.5305482 78.0533854,63.0398694 77.6255404,63.5609844 C76.4082195,65.0436804 75.1063129,66.5569999 73.8046652,68.0217603 C73.3492379,68.5342583 72.9261859,69.0042916 72.546199,69.4218327 C72.3173448,69.6733046 72.1530546,69.8520915 72.0640395,69.948136 L71.9265515,70.0791409 C71.8110052,70.1762935 71.59459,70.3579095 71.2912311,70.6119335 C70.7859837,71.0350132 70.2216634,71.5063722 69.6121876,72.0139615 C67.8705944,73.4644111 66.115666,74.9149515 64.4584491,76.2694161 C64.2901412,76.4069384 64.2901412,76.4069384 64.1217213,76.544396 C60.0545817,79.8628634 57.3836677,81.9462357 56.4031302,82.4937611 L56.0561723,82.6875 L32.9179945,82.6875 C32.4184864,82.6875 32.0002519,82.8792743 31.4282878,83.3903901 C30.9531611,83.8149706 28.541567,86.5919498 27.6989253,87.4370184 L26.6832871,88.4555819 L25.6059449,87.5027647 C24.7260154,86.7245423 16.3834439,78.7015758 17.1588873,79.441901 C16.9383159,79.2313893 16.9383159,79.2313893 16.7176429,79.0210795 C13.9790789,76.4121058 11.8798576,74.467447 10.3326942,73.1269207 L8.95448306,71.9327817 L10.3680503,70.7808679 C10.7396682,70.478037 12.2870016,68.9299077 15.6545469,65.5114104 C18.0446888,63.0850836 18.5850427,62.5377 19.4615468,61.6609649 C22.6512209,58.6834729 26.1303092,56.65625 29.6745261,56.65625 L38.6590253,56.65625 C39.8145672,56.65625 40.9522414,57.0489251 42.4203436,57.8086962 C42.7310554,57.9694955 43.0305716,58.1322524 43.475849,58.3796278 C45.3561907,59.4242582 46.0072434,59.71875 46.4879816,59.71875 L55.6589573,59.71875 C57.6253833,59.71875 59.3748616,60.6485636 60.49325,62.0933024 L68.3088071,57.0791242 Z M61.7729412,65.84375 C61.7729412,69.2267173 59.0358401,71.96875 55.6589573,71.96875 L40.3739978,71.96875 L40.3739978,68.90625 L55.6589573,68.90625 C57.3475101,68.90625 58.7159492,67.5353452 58.7159492,65.84375 C58.7159492,64.1521548 57.3475101,62.78125 55.6589573,62.78125 L46.4879816,62.78125 C45.2352144,62.78125 44.4826074,62.440822 41.9932885,61.0578722 C41.5722798,60.8239794 41.2950595,60.673338 41.0172908,60.5295874 C39.9502024,59.9773486 39.20098,59.71875 38.6590253,59.71875 L29.6745261,59.71875 C27.1172473,59.71875 24.2144593,61.4101697 21.5843603,63.8640073 C20.7537123,64.6961519 20.2139666,65.2429194 17.8475373,67.6451747 C15.7951527,69.7286126 14.4645037,71.0730264 13.5976157,71.9293714 C15.0037219,73.1940419 16.7302146,74.806877 18.824269,76.8018396 C19.0461666,77.0133164 19.0461666,77.0133164 19.26787,77.2249084 C18.7097307,76.6920462 24.1054259,81.8817412 26.5407973,84.1891117 C27.5616753,83.0610108 28.9347893,81.514779 29.393361,81.1049922 C30.4834431,80.1308782 31.5866969,79.625 32.9179945,79.625 L55.2242798,79.625 C56.256623,78.9346741 58.7800928,76.953029 62.191216,74.1698196 C62.3586281,74.0331845 62.3586281,74.0331845 62.525967,73.896454 C64.1750726,72.5486188 65.9230327,71.1038381 67.657928,69.6589667 C68.2652232,69.1531935 68.8274617,68.6835732 69.3306901,68.2621843 C69.5765803,68.0562829 69.7647701,67.8984369 69.8877118,67.7951802 C69.9777591,67.6974727 70.1126377,67.5502945 70.2871422,67.3585437 C70.6592634,66.9496455 71.0742747,66.488546 71.5213772,65.985416 C72.798386,64.5483821 74.075136,63.0643043 75.2645612,61.6155852 C75.6805015,61.1089702 76.0790723,60.6146602 76.4579785,60.1348633 C77.898325,58.3109985 79.0088171,56.7532768 79.6930251,55.5794473 C78.9790586,55.2785279 77.8668359,55.0273801 76.7543623,55.0755299 C74.4318282,55.1760534 72.3275365,56.3865283 70.7146982,58.9940459 L70.5319348,59.2895243 L61.7083876,64.9503923 C61.7509188,65.2420104 61.7729412,65.5403018 61.7729412,65.84375 Z" id="Stroke-15" fill="#1B374D" fill-rule="nonzero"></path>
                            <polygon id="Fill-17" fill="#EAEBED" points="23.5605423 94.9375 32.731518 85.75 11.3325747 64.3125 2.16159898 73.5"></polygon>
                            <path d="M23.5605423,97.1030145 L-2.07300324e-05,73.5 L11.3325747,62.1469855 L34.8931377,85.75 L23.5605423,97.1030145 Z M30.5698983,85.75 L11.3325747,66.4780145 L4.32321868,73.5 L23.5605423,92.7719855 L30.5698983,85.75 Z" id="Stroke-19" fill="#1B374D" fill-rule="nonzero"></path>
                            <polygon id="Stroke-21" fill="#1B374D" fill-rule="nonzero" points="8.72326889 73.0515073 10.8848886 70.8859927 13.9418805 73.9484927 11.7802608 76.1140073"></polygon>
                            <path d="M64.8299331,41.34375 L57.1874533,41.34375 C57.1874533,35.4239375 61.9777596,30.625 67.886925,30.625 L75.5294047,30.625 C75.5294047,36.5448125 70.7390984,41.34375 64.8299331,41.34375" id="Fill-23" fill="#85B4D6"></path>
                            <path d="M58.8427502,39.8125 L64.8299331,39.8125 C69.374156,39.8125 73.1464271,36.5015056 73.8741079,32.15625 L67.886925,32.15625 C63.342702,32.15625 59.5704309,35.4672444 58.8427502,39.8125 Z M64.8299331,42.875 L55.6589573,42.875 L55.6589573,41.34375 C55.6589573,34.5782515 61.1335946,29.09375 67.886925,29.09375 L77.0579007,29.09375 L77.0579007,30.625 C77.0579007,37.3904985 71.5832634,42.875 64.8299331,42.875 Z" id="Stroke-25" fill="#1B374D" fill-rule="nonzero"></path>
                            <path d="M41.9024938,42.875 L46.4879816,42.875 C46.4879816,38.6456875 43.0672077,35.21875 38.8455019,35.21875 L34.260014,35.21875 C34.260014,39.4480625 37.6807879,42.875 41.9024938,42.875" id="Fill-27" fill="#FFFFFF"></path>
                            <path d="M41.9024938,44.40625 C36.8366229,44.40625 32.731518,40.2937485 32.731518,35.21875 L32.731518,33.6875 L38.8455019,33.6875 C43.9113727,33.6875 48.0164776,37.8000015 48.0164776,42.875 L48.0164776,44.40625 L41.9024938,44.40625 Z M41.9024938,41.34375 L44.7669986,41.34375 C44.088561,38.7015128 41.6952219,36.75 38.8455019,36.75 L35.9809971,36.75 C36.6594346,39.3922372 39.0527737,41.34375 41.9024938,41.34375 Z" id="Stroke-29" fill="#1B374D" fill-rule="nonzero"></path>
                            <path d="M38.8455019,21.4375 L38.8455019,18.375 L44.9594857,18.375 L44.9594857,16.84375 L41.9024938,16.84375 C40.2130705,16.84375 38.8455019,15.4737173 38.8455019,13.78125 L38.8455019,12.25 C38.8455019,10.5575327 40.2130705,9.1875 41.9024938,9.1875 L48.0164776,9.1875 L48.0164776,12.25 L41.9024938,12.25 L41.9024938,13.78125 L44.9594857,13.78125 C46.6489089,13.78125 48.0164776,15.1512827 48.0164776,16.84375 L48.0164776,18.375 C48.0164776,20.0674673 46.6489089,21.4375 44.9594857,21.4375 L38.8455019,21.4375 Z" id="Stroke-31" fill="#1B374D" fill-rule="nonzero"></path>
                            <polygon id="Stroke-33" fill="#1B374D" fill-rule="nonzero" points="44.9594857 10.71875 41.9024938 10.71875 41.9024938 6.125 44.9594857 6.125"></polygon>
                            <polygon id="Stroke-35" fill="#1B374D" fill-rule="nonzero" points="41.9024938 19.90625 44.9594857 19.90625 44.9594857 24.5 41.9024938 24.5"></polygon>
                        </g>
                    </g>
                </g>
            </g>
        </g>
    </g>
</svg>