<?xml version="1.0" encoding="UTF-8"?>
<svg width="98px" height="82px" viewBox="0 0 98 82" version="1.1" xmlns="http://www.w3.org/2000/svg" xmlns:xlink="http://www.w3.org/1999/xlink">
    <!-- Generator: Sketch 51.3 (57544) - http://www.bohemiancoding.com/sketch -->
    <title>Group 27</title>
    <desc>Created with Sketch.</desc>
    <defs></defs>
    <g id="Page-1-Copy" stroke="none" stroke-width="1" fill="none" fill-rule="evenodd">
        <g id="Desktop" transform="translate(-820.000000, -1763.000000)">
            <g id="Solutions" transform="translate(0.000000, 984.000000)">
                <g id="Group-15" transform="translate(0.000000, 154.000000)">
                    <g id="Group-23" transform="translate(820.000000, 625.000000)">
                        <g id="Group-27">
                            <path d="M48.7612781,81.684225 C31.0018406,81.684225 16.6050281,67.2874125 16.6050281,49.527975 C16.6050281,31.7685375 31.0018406,17.371725 48.7612781,17.371725 C66.5207156,17.371725 80.9175281,31.7685375 80.9175281,49.527975 C80.9175281,67.2874125 66.5207156,81.684225 48.7612781,81.684225 Z" id="Fill-1" fill="#EAEBED"></path>
                            <path d="M30.4565568,62.9754802 L33.0449932,61.3387448 C36.5589163,66.8958841 42.6410026,70.330925 49.3203375,70.330925 C55.9993113,70.330925 62.0800076,66.8962318 65.5941505,61.3387448 L68.182587,62.9754802 C64.1136471,69.4103582 57.0621236,73.393425 49.3203375,73.393425 C41.5782557,73.393425 34.5253092,69.4100616 30.4565568,62.9754802 Z" id="Stroke-3" fill="#BCC0C4" fill-rule="nonzero"></path>
                            <path d="M25.2982406,20.7250094 C17.1535219,27.0705094 11.9089906,37.2778219 11.9089906,47.9965719 L30.8444281,47.9965719 C30.8444281,43.4028219 32.8442406,39.2868219 36.0108656,36.4065406 L25.2982406,20.7250094 Z" id="Fill-5" fill="#85B4D6"></path>
                            <path d="M24.3571539,19.5170846 L25.6430927,18.5152176 L38.0267497,36.6428664 L37.0411957,37.5393012 C34.0848388,40.228328 32.3756781,43.9742384 32.3756781,47.9965719 L32.3756781,49.5278219 L10.3777406,49.5278219 L10.3777406,47.9965719 C10.3777406,36.9723789 15.7046132,26.2582255 24.3571539,19.5170846 Z M24.9769984,22.9693622 C18.1939612,28.8339816 13.9172648,37.481696 13.477751,46.4653219 L29.3814224,46.4653219 C29.7272649,42.6000804 31.3744888,39.0157202 34.0237662,36.2123508 L24.9769984,22.9693622 Z" id="Stroke-7" fill="#1B374D" fill-rule="nonzero"></path>
                            <path d="M49.08575,12.3466219 C42.63,12.3466219 36.59075,14.1167469 31.415125,17.1884344 L42.1292813,32.9189656 C44.228625,31.8807781 46.5852188,31.2820594 49.08575,31.2820594 C51.5862813,31.2820594 53.942875,31.8807781 56.0422188,32.9189656 L66.756375,17.1884344 C61.58075,14.1167469 55.5415,12.3466219 49.08575,12.3466219" id="Fill-9" fill="#85B4D6"></path>
                            <path d="M49.08575,10.8153719 C55.6646248,10.8153719 61.9909803,12.5795932 67.5378854,15.8716322 L68.939408,16.7034234 L56.5577556,34.8821736 L55.3634364,34.2915475 C53.4075548,33.3243063 51.2788676,32.8133094 49.08575,32.8133094 C46.8926324,32.8133094 44.7639452,33.3243063 42.8080636,34.2915475 L41.6137444,34.8821736 L29.232092,16.7034234 L30.6336146,15.8716322 C36.1805197,12.5795932 42.5068752,10.8153719 49.08575,10.8153719 Z M49.08575,13.8778719 C43.6175755,13.8778719 38.3448027,15.2075014 33.6207145,17.7065628 L42.673722,30.9981944 C44.7030245,30.1802258 46.8674304,29.7508094 49.08575,29.7508094 C51.3040696,29.7508094 53.4684755,30.1802258 55.497778,30.9981944 L64.5507855,17.7065628 C59.8266973,15.2075014 54.5539245,13.8778719 49.08575,13.8778719 Z" id="Stroke-11" fill="#1B374D" fill-rule="nonzero"></path>
                            <path d="M72.9008219,21.1108844 L62.4086969,36.4739156 C62.7547594,36.7878219 63.0793844,37.1430719 63.3917594,37.4891344 L67.3408531,46.0304469 C67.4220094,46.6475406 67.4679469,46.4653219 67.4679469,47.9965719 L86.0144469,47.9965719 C86.0144469,37.2778219 80.8786344,27.3262281 72.9008219,21.1108844" id="Fill-13" fill="#FFFFFF"></path>
                            <path d="M63.6726937,37.3366386 L62.2523827,38.5132673 C61.8575628,38.0739333 61.6247115,37.8296303 61.3794568,37.6071648 L60.3913986,36.7109173 L72.5553945,18.9016342 L73.8414379,19.9035632 C82.357323,26.5381079 87.5467687,37.0114716 87.5467687,47.9971844 L87.5467687,49.5284344 L65.9377687,49.5284344 L65.9377687,47.9971844 C65.9377687,47.1397488 65.926111,46.8918233 65.8952579,46.7000911 C65.8677679,46.5417458 65.8449262,46.402972 65.8222808,46.2312086 L68.8585067,45.8309102 C68.8736545,45.9458047 68.8869162,46.026376 68.9188607,46.21354 C68.9322009,46.2964403 68.9435256,46.3785769 68.9530936,46.4659344 L84.4474505,46.4659344 C84.0186019,37.5457171 79.8668392,29.11072 73.2213888,23.3564125 L64.3804847,36.3003632 C64.4284257,36.3531925 64.4782281,36.4083757 64.5302173,36.4662265 L63.8491541,37.0782832 L63.6726937,37.3366386 Z" id="Stroke-15" fill="#1B374D" fill-rule="nonzero"></path>
                            <path d="M71.1199781,38.5610094 L53.1905719,43.8101344 C51.3117281,42.6571031 48.9137906,42.4427281 46.7792281,43.4656031 C43.4380406,45.0688219 42.0277594,49.0761031 43.6309781,52.4172906 C45.2326656,55.7569469 49.2399469,57.1672281 52.5826656,55.5640094 C54.7156969,54.5411344 56.0494156,52.5351969 56.3265719,50.3501031 L71.6436656,39.6527906 L71.1199781,38.5610094 Z" id="Fill-17" fill="#FFFFFF"></path>
                            <path d="M71.9380709,36.7259751 L73.5868729,40.1633898 L57.7272319,51.2396121 C57.1998931,53.7066598 55.5779046,55.825881 53.2448533,56.9446737 C49.1403192,58.9132707 44.2180415,57.1823599 42.2504321,53.0797249 C40.2814798,48.9763306 42.0129039,44.0542472 46.1175105,42.0847134 C48.4525092,40.9657901 51.119601,41.0271858 53.3738291,42.1609585 L71.9380709,36.7259751 Z M66.1752013,41.6041975 L52.9687399,45.4706036 L52.3896506,45.1152212 C50.8917574,44.1959762 49.0432071,44.0786947 47.4416624,44.8461492 C44.8623907,46.0837741 43.7744163,49.176662 45.0116526,51.755124 C46.2479402,54.33289 49.3409308,55.4205351 51.9205618,54.1833048 C53.5202768,53.4161766 54.586439,51.9002072 54.8074928,50.1574239 L54.8929593,49.4836079 L66.1752013,41.6041975 Z" id="Stroke-19" fill="#1B374D" fill-rule="nonzero"></path>
                            <path d="M18.9634383,10.3603943 L20.845693,12.7761807 C9.70412822,21.4571066 3.06234688,34.736692 3.06234688,49.1176 L-0.000153125,49.1176 C-0.000153125,33.7818233 7.08525088,19.6152583 18.9634383,10.3603943 Z" id="Stroke-21" fill="#D2D2D4" fill-rule="nonzero"></path>
                            <path d="M74.1489857,6.85920242 L72.5858018,9.49271008 C65.5320942,5.30580685 57.4890541,3.0631125 49.1185187,3.0631125 C40.7471943,3.0631125 32.7056231,5.30539729 25.6495798,9.49278403 L24.0866452,6.85912847 C31.6119975,2.39323177 40.1927176,0.0006125 49.1185187,0.0006125 C58.0435777,0.0006125 66.6258691,2.39366989 74.1489857,6.85920242 Z" id="Stroke-23" fill="#D2D2D4" fill-rule="nonzero"></path>
                            <path d="M97.8974063,48.9672313 L94.8349063,48.9672313 C94.8349063,34.8910247 88.3338661,21.8929188 77.428156,13.394428 L79.310594,10.9787845 C90.9527844,20.0511922 97.8974063,33.9361903 97.8974063,48.9672313 Z" id="Stroke-25" fill="#D2D2D4" fill-rule="nonzero"></path>
                        </g>
                    </g>
                </g>
            </g>
        </g>
    </g>
</svg>