<?xml version="1.0" encoding="UTF-8"?>
<svg width="95px" height="92px" viewBox="0 0 95 92" version="1.1" xmlns="http://www.w3.org/2000/svg" xmlns:xlink="http://www.w3.org/1999/xlink">
    <!-- Generator: Sketch 51.3 (57544) - http://www.bohemiancoding.com/sketch -->
    <title>Group 31</title>
    <desc>Created with Sketch.</desc>
    <defs>
        <polygon id="path-1" points="0 97.7877187 94.9375 97.7877187 94.9375 6 0 6"></polygon>
    </defs>
    <g id="Page-1-Copy" stroke="none" stroke-width="1" fill="none" fill-rule="evenodd">
        <g id="Desktop" transform="translate(-261.000000, -1752.000000)">
            <g id="Solutions" transform="translate(0.000000, 984.000000)">
                <g id="Group-15" transform="translate(0.000000, 154.000000)">
                    <g id="Group-16" transform="translate(260.000000, 614.000000)">
                        <g id="Group-31" transform="translate(1.000000, 0.000000)">
                            <path d="M47.1226875,50.444275 C35.0849194,50.444275 24.5278283,54.9195204 16.5864174,62.694275 L28.4594855,62.694275 L34.5844855,56.569275 L49,56.569275 C52.3829673,56.569275 55.125,59.3113077 55.125,62.694275 L55.125,64.225525 C55.125,67.6084923 52.3829673,70.350525 49,70.350525 C47.3084048,70.350525 45.9375,71.7214298 45.9375,73.413025 L45.9375,76.475525 C45.9375,80.7037423 42.5094673,84.131775 38.28125,84.131775 L28.1967645,84.131775 L20.5405145,91.788025 L0,91.788025 L0,90.2353375 C0,87.8148948 0.343804903,85.4337885 1.03062337,83.1697116 C7.60452942,61.4985813 25.0544705,47.381775 47.1226875,47.381775 C69.2855189,47.381775 87.2723309,61.614471 93.8851257,83.1208002 C94.5868529,85.4002039 94.9375,87.8069367 94.9375,90.256775 L94.9375,91.788025 L59.71875,91.788025 C56.3357827,91.788025 53.59375,89.0459923 53.59375,85.663025 L53.59375,84.131775 C53.59375,80.7488077 56.3357827,78.006775 59.71875,78.006775 L69.671875,78.006775 C70.9408452,78.006775 71.96875,76.9788702 71.96875,75.7099 C71.96875,74.4409298 70.9408452,73.413025 69.671875,73.413025 L68.140625,73.413025 C65.1802827,73.413025 62.78125,71.0139923 62.78125,68.05365 C62.78125,65.0933077 65.1802827,62.694275 68.140625,62.694275 L78.048175,62.694275 C69.9446466,54.9452513 59.2001457,50.444275 47.1226875,50.444275 Z M3.96124911,84.0587217 C3.50560489,85.5607395 3.22264634,87.1263732 3.11366313,88.725525 L19.2719855,88.725525 L26.9282355,81.069275 L38.28125,81.069275 C40.8180952,81.069275 42.875,79.0123702 42.875,76.475525 L42.875,73.413025 C42.875,70.0300577 45.6170327,67.288025 49,67.288025 C50.6915952,67.288025 52.0625,65.9171202 52.0625,64.225525 L52.0625,62.694275 C52.0625,61.0026798 50.6915952,59.631775 49,59.631775 L35.8530145,59.631775 L29.7280145,65.756775 L13.78125,65.756775 C9.45728363,70.7928569 6.10473802,76.9926293 3.96124911,84.0587217 Z M68.140625,65.756775 C66.8716548,65.756775 65.84375,66.7846798 65.84375,68.05365 C65.84375,69.3226202 66.8716548,70.350525 68.140625,70.350525 L69.671875,70.350525 C72.6322173,70.350525 75.03125,72.7495577 75.03125,75.7099 C75.03125,78.6702423 72.6322173,81.069275 69.671875,81.069275 L59.71875,81.069275 C58.0271548,81.069275 56.65625,82.4401798 56.65625,84.131775 L56.65625,85.663025 C56.65625,87.3546202 58.0271548,88.725525 59.71875,88.725525 L91.8225742,88.725525 C91.7112506,87.1097736 91.4227383,85.5308661 90.9580329,84.0213744 C88.8037357,77.0151047 85.3814555,70.8389794 80.9665657,65.756775 L68.140625,65.756775 Z" id="Stroke-1" fill="#1B374D" fill-rule="nonzero"></path>
                            <polygon id="Stroke-3" fill="#1B374D" fill-rule="nonzero" points="27.5625 91.788025 27.5625 88.725525 50.53125 88.725525 50.53125 91.788025"></polygon>
                            <polygon id="Fill-5" fill="#FFFFFF" points="44.40625 61.163025 59.71875 61.163025 59.71875 19.819275 36.75 19.819275 36.75 61.163025"></polygon>
                            <path d="M35.21875,62.694275 L35.21875,18.288025 L61.25,18.288025 L61.25,62.694275 L35.21875,62.694275 Z M58.1875,59.631775 L58.1875,21.350525 L38.28125,21.350525 L38.28125,59.631775 L58.1875,59.631775 Z" id="Stroke-7" fill="#1B374D" fill-rule="nonzero"></path>
                            <polygon id="Fill-9" fill="#EAEBED" points="42.875 13.694275 42.875 2.975525 21.4375 18.288025 21.4375 55.038025 36.75 55.038025 36.75 19.819275 39.8125 19.819275 39.8125 13.694275"></polygon>
                            <path d="M38.28125,21.350525 L38.28125,56.569275 L19.90625,56.569275 L19.90625,17.5000163 L44.40625,1.63478344e-05 L44.40625,15.225525 L41.34375,15.225525 L41.34375,21.350525 L38.28125,21.350525 Z M41.34375,5.95103365 L22.96875,19.0760337 L22.96875,53.506775 L35.21875,53.506775 L35.21875,18.288025 L38.28125,18.288025 L38.28125,12.163025 L41.34375,12.163025 L41.34375,5.95103365 Z" id="Stroke-11" fill="#1B374D" fill-rule="nonzero"></path>
                            <polygon id="Stroke-13" fill="#1B374D" fill-rule="nonzero" points="26.03125 50.444275 26.03125 47.381775 32.15625 47.381775 32.15625 50.444275"></polygon>
                            <mask id="mask-2" fill="white">
                                <use xlink:href="#path-1"></use>
                            </mask>
                            <g id="Clip-16"></g>
                            <polygon id="Fill-15" fill="#FFFFFF" mask="url(#mask-2)" points="39.8125 19.819275 56.65625 19.819275 56.65625 13.694275 39.8125 13.694275"></polygon>
                            <path d="M38.28125,21.350525 L38.28125,12.163025 L58.1875,12.163025 L58.1875,21.350525 L38.28125,21.350525 Z M55.125,18.288025 L55.125,15.225525 L41.34375,15.225525 L41.34375,18.288025 L55.125,18.288025 Z" id="Stroke-17" fill="#1B374D" fill-rule="nonzero" mask="url(#mask-2)"></path>
                            <polygon id="Stroke-18" fill="#1B374D" fill-rule="nonzero" mask="url(#mask-2)" points="45.9375 30.538025 42.875 30.538025 42.875 24.413025 53.59375 24.413025 53.59375 30.538025 50.53125 30.538025 50.53125 27.475525 45.9375 27.475525"></polygon>
                            <polygon id="Stroke-19" fill="#1B374D" fill-rule="nonzero" mask="url(#mask-2)" points="45.9375 39.725525 42.875 39.725525 42.875 33.600525 53.59375 33.600525 53.59375 39.725525 50.53125 39.725525 50.53125 36.663025 45.9375 36.663025"></polygon>
                            <polygon id="Stroke-20" fill="#1B374D" fill-rule="nonzero" mask="url(#mask-2)" points="45.9375 48.913025 42.875 48.913025 42.875 42.788025 53.59375 42.788025 53.59375 48.913025 50.53125 48.913025 50.53125 45.850525 45.9375 45.850525"></polygon>
                            <polygon id="Stroke-21" fill="#1B374D" fill-rule="nonzero" mask="url(#mask-2)" points="26.03125 32.069275 26.03125 29.006775 32.15625 29.006775 32.15625 32.069275"></polygon>
                            <polygon id="Stroke-22" fill="#1B374D" fill-rule="nonzero" mask="url(#mask-2)" points="26.03125 25.944275 26.03125 22.881775 32.15625 22.881775 32.15625 25.944275"></polygon>
                            <polygon id="Stroke-23" fill="#1B374D" fill-rule="nonzero" mask="url(#mask-2)" points="26.03125 38.194275 26.03125 35.131775 32.15625 35.131775 32.15625 38.194275"></polygon>
                            <polygon id="Stroke-24" fill="#1B374D" fill-rule="nonzero" mask="url(#mask-2)" points="26.03125 44.319275 26.03125 41.256775 32.15625 41.256775 32.15625 44.319275"></polygon>
                            <polygon id="Fill-25" fill="#85B4D6" mask="url(#mask-2)" points="70.4375 55.038025 70.4375 7.569275 52.0625 7.569275 52.0625 13.694275 56.65625 13.694275 56.65625 19.819275 59.71875 19.819275 59.71875 55.038025"></polygon>
                            <path d="M50.53125,15.225525 L50.53125,6.038025 L71.96875,6.038025 L71.96875,56.569275 L58.1875,56.569275 L58.1875,21.350525 L55.125,21.350525 L55.125,15.225525 L50.53125,15.225525 Z M68.90625,53.506775 L68.90625,9.100525 L53.59375,9.100525 L53.59375,12.163025 L58.1875,12.163025 L58.1875,18.288025 L61.25,18.288025 L61.25,53.506775 L68.90625,53.506775 Z" id="Stroke-26" fill="#1B374D" fill-rule="nonzero" mask="url(#mask-2)"></path>
                            <polygon id="Stroke-27" fill="#1B374D" fill-rule="nonzero" mask="url(#mask-2)" points="64.3125 16.756775 67.375 16.756775 67.375 21.350525 64.3125 21.350525"></polygon>
                            <polygon id="Stroke-28" fill="#1B374D" fill-rule="nonzero" mask="url(#mask-2)" points="64.3125 24.413025 67.375 24.413025 67.375 29.006775 64.3125 29.006775"></polygon>
                            <polygon id="Stroke-29" fill="#1B374D" fill-rule="nonzero" mask="url(#mask-2)" points="64.3125 32.069275 67.375 32.069275 67.375 36.663025 64.3125 36.663025"></polygon>
                            <polygon id="Stroke-30" fill="#1B374D" fill-rule="nonzero" mask="url(#mask-2)" points="64.3125 39.725525 67.375 39.725525 67.375 44.319275 64.3125 44.319275"></polygon>
                        </g>
                    </g>
                </g>
            </g>
        </g>
    </g>
</svg>