<?xml version="1.0" encoding="UTF-8"?>
<svg width="95px" height="93px" viewBox="0 0 95 93" version="1.1" xmlns="http://www.w3.org/2000/svg" xmlns:xlink="http://www.w3.org/1999/xlink">
    <!-- Generator: Sketch 51.3 (57544) - http://www.bohemiancoding.com/sketch -->
    <title>Group 33</title>
    <desc>Created with Sketch.</desc>
    <defs>
        <polygon id="path-1" points="0 92.922375 94.9375 92.922375 94.9375 0 0 0"></polygon>
    </defs>
    <g id="Page-1-Copy" stroke="none" stroke-width="1" fill="none" fill-rule="evenodd">
        <g id="Desktop" transform="translate(-820.000000, -1143.000000)">
            <g id="Solutions" transform="translate(0.000000, 984.000000)">
                <g id="Group-15" transform="translate(0.000000, 154.000000)">
                    <g id="Group-14" transform="translate(820.000000, 5.000000)">
                        <g id="Group-33">
                            <path d="M48.234375,78.09375 C30.8975625,78.09375 16.84375,64.0399375 16.84375,46.703125 C16.84375,29.3663125 30.8975625,15.3125 48.234375,15.3125 C65.5711875,15.3125 79.625,29.3663125 79.625,46.703125 C79.625,64.0399375 65.5711875,78.09375 48.234375,78.09375 Z" id="Fill-1" fill="#EAEBED"></path>
                            <polygon id="Fill-3" fill="#FFFFFF" points="64.3125 18.375 45.9375 32.15625 45.9375 58.1875 64.3125 71.96875 68.90625 71.96875 68.90625 18.375"></polygon>
                            <path d="M45.9375,32.15625 L15.3125,32.15625 C11.0831875,32.15625 7.65625,35.5847187 7.65625,39.8125 L7.65625,50.53125 C7.65625,54.7590313 11.0831875,58.1875 15.3125,58.1875 L45.9375,58.1875 L45.9375,32.15625 Z" id="Fill-5" fill="#85B4D6"></path>
                            <polygon id="Stroke-7" fill="#1B374D" fill-rule="nonzero" points="41.34375 36.75 41.34375 39.8125 13.78125 39.8125 13.78125 36.75"></polygon>
                            <polygon id="Stroke-9" fill="#1B374D" fill-rule="nonzero" points="38.28125 64.3125 38.28125 59.71875 41.34375 59.71875 41.34375 67.375 33.6875 67.375 33.6875 64.3125"></polygon>
                            <polygon id="Fill-11" fill="#FFFFFF" points="30.625 61.25 30.625 58.1875 19.90625 58.1875 19.90625 61.58075 24.5 71.96875 24.5 75.03125 35.21875 75.03125 35.21875 71.96875"></polygon>
                            <polygon id="Stroke-13" fill="#1B374D" fill-rule="nonzero" points="33.6875 72.2830509 29.09375 61.5643009 29.09375 58.1875 32.15625 58.1875 32.15625 60.9356991 36.75 71.6544491 36.75 76.5625 22.96875 76.5625 22.96875 72.2922142 18.375 61.9042142 18.375 58.1875 21.4375 58.1875 21.4375 61.2572858 26.03125 71.6452858 26.03125 73.5 33.6875 73.5"></polygon>
                            <path d="M67.375,37.2075375 L67.375,52.994725 C71.96875,52.994725 74.9225313,49.4606 74.9225313,45.1011313 C74.9225313,40.7416625 71.96875,37.2075375 67.375,37.2075375" id="Fill-15" fill="#85B4D6"></path>
                            <path d="M67.4841781,38.7387875 L67.4841781,35.6762875 C72.5148049,35.6762875 76.5629594,39.910538 76.5629594,45.1011313 C76.5629594,50.2917245 72.5148049,54.525975 67.4841781,54.525975 L67.4841781,51.463475 C70.7918767,51.463475 73.5004594,48.6303773 73.5004594,45.1011313 C73.5004594,41.5718852 70.7918767,38.7387875 67.4841781,38.7387875 Z" id="Stroke-17" fill="#1B374D" fill-rule="nonzero"></path>
                            <path d="M45.4270557,59.71875 L15.3125,59.71875 C10.2379829,59.71875 6.125,55.6051988 6.125,50.53125 L6.125,39.8125 C6.125,34.7385512 10.2379829,30.625 15.3125,30.625 L45.4270557,30.625 L60.1264872,19.5996816 C62.5127844,17.8112509 65.4152872,16.84375 68.3963437,16.84375 L70.4375,16.84375 L70.4375,73.5 L68.3963437,73.5 C65.4152872,73.5 62.5127844,72.5324991 60.1260228,70.7437202 L45.4270557,59.71875 Z M61.9636022,22.0499702 L46.4479443,33.6875 L15.3125,33.6875 C11.9294497,33.6875 9.1875,36.4298285 9.1875,39.8125 L9.1875,50.53125 C9.1875,53.9139215 11.9294497,56.65625 15.3125,56.65625 L46.4479443,56.65625 L46.8562897,56.9625298 L61.9631378,68.2934316 C63.5456876,69.479487 65.4200787,70.2014573 67.375,70.388699 L67.375,19.95505 C65.4200878,20.1422855 63.5457558,20.8642119 61.9636022,22.0499702 Z" id="Stroke-19" fill="#1B374D" fill-rule="nonzero"></path>
                            <polygon id="Stroke-21" fill="#1B374D" fill-rule="nonzero" points="44.40625 32.15625 47.46875 32.15625 47.46875 58.1875 44.40625 58.1875"></polygon>
                            <path d="M84.8102058,74.2934864 L82.4727317,72.3148198 C88.5085504,65.1844777 91.875,56.1819672 91.875,46.6558094 C91.875,36.9048688 88.3445954,27.7045253 82.044978,20.5043117 L84.3498345,18.4877446 C91.1329558,26.2405841 94.9375,36.1553438 94.9375,46.6558094 C94.9375,56.9138314 91.3096027,66.6155017 84.8102058,74.2934864 Z" id="Stroke-23" fill="#1B374D" fill-rule="nonzero"></path>
                            <path d="M74.6342927,24.4382982 L76.9864073,22.4770581 C82.6143934,29.2266999 85.7496938,37.7142132 85.7496938,46.6806156 C85.7496938,54.3344822 83.469007,61.6516343 79.2680538,67.8571781 L76.7320212,66.1403657 C80.5925878,60.4376324 82.6871938,53.7174855 82.6871938,46.6806156 C82.6871938,38.4379363 79.8076016,30.6426459 74.6342927,24.4382982 Z" id="Stroke-25" fill="#1B374D" fill-rule="nonzero"></path>
                            <path d="M11.0046,24.2427251 L8.37520626,22.6726312 C16.7039858,8.72464958 31.7423642,0.000459375 48.2911844,0.000459375 C56.4295972,0.000459375 64.2644236,2.09610174 71.1917321,6.0262824 L69.6805116,8.68994885 C63.2109537,5.01947116 55.8962848,3.06295937 48.2911844,3.06295937 C32.8315704,3.06295937 18.7862117,11.2110707 11.0046,24.2427251 Z" id="Stroke-27" fill="#D2D2D4" fill-rule="nonzero"></path>
                            <path d="M68.2026302,85.0329551 L69.6098698,87.7529887 C63.0756204,91.1335552 55.8114271,92.9222219 48.2910312,92.9222219 C30.8588951,92.9222219 15.1414618,83.2352835 7.16205572,68.0885419 L9.87156928,66.6611518 C17.3262755,80.8118927 32.0067293,89.8597219 48.2910312,89.8597219 C55.3188376,89.8597219 62.1008351,88.1897866 68.2026302,85.0329551 Z" id="Stroke-29" fill="#D2D2D4" fill-rule="nonzero"></path>
                            <mask id="mask-2" fill="white">
                                <use xlink:href="#path-1"></use>
                            </mask>
                            <g id="Clip-32"></g>
                            <path d="M0,53.5935969 L0,36.7498469 L9.1875,36.7498469 L9.1875,53.5935969 L0,53.5935969 Z M3.0625,50.5310969 L6.125,50.5310969 L6.125,39.8123469 L3.0625,39.8123469 L3.0625,50.5310969 Z" id="Stroke-31" fill="#1B374D" fill-rule="nonzero" mask="url(#mask-2)"></path>
                        </g>
                    </g>
                </g>
            </g>
        </g>
    </g>
</svg>