<?xml version="1.0" encoding="UTF-8"?>
<svg width="18px" height="18px" viewBox="0 0 18 18" version="1.1" xmlns="http://www.w3.org/2000/svg" xmlns:xlink="http://www.w3.org/1999/xlink">
    <!-- Generator: Sketch 51.3 (57544) - http://www.bohemiancoding.com/sketch -->
    <title>Shape</title>
    <desc>Created with Sketch.</desc>
    <defs></defs>
    <g id="Page-1-Copy" stroke="none" stroke-width="1" fill="none" fill-rule="evenodd">
        <g id="Desktop" transform="translate(-1000.000000, -51.000000)" fill="#FFFFFF" fill-rule="nonzero">
            <g id="NAV" transform="translate(150.000000, 27.000000)">
                <g id="Group-20-Copy" transform="translate(850.000000, 24.000000)">
                    <path d="M3.375,7.31250034 L2.8124999,7.31250034 C1.88052255,7.31250034 1.12499976,8.06802301 1.1249999,9 L1.1249999,11.25 C1.1249999,12.1819773 1.88052257,12.9375 2.8125,12.9375 L3.375,12.9375003 L3.375,7.31250034 Z M2.81249998,14.0625 C1.25920222,14.0624999 -9.83504833e-08,12.8032977 -9.83504833e-08,11.25 L-9.83504769e-08,9.00000008 C-3.32892462e-07,7.44670269 1.25920222,6.18750034 2.8124999,6.18750034 L3.37499988,6.18750034 C3.99632054,6.18750031 4.49999988,6.69117967 4.49999988,7.31250034 L4.49999988,12.9375003 C4.49999988,13.558821 3.99632056,14.0625004 3.37499988,14.0625004 L2.81249998,14.0625 Z M16.8749999,11.2500001 L16.8749999,9.00000008 C16.8749999,8.06802275 16.1194772,7.31250004 15.1875,7.31250008 L14.625,7.3125 L14.625,12.9375002 L15.1875,12.9375 C16.1194772,12.9375002 16.8749999,12.1819775 16.8749999,11.2500001 Z M14.625,14.0625 C14.0036793,14.0625 13.5,13.5588207 13.5,12.9375 L13.5,7.31250008 C13.4999999,6.70045289 13.9887563,6.20256153 14.5972595,6.18783541 C14.3151942,3.34518009 11.916873,1.12500046 9,1.12500093 C5.89339737,1.12500093 3.37499953,3.64339889 3.375,6.75000178 C3.37500005,7.06066196 3.12316026,7.31250182 2.81250008,7.31250187 C2.50183991,7.31250192 2.25000005,7.06066213 2.25,6.75000195 C2.24999944,3.02207862 5.27207699,9.3429e-07 8.99999991,9.34290007e-07 C12.5563436,3.54887802e-07 15.4703203,2.75029553 15.7310204,6.23997622 C17.0242227,6.49318336 17.9999999,7.63264202 17.9999999,9.00000008 L17.9999999,11.2500001 C17.9999999,12.6106609 17.0337581,13.7456492 15.7499999,14.0062397 L15.7499999,14.0625 C15.7499999,15.6157977 14.4907976,16.8750001 12.9375,16.875 L11.25,16.875 C10.9393398,16.875 10.6875,16.6231602 10.6875,16.3125 C10.6875,16.0018398 10.9393398,15.75 11.25,15.75 L12.9375,15.75 C13.8694772,15.75 14.6249999,14.9944773 14.6249999,14.0625 Z M10.6874999,16.3125002 C10.6874999,16.0018401 10.43566,15.7500002 10.125,15.7500002 L8.99999995,15.7500002 C8.68933986,15.7500002 8.4374999,16.0018401 8.43749995,16.3125 C8.43749995,16.6231601 8.68933987,16.875 9,16.875 L10.125,16.875 C10.43566,16.8750003 10.6874999,16.6231603 10.6874999,16.3125002 Z M8.99999998,18 C8.06801952,18 7.31249995,17.2444804 7.31249995,16.3125001 C7.31249981,15.3805198 8.06801953,14.6250002 8.99999995,14.6250002 L10.1249999,14.6250002 C11.0569803,14.6250001 11.8124999,15.3805197 11.8124999,16.3125002 C11.8124999,17.2444807 11.0569803,18.0000003 10.1249999,18.0000003 L8.99999998,18 Z" id="Shape"></path>
                </g>
            </g>
        </g>
    </g>
</svg>