<?xml version="1.0" encoding="UTF-8"?>
<svg width="166px" height="41px" viewBox="0 0 166 41" version="1.1" xmlns="http://www.w3.org/2000/svg" xmlns:xlink="http://www.w3.org/1999/xlink">
    <!-- Generator: Sketch 51.3 (57544) - http://www.bohemiancoding.com/sketch -->
    <title>Group</title>
    <desc>Created with Sketch.</desc>
    <defs></defs>
    <g id="Page-1-Copy" stroke="none" stroke-width="1" fill="none" fill-rule="evenodd">
        <g id="Mobile" transform="translate(-29.000000, -5260.000000)" fill="#FFFFFF">
            <g id="Group" transform="translate(29.000000, 5260.000000)">
                <path d="M0,40 L0,23 L10.8377997,23 C15.2016925,23 16.6163611,24.9761905 16.6163611,27.6190476 C16.6163611,29.8333333 15.393512,31.2142857 13.787024,31.7142857 L13.787024,31.7619048 C15.8251058,32.1904762 16.280677,33.952381 16.280677,36.3571429 C16.280677,37.1666667 16.3046544,39.0714286 17,40 L13.1156559,40 C12.8519041,39.5238095 12.6840621,38.6666667 12.6840621,37.4285714 C12.6840621,35 12.348378,33.2857143 9.71086037,33.2857143 L3.59661495,33.2857143 L3.59661495,40 L0,40 Z M3.59661495,30.6190476 L9.8067701,30.6190476 C11.796897,30.6190476 12.8758815,30.0238095 12.8758815,28.1190476 C12.8758815,26.3571429 11.7009873,25.6666667 9.8067701,25.6666667 L3.59661495,25.6666667 L3.59661495,30.6190476 Z" id="Path"></path>
                <polygon id="Path" points="20 40 20 23 34.8089172 23 34.8089172 25.6666667 23.5828025 25.6666667 23.5828025 29.952381 34.3550955 29.952381 34.3550955 32.6190476 23.5828025 32.6190476 23.5828025 37.3333333 35 37.3333333 35 40"></polygon>
                <path d="M43.4189717,22.8859108 L43.1728178,22.8405687 C39.9893627,21.8485308 37.1332463,20.1474882 34.8872223,17.9133649 C31.2691574,14.3133649 29.6947685,9.87696682 30.3343937,5.08398104 C29.2719718,4.42123223 28.7781057,3.20265403 29.0945839,2.02881517 C29.4163972,0.834312796 30.5077804,0 31.7491145,0 C31.9889978,0 32.2290716,0.0316587678 32.4628578,0.094028436 C33.1725998,0.283222749 33.7659251,0.735924171 34.1332762,1.36890995 C34.5006273,2.00170616 34.5981811,2.73895735 34.4078368,3.44492891 C34.1532824,4.38995261 33.3947634,5.13004739 32.428371,5.37668246 C31.8817267,9.51753555 33.2507191,13.3357346 36.3695829,16.4384834 C39.6082931,19.6608531 44.5111341,21.6625592 49.1647556,21.6625592 C50.5125986,21.6625592 51.8116648,21.4980095 53.0257524,21.1736493 C55.823184,20.4278673 59.5873892,18.4672986 61.6322084,13.362654 C60.7022082,12.6610427 60.2971312,11.5192417 60.591698,10.4259716 C60.9133207,9.23127962 62.0048945,8.39696682 63.2462286,8.39696682 C63.4861119,8.39696682 63.7263762,8.42862559 63.9603529,8.49099526 C64.6699044,8.68037915 65.2630392,9.13308057 65.6303903,9.76606635 C65.9977413,10.3990521 66.0952951,11.1364929 65.9049509,11.8424645 C65.6294376,12.8650237 64.7686015,13.6432227 63.7120861,13.8246445 C61.8320794,18.6856872 58.3306218,21.9182938 53.5682049,23.1878673 C52.1496735,23.5666351 50.6452108,23.758673 49.0963536,23.758673 C48.810671,23.758673 48.5069339,23.7502646 48.1734908,23.73303 L55.4551827,40 L51.4141305,40 L49.5992868,35.7385782 L41.4687866,35.7385782 L39.6781407,40 L35.7580781,40 L43.4189717,22.8859108 Z M42.5576929,33.0420853 L48.5103805,33.0420853 L45.5582346,25.7952607 L42.5576929,33.0420853 Z" id="Path"></path>
                <path d="M51.811294,12.9226551 C51.0259536,15.8565136 48.0099377,17.5971998 45.0768118,16.8113087 C42.1433182,16.0254177 40.4028142,13.0103235 41.188706,10.0768325 C41.9745978,7.14297399 44.9900623,5.40283915 47.9231882,6.18873021 C50.8566818,6.97462128 52.5971858,9.9897155 51.811294,12.9226551" id="Fill-22"></path>
                <path d="M75,29.7798408 L71.0988593,29.7798408 C70.7376426,27.2015915 68.5944233,25.6737401 65.5602028,25.6737401 C62.2370089,25.6737401 59.756654,27.8700265 59.756654,32.3103448 C59.756654,35.867374 62.2370089,38.3262599 65.8010139,38.3262599 C69.5576679,38.3262599 70.8098859,35.795756 71.0988593,34.005305 L75,34.005305 C74.4942966,37.3952255 72.2547529,41 65.1749049,41 C58.9619772,41 56,36.7984085 56,32 C56,27.2015915 58.8415716,23 65.608365,23 C71.5323194,23 74.6147022,26.1034483 75,29.7798408 Z" id="Path"></path>
                <polygon id="Path" points="78 40 78 23 81.6339166 23 81.6339166 29.6190476 92.3660834 29.6190476 92.3660834 23 96 23 96 40 92.3660834 40 92.3660834 32.2857143 81.6339166 32.2857143 81.6339166 40"></polygon>
                <polygon id="Path" points="99 40 99 23 104.12069 23 110.047414 36.1904762 115.926724 23 121 23 121 40 117.657328 40 117.799569 25.952381 117.752155 25.952381 111.493534 40 108.459052 40 102.247845 25.952381 102.200431 25.952381 102.342672 40"></polygon>
                <path d="M123,40 L130.813268,23 L135.186732,23 L143,40 L138.896806,40 L137.054054,35.7857143 L128.798526,35.7857143 L126.980344,40 L123,40 Z M129.904177,33.1190476 L135.948403,33.1190476 L132.95086,25.952381 L129.904177,33.1190476 Z" id="Path"></path>
                <polygon id="Path" points="145 40 145 23 149 23 149 40"></polygon>
                <polygon id="Path" points="152 40 152 23 155.59589 23 155.59589 37.1904762 166 37.1904762 166 40"></polygon>
            </g>
        </g>
    </g>
</svg>