<?xml version="1.0" encoding="UTF-8"?>
<svg width="130px" height="33px" viewBox="0 0 130 33" version="1.1" xmlns="http://www.w3.org/2000/svg" xmlns:xlink="http://www.w3.org/1999/xlink">
    <!-- Generator: Sketch 51.3 (57544) - http://www.bohemiancoding.com/sketch -->
    <title>Logo</title>
    <desc>Created with Sketch.</desc>
    <defs></defs>
    <g id="Page-1-Copy" stroke="none" stroke-width="1" fill="none" fill-rule="evenodd">
        <g id="Mobile" transform="translate(-15.000000, -19.000000)">
            <g id="Logo" transform="translate(15.000000, 19.000000)">
                <g id="Group">
                    <path d="M0,33 L0,17.3521127 L6.84084789,17.3521127 C7.55253201,17.3521127 8.20974066,17.5027129 8.81249354,17.8039179 C9.41524642,18.1051228 9.93447756,18.5018259 10.3702025,18.9940389 C10.8059275,19.4862519 11.1472403,20.0445747 11.3941511,20.669024 C11.6410619,21.2934733 11.7645155,21.9215865 11.7645155,22.5533823 C11.7645155,23.5671941 11.5139774,24.4891614 11.0128937,25.3193116 C10.5118099,26.1494619 9.83281537,26.7481897 8.97588959,27.1155128 L12.5052442,33 L9.12839257,33 L5.9694023,27.7546519 L3.00648729,27.7546519 L3.00648729,33 L0,33 Z M3.00648729,25.0878992 L6.77548947,25.0878992 C7.05144862,25.0878992 7.3092487,25.0217821 7.54889743,24.8895457 C7.78854617,24.7573094 7.99551243,24.5773238 8.16980242,24.3495834 C8.34409241,24.1218431 8.48206991,23.8537012 8.58373907,23.5451498 C8.68540823,23.2365983 8.73624205,22.9060125 8.73624205,22.5533823 C8.73624205,22.1860591 8.67814626,21.8481269 8.56195293,21.5395755 C8.44575961,21.231024 8.28962717,20.9628822 8.09355093,20.7351418 C7.89747469,20.5074015 7.6723535,20.331089 7.41818059,20.2061992 C7.16400769,20.0813093 6.90620762,20.0188653 6.64477263,20.0188653 L3.00648729,20.0188653 L3.00648729,25.0878992 Z" id="Path" fill="#FFFFFF"></path>
                    <polygon id="Path" fill="#FFFFFF" points="26.0911886 30.3332474 26.0911886 33 15.2841874 33 15.2841874 17.3521127 25.8939005 17.3521127 25.8939005 20.0188653 18.3092709 20.0188653 18.3092709 23.7875818 24.8636185 23.7875818 24.8636185 26.255981 18.3092709 26.255981 18.3092709 30.3332474"></polygon>
                    <path d="M33.5669043,17.3521127 L36.237335,17.3521127 L42.1473046,33 L39.0390984,33 L37.5944391,29.0990478 L32.1660226,29.0990478 L30.7432521,33 L27.6350459,33 L33.5669043,17.3521127 Z M37.0472197,26.9612378 L34.9021197,20.8122793 L32.6694645,26.9612378 L37.0472197,26.9612378 Z" id="Path" fill="#F7961D"></path>
                    <path d="M43.2280048,24.8119718 C43.2280048,23.8608716 43.3991382,22.9207597 43.7414101,21.991608 C44.0836821,21.0624562 44.5825178,20.232085 45.2379322,19.5004695 C45.8933466,18.7688539 46.6943966,18.1762542 47.6411063,17.7226526 C48.587816,17.2690509 49.6655924,17.0422535 50.8744679,17.0422535 C52.3018148,17.0422535 53.53616,17.3568435 54.5775407,17.9860329 C55.6189214,18.6152222 56.3944834,19.4346194 56.9042502,20.4442488 L54.5884642,22.0464789 C54.3845575,21.6075095 54.1369602,21.2380492 53.8456649,20.9380869 C53.5543697,20.6381245 53.2412319,20.400353 52.9062423,20.2247653 C52.5712528,20.0491775 52.2217037,19.9211467 51.8575845,19.840669 C51.4934654,19.7601913 51.1366341,19.7199531 50.7870797,19.7199531 C50.029712,19.7199531 49.3706662,19.87359 48.8099228,20.1808685 C48.2491794,20.4881471 47.7831139,20.8868716 47.4117124,21.377054 C47.0403109,21.8672364 46.7599434,22.4232559 46.5706015,23.0451291 C46.3812595,23.6670023 46.28659,24.2852082 46.28659,24.8997653 C46.28659,25.5874839 46.3958241,26.249586 46.6142956,26.8860915 C46.832767,27.5225971 47.1422636,28.0822746 47.5427946,28.5651408 C47.9433257,29.0480071 48.4239557,29.4357575 48.9846991,29.7284038 C49.5454425,30.02105 50.1607946,30.1673709 50.8307738,30.1673709 C51.1803281,30.1673709 51.5444418,30.1234746 51.9231257,30.0356808 C52.3018095,29.9478869 52.662282,29.808882 53.004554,29.618662 C53.346826,29.4284419 53.6636048,29.1833544 53.9549001,28.883392 C54.2461954,28.5834296 54.4792282,28.2212854 54.6540053,27.7969484 L57.1227206,29.2235915 C56.8751196,29.808884 56.5219293,30.3246652 56.0631392,30.7709507 C55.6043492,31.2172362 55.0873078,31.5940125 54.5119996,31.9012911 C53.9366914,32.2085696 53.3213393,32.4426831 52.6659249,32.6036385 C52.0105105,32.7645939 51.3696705,32.8450704 50.7433856,32.8450704 C49.6364635,32.8450704 48.6242276,32.610957 47.7066474,32.142723 C46.7890673,31.6744891 45.9989406,31.0635992 45.3362439,30.3100352 C44.6735471,29.5564712 44.1565057,28.7004938 43.7851042,27.7420775 C43.4137027,26.7836611 43.2280048,25.806969 43.2280048,24.8119718 Z" id="Path" fill="#FFFFFF"></path>
                    <polygon id="Path" fill="#FFFFFF" points="73.0244509 17.3521127 73.0244509 33 70.013024 33 70.013024 26.3220988 62.9350718 26.3220988 62.9350718 33 59.9016637 33 59.9016637 17.3521127 62.9350718 17.3521127 62.9350718 23.6773854 70.013024 23.6773854 70.013024 17.3521127"></polygon>
                    <polygon id="Path" fill="#F7961D" points="89.7549548 33 89.7549548 22.6415394 85.7357581 30.3552866 84.0885463 30.3552866 80.0693496 22.6415394 80.0693496 33 77.0384799 33 77.0384799 17.3521127 80.2889778 17.3521127 84.9011708 26.255981 89.5572894 17.3521127 92.7858245 17.3521127 92.7858245 33"></polygon>
                    <path d="M101.033469,17.3521127 L103.7039,17.3521127 L109.613869,33 L106.505663,33 L105.061004,29.0990478 L99.6325872,29.0990478 L98.2098167,33 L95.1016105,33 L101.033469,17.3521127 Z M104.513784,26.9612378 L102.368684,20.8122793 L100.136029,26.9612378 L104.513784,26.9612378 Z" id="Path" fill="#F7961D"></path>
                    <polygon id="Path" fill="#F7961D" points="112.084041 33 112.084041 17.3521127 115.171756 17.3521127 115.171756 33"></polygon>
                    <polygon id="Path" fill="#F7961D" points="119.031399 33 119.031399 17.3521127 122.056742 17.3521127 122.056742 30.3332474 129.992786 30.3332474 129.992786 33"></polygon>
                    <path d="M40.298097,10.6128732 C39.6698257,13.0095463 37.2570166,14.4315153 34.9105194,13.7895198 C32.5637281,13.1475243 31.171327,10.6844896 31.8000395,8.2881167 C32.4287519,5.89144354 34.8411199,4.46992494 37.1876171,5.11192046 C39.5344084,5.75391597 40.9268095,8.21695069 40.298097,10.6128732" id="Fill-22" fill="#DB162F"></path>
                    <path d="M33.4190494,18.2746047 C30.9483659,17.4918498 28.2349964,15.8971194 26.4918544,14.1343129 C23.6838697,11.2937786 22.4619845,7.79329511 22.9583985,4.01145061 C22.1338515,3.48851708 21.7505614,2.52701345 21.9961805,1.60081081 C22.2459402,0.658303905 23.0929641,0 24.056365,0 C24.2425387,0 24.4288603,0.0249799482 24.6103021,0.074191942 C25.1611338,0.223473309 25.6216143,0.580671611 25.9067159,1.080121 C26.1918175,1.5794208 26.2675291,2.16113947 26.1198027,2.71817736 C25.9222427,3.46383629 25.3335552,4.04779868 24.5835368,4.24240294 C24.1592855,7.50969042 25.2217622,10.5223918 27.6423163,12.9705764 C30.1558833,15.5131462 33.9609843,17.092567 37.5726657,17.092567 C38.6187284,17.092567 39.6269352,16.9627311 40.5691901,16.7067988 C42.7402803,16.118349 45.6616846,14.5713872 47.2486714,10.5436323 C46.526897,9.99003475 46.2125163,9.08911122 46.4411299,8.22648032 C46.6907417,7.28382383 47.5379135,6.62551992 48.5013144,6.62551992 C48.6874881,6.62551992 48.8739576,6.65049987 49.0555472,6.69971186 C49.606231,6.84914281 50.0665637,7.20634111 50.3516653,7.7057905 C50.6367669,8.20523988 50.7124785,8.78710814 50.5647521,9.34414602 C50.3509259,10.1509834 49.6828299,10.7650115 48.862867,10.90816 C47.4037915,14.7437039 44.6863059,17.2943511 40.9901882,18.2960919 C39.8892642,18.5949538 38.7216489,18.7464789 37.5195789,18.7464789 C37.2491168,18.7464789 36.9578045,18.7366066 36.6292278,18.7162636 L33.4190494,18.2746047 Z" id="Path" fill="#F7961D"></path>
                </g>
            </g>
        </g>
    </g>
</svg>