<?xml version="1.0" encoding="UTF-8"?>
<svg width="28px" height="32px" viewBox="0 0 28 32" version="1.1" xmlns="http://www.w3.org/2000/svg" xmlns:xlink="http://www.w3.org/1999/xlink">
    <!-- Generator: Sketch 51.3 (57544) - http://www.bohemiancoding.com/sketch -->
    <title>startup-launch</title>
    <desc>Created with Sketch.</desc>
    <defs></defs>
    <g id="Page-1-Copy" stroke="none" stroke-width="1" fill="none" fill-rule="evenodd">
        <g id="Desktop" transform="translate(-246.000000, -120.000000)" fill="#FFFFFF" fill-rule="nonzero">
            <g id="SOLUTIONS" transform="translate(214.000000, 81.000000)">
                <g id="startup-launch" transform="translate(32.000000, 39.000000)">
                    <path d="M10.0330435,15.3043478 C9.64884539,15.3043478 9.3373913,14.9928937 9.3373913,14.6086957 C9.3373913,14.2244976 9.64884539,13.9130435 10.0330435,13.9130435 L18.5756522,13.9130435 C18.9598503,13.9130435 19.2713043,14.2244976 19.2713043,14.6086957 C19.2713043,14.9928937 18.9598503,15.3043478 18.5756522,15.3043478 L10.0330435,15.3043478 Z" id="Shape"></path>
                    <path d="M14.353252,28.3690085 C14.6530789,28.1691239 14.9529603,27.941214 15.2302854,27.6916215 C15.9675267,27.0281043 16.3913043,26.35006 16.3913043,25.7391304 C16.3913043,24.6984486 15.6539015,24.3478261 14.3043478,24.3478261 C12.9547942,24.3478261 12.2173913,24.6984486 12.2173913,25.7391304 C12.2173913,26.35006 12.641169,27.0281043 13.3784102,27.6916215 C13.6557353,27.941214 13.9556167,28.1691239 14.2554436,28.3690085 C14.2721254,28.3801297 14.2884329,28.3909221 14.3043478,28.4013818 C14.3202628,28.3909221 14.3365703,28.3801297 14.353252,28.3690085 Z M17.7826087,25.7391304 C17.7826087,26.8325486 17.1629081,27.8240696 16.1610189,28.7257698 C15.8296484,29.0240034 15.4773559,29.2917457 15.1250088,29.5266437 C14.9118558,29.6687457 14.7429754,29.770074 14.6395957,29.8269328 C14.4308425,29.941747 14.1778531,29.941747 13.9691,29.8269328 C13.8657203,29.770074 13.6968398,29.6687457 13.4836868,29.5266437 C13.1313398,29.2917457 12.7790473,29.0240034 12.4476767,28.7257698 C11.4457876,27.8240696 10.826087,26.8325486 10.826087,25.7391304 C10.826087,23.6480338 12.2804232,22.9565217 14.3043478,22.9565217 C16.3282725,22.9565217 17.7826087,23.6480338 17.7826087,25.7391304 Z" id="Shape"></path>
                    <path d="M15,2.08695652 C15,2.47115461 14.6885459,2.7826087 14.3043478,2.7826087 C13.9201497,2.7826087 13.6086957,2.47115461 13.6086957,2.08695652 L13.6086957,0.695652174 C13.6086957,0.311454087 13.9201497,0 14.3043478,0 C14.6885459,0 15,0.311454087 15,0.695652174 L15,2.08695652 Z" id="Shape"></path>
                    <path d="M20.5417289,9.91837379 L17.7591202,20.3531564 C17.6779138,20.6576805 17.4021225,20.869565 17.0869568,20.869565 L11.5217394,20.869565 C11.2065737,20.869565 10.9307824,20.6576805 10.849576,20.3531564 L8.06294414,9.90254277 C7.62755523,8.10094245 8.25826144,6.20882955 9.68508911,5.03080259 L13.8590022,1.55254172 C14.1169819,1.33755856 14.4917137,1.33755856 14.7496935,1.55254172 L18.9223311,5.02973975 C20.3507753,6.20985822 20.981016,8.10143247 20.5417289,9.91837379 Z M19.1933784,9.57571994 C19.5037233,8.29152138 19.0541524,6.94280938 18.0353576,6.10165734 L14.3043472,2.99249221 L10.5733381,6.1016581 C9.5545414,6.94281048 9.10496892,8.29152387 9.41129415,9.55988662 L12.0561939,19.4782606 L16.5525122,19.4782606 L19.1933784,9.57571994 Z" id="Shape"></path>
                    <path d="M9.71744131,13.990897 C10.0586421,13.8142895 10.4784086,13.9477188 10.6550161,14.2889196 C10.8316235,14.6301204 10.6981943,15.0498869 10.3569935,15.2264943 L9.17147846,15.8401236 C8.47870485,16.1985312 8.04361383,16.9133522 8.04347819,17.6932174 L8.04347811,21.6567039 L11.1358573,19.5950931 C11.4555292,19.381978 11.8874384,19.4683594 12.1005535,19.7880313 C12.3136686,20.1077032 12.2272872,20.5396124 11.9076153,20.7527275 L8.81422718,22.8149906 C8.5860843,22.9667991 8.31819183,23.0478548 8.04415775,23.0479886 C7.27576798,23.0483642 6.65254905,22.4257652 6.65217385,21.6570435 L6.65217386,17.6930964 C6.65239994,16.393111 7.37755054,15.2017446 8.53205001,14.6044622 L9.71744131,13.990897 Z" id="Shape"></path>
                    <path d="M18.2517022,15.2264943 C17.9105014,15.0498869 17.7770721,14.6301204 17.9536796,14.2889196 C18.130287,13.9477188 18.5500535,13.8142895 18.8912543,13.990897 L20.0765219,14.6043982 C21.2311452,15.2017446 21.9562958,16.393111 21.9565219,17.6932175 L21.9565218,21.6573832 C21.9561466,22.4257653 21.3329278,23.0483643 20.5645384,23.0479887 C20.2905039,23.0478548 20.0226114,22.9667992 19.7939639,22.8146546 L16.7010805,20.7527276 C16.3814086,20.5396125 16.2950272,20.1077033 16.5081423,19.7880314 C16.7212574,19.4683595 17.1531665,19.3819781 17.4728385,19.5950932 L20.5652182,21.6566845 L20.5652175,17.6933385 C20.5650819,16.9133522 20.1299909,16.1985313 19.4370935,15.8400595 L18.2517022,15.2264943 Z" id="Shape"></path>
                    <path d="M16.2720047,11.0110795 C15.1853293,12.0977549 13.4234851,12.0977549 12.3368022,11.0110795 C11.2501268,9.9244041 11.2501268,8.16255984 12.3368022,7.07587702 C13.4234776,5.98920162 15.1853219,5.98920162 16.272003,7.07587533 C17.3586801,8.16255242 17.3586801,9.92439668 16.2720047,11.0110795 Z M13.3206047,8.05967608 C12.7772652,8.60301929 12.7772652,9.48394094 13.3206013,10.0272771 C13.8639445,10.5706166 14.7448662,10.5706166 15.2882023,10.0272804 C15.8315418,9.48393723 15.8315418,8.60301558 15.288204,8.05967776 C14.7448606,7.51633994 13.8639402,7.5163405 13.3206047,8.05967608 Z" id="Shape"></path>
                    <path d="M4.56521739,27.1304348 C4.56521739,25.4621688 6.22287692,24.3478261 8.04347826,24.3478261 C8.42767635,24.3478261 8.73913043,24.6592802 8.73913043,25.0434783 C8.73913043,25.4276763 8.42767635,25.7391304 8.04347826,25.7391304 C6.90150491,25.7391304 5.95652174,26.3743846 5.95652174,27.1304348 C5.95564028,27.2182188 5.95564028,27.2182188 5.95333061,27.34697 C5.95220339,27.4153484 5.95220339,27.4153484 5.95127453,27.4859405 C5.94966618,27.6213396 5.95087734,27.7375814 5.95041941,27.734147 C6.00602372,28.1511793 5.68159252,28.5217391 5.26086957,28.5217391 L4.54729552,28.5215082 C3.05864294,28.4831438 1.82074395,29.6588411 1.78237798,31.1474939 C1.78118471,31.1937964 1.78118471,31.2401217 1.78237796,31.286423 C1.79227604,31.6704936 1.4889493,31.9898682 1.10487873,31.9997663 C0.72080817,32.0096644 0.401433489,31.7063377 0.391535417,31.3222671 C0.389726429,31.2520737 0.389726436,31.1818447 0.39153544,31.1116496 C0.449698158,28.8548556 2.32634586,27.0725053 4.56521739,27.1304348 Z" id="Shape"></path>
                    <path d="M27.5215082,31.1116504 C27.5233171,31.1818445 27.5233171,31.2520735 27.5215082,31.322267 C27.5116101,31.7063376 27.1922355,32.0096643 26.8081649,31.9997663 C26.4240944,31.9898683 26.1207676,31.6704937 26.1306656,31.2864231 C26.1318589,31.2401215 26.1318589,31.1937962 26.1306656,31.1474948 C26.0922996,29.6588411 24.8544006,28.4831438 23.3478261,28.5217391 L22.6521739,28.5217391 C22.231451,28.5217391 21.9070198,28.1511793 21.9626241,27.734147 C21.9621661,27.7375814 21.9633773,27.6213396 21.961769,27.4859405 C21.9608401,27.4153484 21.9608401,27.4153484 21.9597129,27.34697 C21.9574032,27.2182188 21.9574032,27.2182188 21.9565217,27.1304348 C21.9565217,26.3743846 21.0115386,25.7391304 19.8695652,25.7391304 C19.4853671,25.7391304 19.173913,25.4276763 19.173913,25.0434783 C19.173913,24.6592802 19.4853671,24.3478261 19.8695652,24.3478261 C21.6900965,24.3478261 23.3476986,25.4620831 23.3478261,27.1302423 C25.5966247,27.081949 27.4634995,28.8608323 27.5215082,31.1116504 Z" id="Shape"></path>
                </g>
            </g>
        </g>
    </g>
</svg>