<?xml version="1.0" encoding="UTF-8"?>
<svg width="32px" height="18px" viewBox="0 0 32 18" version="1.1" xmlns="http://www.w3.org/2000/svg" xmlns:xlink="http://www.w3.org/1999/xlink">
    <!-- Generator: Sketch 51.3 (57544) - http://www.bohemiancoding.com/sketch -->
    <title>send-email-envelope</title>
    <desc>Created with Sketch.</desc>
    <defs></defs>
    <g id="Page-1-Copy" stroke="none" stroke-width="1" fill="none" fill-rule="evenodd">
        <g id="Desktop" transform="translate(-244.000000, -360.000000)" fill="#FFFFFF" fill-rule="nonzero">
            <g id="SOLUTIONS" transform="translate(214.000000, 81.000000)">
                <g id="send-email-envelope" transform="translate(30.000000, 279.000000)">
                    <path d="M27.8801361,16.1333334 L30.6521362,2.79999957 C30.6610575,2.75629455 30.6655698,2.7118042 30.6656053,2.66719813 C30.665898,2.29900208 30.3676595,2.00028751 29.9999998,1.99999471 L10.7245304,1.9999945 C10.4079353,2.0002465 10.1351828,2.22312915 10.0713244,2.5359435 L7.29453009,15.8666628 C7.28560884,15.9103674 7.28109652,15.9548575 7.28106102,15.9994634 C7.28076835,16.3676595 7.57900677,16.666374 7.94666663,16.6666668 L27.2274693,16.6666671 C27.5440645,16.6664151 27.816817,16.4435324 27.8801361,16.1333334 Z M27.228,18.0000002 L7.94613604,18 C6.84156536,17.9991209 5.94685011,17.1029772 5.9477281,15.9984029 C5.94783461,15.8645822 5.96137176,15.7311101 5.98867514,15.5973795 L8.76546915,2.26666159 C8.95542623,1.33606519 9.77368338,0.66741759 10.7239998,0.666661379 L30.0005303,0.666661591 C31.1051009,0.667540605 31.9998162,1.56368434 31.9989382,2.66825858 C31.9988317,2.80207899 31.9852946,2.93555077 31.9580434,3.0690318 L29.1862647,16.4013005 C28.995811,17.3312193 28.1778736,17.9992443 27.228,18.0000002 Z" id="Shape"></path>
                    <path d="M9.41412189,2.06961706 C9.1635961,1.79980123 9.17923377,1.37798101 9.4490496,1.12745522 C9.71886543,0.876929432 10.1406857,0.892567103 10.3912114,1.16238294 L17.213821,8.51032146 C17.8934824,9.24213083 19.008831,9.36036733 19.8270476,8.7871627 L30.6203809,1.23249603 C30.9220225,1.02136553 31.3377065,1.09473929 31.548837,1.39638091 C31.7599675,1.69802252 31.6865937,2.11370646 31.3849521,2.32483696 L20.5918443,9.87934568 C19.2285294,10.8344211 17.3696139,10.6373602 16.2367886,9.41761706 L9.41412189,2.06961706 Z" id="Shape"></path>
                    <path d="M0.666666667,3.33333333 C0.298476833,3.33333333 0,3.0348565 0,2.66666667 C0,2.29847683 0.298476833,2 0.666666667,2 L6,2 C6.36818983,2 6.66666667,2.29847683 6.66666667,2.66666667 C6.66666667,3.0348565 6.36818983,3.33333333 6,3.33333333 L0.666666667,3.33333333 Z" id="Shape"></path>
                    <path d="M0.666666667,7.33333333 C0.298476833,7.33333333 0,7.0348565 0,6.66666667 C0,6.29847683 0.298476833,6 0.666666667,6 L4.66666667,6 C5.0348565,6 5.33333333,6.29847683 5.33333333,6.66666667 C5.33333333,7.0348565 5.0348565,7.33333333 4.66666667,7.33333333 L0.666666667,7.33333333 Z" id="Shape"></path>
                    <path d="M0.666666667,11.3333333 C0.298476833,11.3333333 0,11.0348565 0,10.6666667 C0,10.2984768 0.298476833,10 0.666666667,10 L3.33333333,10 C3.70152317,10 4,10.2984768 4,10.6666667 C4,11.0348565 3.70152317,11.3333333 3.33333333,11.3333333 L0.666666667,11.3333333 Z" id="Shape"></path>
                </g>
            </g>
        </g>
    </g>
</svg>