<?xml version="1.0" encoding="UTF-8"?>
<svg width="32px" height="32px" viewBox="0 0 32 32" version="1.1" xmlns="http://www.w3.org/2000/svg" xmlns:xlink="http://www.w3.org/1999/xlink">
    <!-- Generator: Sketch 51.3 (57544) - http://www.bohemiancoding.com/sketch -->
    <title>buildings-2</title>
    <desc>Created with Sketch.</desc>
    <defs></defs>
    <g id="Page-1-Copy" stroke="none" stroke-width="1" fill="none" fill-rule="evenodd">
        <g id="Desktop" transform="translate(-245.000000, -193.000000)" fill="#FFFFFF" fill-rule="nonzero">
            <g id="SOLUTIONS" transform="translate(214.000000, 81.000000)">
                <g id="buildings-2" transform="translate(31.000000, 112.000000)">
                    <path d="M0.666666667,32 C0.298476833,32 0,31.7015232 0,31.3333333 C0,30.9651435 0.298476833,30.6666667 0.666666667,30.6666667 L31.3333333,30.6666667 C31.7015232,30.6666667 32,30.9651435 32,31.3333333 C32,31.7015232 31.7015232,32 31.3333333,32 L0.666666667,32 Z" id="Shape"></path>
                    <path d="M10.6666667,31.3333335 C10.6666667,31.7015234 10.3681898,32.0000002 10,32.0000002 C9.63181017,32.0000002 9.33333333,31.7015234 9.33333333,31.3333335 L9.33333333,7.33333343 C9.33333317,6.22876372 10.2287635,5.33333353 11.3333333,5.33333353 L20.6666666,5.33333353 C21.7712364,5.33333349 22.6666666,6.2287637 22.6666666,7.33333353 L22.6666666,31.3333335 C22.6666666,31.7015234 22.3681898,32.0000002 21.9999999,32.0000002 C21.6318101,32.0000002 21.3333333,31.7015234 21.3333333,31.3333335 L21.3333333,7.33333353 C21.3333333,6.96514336 21.0348568,6.66666685 20.6666667,6.66666687 L11.3333333,6.66666687 C10.9651432,6.66666687 10.6666666,6.96514336 10.6666667,7.33333333 L10.6666667,31.3333335 Z" id="Shape"></path>
                    <path d="M30.6666667,31.3333333 C30.6666667,31.7015232 30.3681898,32 30,32 C29.6318102,32 29.3333333,31.7015232 29.3333333,31.3333333 L29.3333333,18.6666667 L25.3333333,18.6666667 L25.3333333,31.3333333 C25.3333333,31.7015232 25.0348565,32 24.6666666,32 C24.2984768,32 24,31.7015232 24,31.3333333 L24,18.6666667 C24,17.9302875 24.5969541,17.3333334 25.3333333,17.3333333 L29.3333333,17.3333333 C30.0697125,17.3333333 30.6666667,17.9302875 30.6666667,18.6666667 L30.6666667,31.3333333 Z" id="Shape"></path>
                    <path d="M8,31.3333333 C8,31.7015232 7.70152317,32 7.33333333,32 C6.9651435,32 6.66666667,31.7015232 6.66666667,31.3333333 L6.66666667,18.6666667 L2.66666664,18.6666667 L2.66666664,31.3333333 C2.66666664,31.7015232 2.3681898,32 1.99999997,32 C1.63181014,32 1.3333333,31.7015232 1.3333333,31.3333333 L1.3333333,18.6666667 C1.3333333,17.9302875 1.93028747,17.3333334 2.66666667,17.3333333 L6.66666667,17.3333333 C7.40304583,17.3333333 8,17.9302875 8,18.6666667 L8,31.3333333 Z" id="Shape"></path>
                    <path d="M6.66666667,18 C6.66666667,18.3681898 6.36818983,18.6666667 6,18.6666667 C5.63181017,18.6666667 5.33333333,18.3681898 5.33333333,18 L5.33333333,16.6666667 C5.33333333,16.2984768 5.63181017,16 6,16 C6.36818983,16 6.66666667,16.2984768 6.66666667,16.6666667 L6.66666667,18 Z" id="Shape"></path>
                    <path d="M26.6666667,18 C26.6666667,18.3681898 26.3681898,18.6666667 26,18.6666667 C25.6318102,18.6666667 25.3333333,18.3681898 25.3333333,18 L25.3333333,16.6666667 C25.3333333,16.2984768 25.6318102,16 26,16 C26.3681898,16 26.6666667,16.2984768 26.6666667,16.6666667 L26.6666667,18 Z" id="Shape"></path>
                    <path d="M18.6666667,6 C18.6666667,6.36818983 18.3681898,6.66666667 18,6.66666667 C17.6318102,6.66666667 17.3333333,6.36818983 17.3333333,6 L17.3333333,4 L14.6666666,4 L14.6666666,6 C14.6666666,6.36818983 14.3681898,6.66666667 14,6.66666667 C13.6318101,6.66666667 13.3333333,6.36818983 13.3333333,6 L13.3333333,4 C13.3333333,3.26362083 13.9302875,2.6666667 14.6666667,2.66666667 L17.3333333,2.66666667 C18.0697125,2.66666667 18.6666667,3.26362083 18.6666667,4 L18.6666667,6 Z" id="Shape"></path>
                    <path d="M17.3333333,3.33333333 C17.3333333,3.70152317 17.0348565,4 16.6666667,4 C16.2984768,4 16,3.70152317 16,3.33333333 L16,0.666666667 C16,0.298476833 16.2984768,0 16.6666667,0 C17.0348565,0 17.3333333,0.298476833 17.3333333,0.666666667 L17.3333333,3.33333333 Z" id="Shape"></path>
                    <path d="M12.6666667,10.6666667 C12.2984768,10.6666667 12,10.3681898 12,10 C12,9.63181017 12.2984768,9.33333333 12.6666667,9.33333333 L19.3333333,9.33333333 C19.7015232,9.33333333 20,9.63181017 20,10 C20,10.3681898 19.7015232,10.6666667 19.3333333,10.6666667 L12.6666667,10.6666667 Z" id="Shape"></path>
                    <path d="M12.6666667,14.6666667 C12.2984768,14.6666667 12,14.3681898 12,14 C12,13.6318102 12.2984768,13.3333333 12.6666667,13.3333333 L19.3333333,13.3333333 C19.7015232,13.3333333 20,13.6318102 20,14 C20,14.3681898 19.7015232,14.6666667 19.3333333,14.6666667 L12.6666667,14.6666667 Z" id="Shape"></path>
                    <path d="M12.6666667,18.6666667 C12.2984768,18.6666667 12,18.3681898 12,18 C12,17.6318102 12.2984768,17.3333333 12.6666667,17.3333333 L19.3333333,17.3333333 C19.7015232,17.3333333 20,17.6318102 20,18 C20,18.3681898 19.7015232,18.6666667 19.3333333,18.6666667 L12.6666667,18.6666667 Z" id="Shape"></path>
                    <path d="M12.6666667,22.6666667 C12.2984768,22.6666667 12,22.3681898 12,22 C12,21.6318102 12.2984768,21.3333333 12.6666667,21.3333333 L19.3333333,21.3333333 C19.7015232,21.3333333 20,21.6318102 20,22 C20,22.3681898 19.7015232,22.6666667 19.3333333,22.6666667 L12.6666667,22.6666667 Z" id="Shape"></path>
                    <path d="M12.6666667,26.6666667 C12.2984768,26.6666667 12,26.3681898 12,26 C12,25.6318102 12.2984768,25.3333333 12.6666667,25.3333333 L19.3333333,25.3333333 C19.7015232,25.3333333 20,25.6318102 20,26 C20,26.3681898 19.7015232,26.6666667 19.3333333,26.6666667 L12.6666667,26.6666667 Z" id="Shape"></path>
                </g>
            </g>
        </g>
    </g>
</svg>