<?xml version="1.0" encoding="UTF-8"?>
<svg width="32px" height="32px" viewBox="0 0 32 32" version="1.1" xmlns="http://www.w3.org/2000/svg" xmlns:xlink="http://www.w3.org/1999/xlink">
    <!-- Generator: Sketch 51.3 (57544) - http://www.bohemiancoding.com/sketch -->
    <title>advertising-megaphone</title>
    <desc>Created with Sketch.</desc>
    <defs></defs>
    <g id="Page-1-Copy" stroke="none" stroke-width="1" fill="none" fill-rule="evenodd">
        <g id="Desktop" transform="translate(-245.000000, -274.000000)" fill="#FFFFFF" fill-rule="nonzero">
            <g id="SOLUTIONS" transform="translate(214.000000, 81.000000)">
                <g id="advertising-megaphone" transform="translate(31.000000, 193.000000)">
                    <path d="M0.231291963,26.4087864 C0.0276168777,26.1020614 0.111155323,25.6883004 0.417880302,25.4846253 C0.724605281,25.2809502 1.13836629,25.3644887 1.34204137,25.6712136 L3.58204137,29.044547 C3.78571646,29.3512719 3.70217801,29.765033 3.39545303,29.968708 C3.08872805,30.1723831 2.67496705,30.0888447 2.47129196,29.7821197 L0.231291963,26.4087864 Z" id="Shape"></path>
                    <path d="M12.6179228,11.3953991 C12.4142775,11.0886544 12.4978561,10.6749015 12.8046009,10.4712562 C13.1113456,10.2676109 13.5250985,10.3511895 13.7287438,10.6579342 L22.2354105,23.4712675 C22.4390558,23.7780123 22.3554772,24.1917652 22.0487325,24.3954105 C21.7419877,24.5990558 21.3282348,24.5154772 21.1245895,24.2087325 L12.6179228,11.3953991 Z" id="Shape"></path>
                    <path d="M13.5609902,12.8130069 L2.06848043,26.7602395 L2.86504514,27.9610193 L20.1802078,22.7818199 L13.5609902,12.8130069 Z M21.4243791,23.8013731 L2.77371241,29.3800398 C2.49250907,29.4641515 2.18937713,29.3544548 2.02712337,29.1098657 L0.684456703,27.0858657 C0.522311614,26.8414404 0.53897151,26.5197524 0.725498497,26.2933845 L13.1041652,11.2707178 C13.3888585,10.9252159 13.9264113,10.9529393 14.1740514,11.3258954 L21.788718,22.7938954 C22.0363678,23.166866 21.8533048,23.6730757 21.4243791,23.8013731 Z" id="Shape"></path>
                    <path d="M11.7854455,26.2753783 C11.5435199,25.9978252 11.5724018,25.5767044 11.849955,25.3347788 C12.1275082,25.0928533 12.5486289,25.1217351 12.7905545,25.3992883 C14.0606637,26.8564424 13.909033,29.0673214 12.4518783,30.3374344 C10.9947241,31.6075437 8.78384516,31.455913 7.51373212,29.9987583 C7.41617097,29.8868296 7.32583155,29.7688064 7.24192392,29.6433974 L6.07259058,27.8820641 C5.86894544,27.5753192 5.95252427,27.1615664 6.25926912,26.9579212 C6.56601398,26.7542761 6.97976683,26.8378549 7.18341198,27.1445998 L8.35140826,28.903927 C8.40252288,28.9803186 8.45844665,29.0533797 8.51884054,29.1226676 C9.30510204,30.024717 10.6737405,30.1185835 11.5757876,29.332326 C12.477837,28.5460645 12.5717036,27.1774261 11.7854455,26.2753783 Z" id="Shape"></path>
                    <path d="M18.3773331,29.2637347 C17.8637015,29.7479984 17.0616319,29.7479984 16.5475449,29.2633049 L16.0662116,28.8086383 C15.7985533,28.5558087 15.7865322,28.1338699 16.0393618,27.8662116 C16.2921914,27.5985533 16.7141302,27.5865323 16.9817885,27.8393619 L17.4626665,28.2935989 L19.9948369,25.8946983 C20.1578735,25.7402426 20.3877202,25.6782549 20.6063105,25.7297889 L24.0013232,26.5301871 L24.9970718,23.1870307 C25.0613101,22.971355 25.2300215,22.8026436 25.4456972,22.7384052 L28.7900983,21.7422859 L27.9834079,18.3488508 C27.9313655,18.1299288 27.9932734,17.8995262 28.1480315,17.7361704 L30.5469321,15.2040004 L28.1480315,12.6718299 C27.9936757,12.5088987 27.9316617,12.2792353 27.9830284,12.0607547 L28.7796099,8.67282807 L25.4336972,7.6762617 C25.2180215,7.61202337 25.0493101,7.44331194 24.9850717,7.22763625 L23.98904,3.88352951 L20.5942535,4.68355805 C20.3756789,4.73506817 20.1458584,4.67307664 19.9828369,4.51863525 L17.4506668,2.1197346 L14.9184964,4.5186352 C14.7551405,4.67339336 14.5247379,4.73530121 14.305816,4.68325887 L10.9272389,3.87992365 L9.93092819,7.22496953 C9.86668986,7.44064521 9.69797843,7.60935665 9.48230274,7.67359498 L6.138196,8.66962676 L6.93822454,12.0644132 C6.98973465,12.2829878 6.92774313,12.5128084 6.77330174,12.6758298 L4.37440128,15.2079997 L5.2688456,16.1557646 C5.52155386,16.4235374 5.50934161,16.8454707 5.24156878,17.0981789 C4.97379594,17.3508872 4.55186265,17.3386749 4.2991544,17.0709021 L3.40426543,16.1226664 C2.92000183,15.6090349 2.9200018,14.8069654 3.40536482,14.2921703 L5.55790936,12.02004 L4.84047024,8.9757066 C4.67828207,8.28805635 5.08064876,7.59327211 5.75769716,7.3917385 L8.75602826,6.49869491 L9.6487611,3.50140993 C9.84649368,2.83354311 10.5249746,2.43040455 11.2208506,2.57940795 L14.2633158,3.30266588 L16.5360002,1.14959884 C17.0496319,0.665335071 17.8517016,0.665335102 18.3664964,1.15069834 L20.6386268,3.30324287 L23.6829601,2.58580375 C24.3706104,2.42361559 25.0653946,2.82598228 25.2669282,3.50303068 L26.1599719,6.50136202 L29.1563903,7.39383871 C29.8412041,7.59557965 30.2456034,8.30092682 30.0756383,8.9859122 L29.3632681,12.0158759 L31.5170679,14.2893337 C32.0013316,14.8029653 32.0013316,15.6050349 31.5159685,16.1198299 L29.3640009,18.3913512 L30.0872347,21.4337147 C30.2510265,22.1222449 29.8483246,22.8187785 29.1703028,23.0202617 L26.1719717,23.9133053 L25.2786764,26.9124798 C25.0759558,27.5898294 24.3797568,27.9911677 23.6936896,27.8275446 L20.6505992,27.1101166 L18.3773331,29.2637347 Z" id="Shape"></path>
                </g>
            </g>
        </g>
    </g>
</svg>