<?xml version="1.0" encoding="UTF-8"?>
<svg width="23px" height="19px" viewBox="0 0 23 19" version="1.1" xmlns="http://www.w3.org/2000/svg" xmlns:xlink="http://www.w3.org/1999/xlink">
    <!-- Generator: Sketch 51.3 (57544) - http://www.bohemiancoding.com/sketch -->
    <title>Shape</title>
    <desc>Created with Sketch.</desc>
    <defs></defs>
    <g id="Page-1-Copy" stroke="none" stroke-width="1" fill="none" fill-rule="evenodd">
        <g id="Mobile" transform="translate(-60.000000, -6088.000000)" fill="#FFFFFF" fill-rule="nonzero">
            <g id="Group-12" transform="translate(29.000000, 6087.000000)">
                <path d="M51.1551737,5.5470128 C51.1694333,5.74655941 51.1694333,5.94614991 51.1694333,6.14569653 C51.1694333,12.2321316 46.5369068,19.2451335 38.0699963,19.2451335 C35.4614991,19.2451335 33.0383327,18.489638 31,17.1783254 C31.3706179,17.2210603 31.7269324,17.2353199 32.1118099,17.2353199 C34.2641316,17.2353199 36.2454698,16.5083876 37.8276709,15.2682852 C35.8035978,15.2255064 34.1073638,13.8998903 33.5229397,12.0753638 C33.8080439,12.1180987 34.0931042,12.1466179 34.392468,12.1466179 C34.8058208,12.1466179 35.2192176,12.0895795 35.6040512,11.9898501 C33.4944644,11.5621938 31.9122194,9.70919196 31.9122194,7.47131261 L31.9122194,7.4143181 C32.5251188,7.75641682 33.2378793,7.97022303 33.993287,7.99869835 C32.7531846,7.17194881 31.9407386,5.76081901 31.9407386,4.16435832 C31.9407386,3.30913346 32.1687605,2.52516271 32.5678976,1.84096527 C34.8342962,4.63474954 38.2410238,6.45923218 42.0610603,6.65882267 C41.9898062,6.31672395 41.9470274,5.96040951 41.9470274,5.60405119 C41.9470274,3.06680804 43.9996197,1 46.5510786,1 C47.8766947,1 49.0740183,1.55590494 49.9150274,2.45390859 C50.9555393,2.25436197 51.9533163,1.86948446 52.8371042,1.34209872 C52.4949616,2.41117367 51.7680293,3.30917733 50.8130311,3.87929799 C51.7395539,3.77956856 52.6375576,3.52293967 53.4642633,3.16662523 C52.837192,4.07884461 52.0531773,4.89129068 51.1551737,5.5470128 Z" id="Shape"></path>
            </g>
        </g>
    </g>
</svg>