<?xml version="1.0" encoding="UTF-8"?>
<svg width="20px" height="20px" viewBox="0 0 20 20" version="1.1" xmlns="http://www.w3.org/2000/svg" xmlns:xlink="http://www.w3.org/1999/xlink">
    <!-- Generator: Sketch 51.3 (57544) - http://www.bohemiancoding.com/sketch -->
    <title>Shape</title>
    <desc>Created with Sketch.</desc>
    <defs></defs>
    <g id="Page-1-Copy" stroke="none" stroke-width="1" fill="none" fill-rule="evenodd">
        <g id="Mobile" transform="translate(-29.000000, -6087.000000)" fill="#FFFFFF" fill-rule="nonzero">
            <g id="Group-12" transform="translate(29.000000, 6087.000000)">
                <path d="M19.8062157,1.08372943 L19.8062157,18.5681901 C19.8062157,19.169287 19.3191956,19.6519196 18.7224863,19.6519196 L13.711883,19.6519196 L13.711883,12.0438757 L16.2654479,12.0438757 L16.6471664,9.07787934 L13.7074954,9.07787934 L13.7074954,7.18244973 C13.7074954,6.32248629 13.9444241,5.73893967 15.1773309,5.73893967 L16.7480804,5.73893967 L16.7480804,3.08446069 C16.4760512,3.04936015 15.5458867,2.96599634 14.4577697,2.96599634 C12.1937843,2.96599634 10.640585,4.34808044 10.640585,6.88848263 L10.640585,9.07787934 L8.07824497,9.07787934 L8.07824497,12.0438757 L10.640585,12.0438757 L10.640585,19.6563071 L1.23363803,19.6563071 C0.636928702,19.6563071 0.149908592,19.169287 0.149908592,18.5725777 L0.149908592,1.08372943 C0.149908592,0.48702011 0.636928702,0 1.23363803,0 L18.7180987,0 C19.3191956,0 19.8062157,0.48702011 19.8062157,1.08372943 Z" id="Shape"></path>
            </g>
        </g>
    </g>
</svg>