<?xml version="1.0" encoding="UTF-8"?>
<svg width="20px" height="20px" viewBox="0 0 20 20" version="1.1" xmlns="http://www.w3.org/2000/svg" xmlns:xlink="http://www.w3.org/1999/xlink">
    <!-- Generator: Sketch 51.3 (57544) - http://www.bohemiancoding.com/sketch -->
    <title>Shape</title>
    <desc>Created with Sketch.</desc>
    <defs></defs>
    <g id="Page-1-Copy" stroke="none" stroke-width="1" fill="none" fill-rule="evenodd">
        <g id="Mobile" transform="translate(-94.000000, -6087.000000)" fill="#FFFFFF" fill-rule="nonzero">
            <g id="Group-12" transform="translate(29.000000, 6087.000000)">
                <path d="M83.2522852,0 L66.3996344,0 C65.6274223,0 65,0.636197441 65,1.41718464 L65,18.2391225 C65,19.0201097 65.6274223,19.6563071 66.3996344,19.6563071 L83.2522852,19.6563071 C84.0244973,19.6563071 84.6563071,19.0201097 84.6563071,18.2391225 L84.6563071,1.41718464 C84.6563071,0.636197441 84.0244973,6.23510993e-16 83.2522852,0 Z M70.9407678,16.8482633 L68.0274223,16.8482633 L68.0274223,7.46764168 L70.9451554,7.46764168 L70.9451554,16.8482633 L70.9407678,16.8482633 Z M69.4840951,6.18647166 C68.549543,6.18647166 67.7948812,5.4274223 67.7948812,4.49725777 C67.7948812,3.56709324 68.549543,2.80804388 69.4840951,2.80804388 C70.4142596,2.80804388 71.173309,3.56709324 71.173309,4.49725777 C71.173309,5.43180987 70.4186472,6.18647166 69.4840951,6.18647166 Z M81.861426,16.8482633 L78.9480804,16.8482633 L78.9480804,12.285192 C78.9480804,11.197075 78.9261426,9.79744059 77.4343693,9.79744059 C75.9162706,9.79744059 75.6837294,10.9820841 75.6837294,12.2062157 L75.6837294,16.8482633 L72.7703839,16.8482633 L72.7703839,7.46764168 L75.5652651,7.46764168 L75.5652651,8.7488117 L75.6047532,8.7488117 C75.9952468,8.01170018 76.9473492,7.23510055 78.3645338,7.23510055 C81.3129799,7.23510055 81.861426,9.17879342 81.861426,11.7060329 L81.861426,16.8482633 Z" id="Shape"></path>
            </g>
        </g>
    </g>
</svg>