<?xml version="1.0" encoding="UTF-8"?>
<svg width="24px" height="17px" viewBox="0 0 24 17" version="1.1" xmlns="http://www.w3.org/2000/svg" xmlns:xlink="http://www.w3.org/1999/xlink">
    <!-- Generator: Sketch 51.3 (57544) - http://www.bohemiancoding.com/sketch -->
    <title>Shape</title>
    <desc>Created with Sketch.</desc>
    <defs></defs>
    <g id="Page-1-Copy" stroke="none" stroke-width="1" fill="none" fill-rule="evenodd">
        <g id="Mobile" transform="translate(-156.000000, -6088.000000)" fill="#FFFFFF" fill-rule="nonzero">
            <g id="Group-12" transform="translate(29.000000, 6087.000000)">
                <path d="M150.461294,3.63618282 C150.185711,2.59852285 149.373748,1.78129433 148.342801,1.50395612 C146.474135,1 138.981002,1 138.981002,1 C138.981002,1 131.487912,1 129.619203,1.50395612 C128.588256,1.78133821 127.776293,2.59852285 127.500709,3.63618282 C127,5.51700183 127,9.44115539 127,9.44115539 C127,9.44115539 127,13.365309 127.500709,15.246128 C127.776293,16.2837879 128.588256,17.0669689 129.619203,17.3443071 C131.487912,17.8482633 138.981002,17.8482633 138.981002,17.8482633 C138.981002,17.8482633 146.474091,17.8482633 148.342801,17.3443071 C149.373748,17.0669689 150.185711,16.2837879 150.461294,15.246128 C150.962004,13.365309 150.962004,9.44115539 150.962004,9.44115539 C150.962004,9.44115539 150.962004,5.51700183 150.461294,3.63618282 Z M136.530325,13.0039927 L136.530325,5.8783181 L142.793097,9.44124314 L136.530325,13.0039927 Z" id="Shape"></path>
            </g>
        </g>
    </g>
</svg>