<?xml version="1.0" encoding="UTF-8"?>
<svg width="20px" height="20px" viewBox="0 0 20 20" version="1.1" xmlns="http://www.w3.org/2000/svg" xmlns:xlink="http://www.w3.org/1999/xlink">
    <!-- Generator: Sketch 51.3 (57544) - http://www.bohemiancoding.com/sketch -->
    <title>Shape</title>
    <desc>Created with Sketch.</desc>
    <defs></defs>
    <g id="Page-1-Copy" stroke="none" stroke-width="1" fill="none" fill-rule="evenodd">
        <g id="Mobile" transform="translate(-126.000000, -6087.000000)" fill="#FFFFFF" fill-rule="nonzero">
            <g id="Group-12" transform="translate(29.000000, 6087.000000)">
                <path d="M106.835832,4.79012797 C104.045338,4.79012797 101.794516,7.04095064 101.794516,9.83144424 C101.794516,12.6219378 104.045338,14.8727605 106.835832,14.8727605 C109.626325,14.8727605 111.877148,12.6219378 111.877148,9.83144424 C111.877148,7.04095064 109.626325,4.79012797 106.835832,4.79012797 Z M106.835832,13.108958 C105.032541,13.108958 103.558318,11.6391225 103.558318,9.83144424 C103.558318,8.023766 105.028154,6.55393053 106.835832,6.55393053 C108.64351,6.55393053 110.113346,8.023766 110.113346,9.83144424 C110.113346,11.6391225 108.639122,13.108958 106.835832,13.108958 Z M113.259232,4.58391225 C113.259232,5.23765996 112.732724,5.75978062 112.083364,5.75978062 C111.429616,5.75978062 110.907495,5.23327239 110.907495,4.58391225 C110.907495,3.9345521 111.434004,3.40804388 112.083364,3.40804388 C112.732724,3.40804388 113.259232,3.9345521 113.259232,4.58391225 Z M116.598172,5.7773309 C116.523583,4.20219378 116.163803,2.80694698 115.009872,1.65740402 C113.860329,0.50786106 112.465082,0.148080439 110.889945,0.0691042048 C109.266545,-0.0230347349 104.400731,-0.0230347349 102.777331,0.0691042048 C101.206581,0.14369287 99.8113346,0.503473492 98.657404,1.65301645 C97.5034735,2.80255941 97.1480804,4.19780622 97.0691042,5.77294333 C96.9769653,7.39634369 96.9769653,12.2621572 97.0691042,13.8855576 C97.1436929,15.4606947 97.5034735,16.8559415 98.657404,18.0054845 C99.8113346,19.1550274 101.202194,19.514808 102.777331,19.5937843 C104.400731,19.6859232 109.266545,19.6859232 110.889945,19.5937843 C112.465082,19.5191956 113.860329,19.159415 115.009872,18.0054845 C116.159415,16.8559415 116.519196,15.4606947 116.598172,13.8855576 C116.690311,12.2621572 116.690311,7.40073126 116.598172,5.7773309 Z M114.500914,15.6274223 C114.158684,16.4873857 113.496161,17.1499086 112.63181,17.4965265 C111.337477,18.009872 108.266179,17.8914077 106.835832,17.8914077 C105.405484,17.8914077 102.329799,18.0054845 101.039854,17.4965265 C100.17989,17.1542962 99.5173675,16.4917733 99.1707495,15.6274223 C98.657404,14.3330896 98.7758684,11.2617916 98.7758684,9.83144424 C98.7758684,8.40109689 98.6617916,5.32541133 99.1707495,4.03546618 C99.5129799,3.17550274 100.175503,2.51297989 101.039854,2.16636197 C102.334186,1.65301645 105.405484,1.7714808 106.835832,1.7714808 C108.266179,1.7714808 111.341865,1.65740402 112.63181,2.16636197 C113.491773,2.50859232 114.154296,3.17111517 114.500914,4.03546618 C115.01426,5.3297989 114.895795,8.40109689 114.895795,9.83144424 C114.895795,11.2617916 115.01426,14.3374771 114.500914,15.6274223 Z" id="Shape"></path>
            </g>
        </g>
    </g>
</svg>