<?xml version="1.0" encoding="UTF-8"?>
<svg width="32px" height="28px" viewBox="0 0 32 28" version="1.1" xmlns="http://www.w3.org/2000/svg" xmlns:xlink="http://www.w3.org/1999/xlink">
    <!-- Generator: Sketch 49.1 (51147) - http://www.bohemiancoding.com/sketch -->
    <title>Page 1 Copy</title>
    <desc>Created with Sketch.</desc>
    <defs></defs>
    <g id="Page-1" stroke="none" stroke-width="1" fill="none" fill-rule="evenodd">
        <g id="Large-Devices-(-≥-1200px-)" transform="translate(-705.000000, -74.000000)" fill="#FFFFFF">
            <g id="HEADER" transform="translate(157.000000, 60.000000)">
                <g id="Group" transform="translate(534.000000, 0.000000)">
                    <polygon id="Page-1-Copy" points="30.0001891 14 29.4031219 15.0443395 27.7162844 17.9961467 23.0304985 26.1962444 21.9959351 28.0064583 14.5913952 40.9643981 14 42 15.1880842 42 18.6283101 42 19.0264809 42 19.2249991 41.6527733 24.3165184 32.7430262 29.4239191 41.6535331 29.6224373 42 30.02023 42 33.4604559 42 34.6504307 42 34.0563886 40.9640182 26.8288135 28.3460871 29.9998109 22.7969174 40.7746228 41.6527733 40.973141 42 41.3716899 42 44.8115377 42 46 42 45.4082267 40.9643981 30.5964999 15.0443395"></polygon>
                </g>
            </g>
        </g>
    </g>
</svg>